{"glyphs":{"0":{"ha":893,"x_min":76,"x_max":856,"o":"m 435 -1 q 246 47 328 -1 q 120 190 164 96 q 81 414 76 283 q 126 628 89 514 q 257 831 164 742 q 508 921 350 921 q 683 876 604 921 q 809 744 763 831 q 856 543 856 658 q 853 482 856 503 q 791 238 842 347 q 649 64 740 129 q 435 -1 558 -1 m 444 126 q 579 178 521 126 q 671 315 638 231 q 711 497 704 400 l 713 531 q 650 728 713 664 q 490 793 588 793 q 349 735 410 793 q 255 585 288 678 q 222 390 222 493 q 285 192 222 258 q 444 126 347 126 z "},"1":{"ha":486,"x_min":157,"x_max":414,"o":"m 414 914 l 301 0 l 165 0 l 261 785 l 157 785 l 174 914 l 414 914 z "},"2":{"ha":789,"x_min":63,"x_max":714,"o":"m 714 664 q 686 515 714 586 q 586 353 658 443 q 378 131 514 263 l 701 131 l 686 0 l 63 0 q 398 322 288 201 q 540 507 508 442 q 572 633 572 572 q 526 755 572 714 q 407 796 481 796 q 303 767 343 796 q 248 699 264 739 q 232 621 232 658 q 269 499 232 547 l 179 424 q 124 515 147 460 q 100 629 100 571 q 131 763 100 696 q 235 878 163 831 q 421 925 307 925 q 633 856 551 925 q 714 664 714 786 z "},"3":{"ha":699,"x_min":51,"x_max":642,"o":"m 403 578 q 522 544 468 575 q 609 457 576 513 q 642 328 642 401 q 608 171 642 247 q 501 44 575 94 q 315 -10 428 -7 q 170 18 243 -11 q 51 107 97 47 l 132 210 q 210 144 163 167 q 308 121 258 121 q 451 180 400 121 q 503 324 503 239 q 449 442 503 399 q 307 486 394 486 q 247 480 276 486 q 201 465 218 474 l 196 471 l 425 785 l 146 785 l 161 914 l 642 914 l 403 578 z "},"4":{"ha":717,"x_min":4,"x_max":694,"o":"m 694 325 l 682 221 l 564 221 l 536 0 l 401 0 l 428 221 l 4 221 l 4 222 l 647 925 l 649 925 l 576 325 l 694 325 m 440 325 l 476 610 l 224 325 l 440 325 z "},"5":{"ha":725,"x_min":75,"x_max":663,"o":"m 363 597 q 498 567 432 597 q 608 472 564 536 q 651 313 651 408 q 619 165 651 239 q 513 40 586 90 q 326 -11 440 -11 q 196 17 269 -11 q 75 101 122 44 l 158 203 q 235 140 189 158 q 322 122 281 122 q 465 175 417 122 q 513 306 513 228 q 451 442 513 397 q 311 488 390 488 q 146 435 224 488 l 143 435 l 233 914 l 663 914 l 647 785 l 319 785 l 285 588 q 363 597 321 597 z "},"6":{"ha":779,"x_min":75,"x_max":719,"o":"m 464 583 q 582 553 522 583 q 681 461 642 522 q 719 313 719 400 q 680 161 719 236 q 563 38 640 86 q 382 -11 486 -11 q 224 28 294 -11 q 115 141 154 68 q 75 310 75 214 q 186 615 75 461 q 568 915 297 769 l 646 811 q 424 683 517 758 q 282 525 332 608 q 464 583 357 583 m 383 111 q 499 143 454 111 q 562 220 543 175 q 581 306 581 265 q 529 426 581 379 q 401 472 478 472 q 287 440 331 472 q 225 365 243 408 q 207 283 207 321 q 258 161 207 211 q 383 111 308 111 z "},"7":{"ha":681,"x_min":83,"x_max":719,"o":"m 719 914 l 243 0 l 83 0 l 500 785 l 104 785 l 121 914 l 719 914 z "},"8":{"ha":764,"x_min":58,"x_max":707,"o":"m 58 275 q 119 451 58 378 q 269 558 179 525 q 194 697 194 619 q 221 805 194 753 q 303 891 247 857 q 439 925 358 925 q 560 899 506 925 q 645 829 614 874 q 676 731 676 785 q 647 622 676 667 q 558 542 617 578 q 664 448 621 508 q 707 307 707 388 q 668 166 707 240 q 552 40 629 92 q 367 -11 475 -11 q 207 28 278 -11 q 97 133 136 67 q 58 275 58 199 m 324 701 q 352 627 321 658 q 429 596 383 596 q 515 631 485 596 q 544 707 544 667 q 515 783 544 753 q 442 813 486 813 q 360 782 392 813 q 324 701 328 751 m 196 282 q 244 156 196 207 q 369 104 292 104 q 473 131 426 104 q 547 205 519 158 q 574 306 574 251 q 523 431 574 379 q 397 483 472 483 q 292 454 338 483 q 221 378 246 425 q 196 282 196 332 z "},"9":{"ha":771,"x_min":94,"x_max":744,"o":"m 432 896 q 595 856 524 896 q 706 747 667 817 q 742 589 744 676 q 602 274 732 415 q 213 -4 472 132 l 135 100 q 351 213 257 151 q 503 338 446 274 q 361 303 442 303 q 233 335 294 303 q 133 430 171 368 q 94 572 94 492 q 134 722 94 647 q 251 847 174 797 q 432 896 328 896 m 417 414 q 604 590 582 414 q 587 683 608 640 q 524 750 565 725 q 431 775 483 775 q 325 745 369 775 q 258 669 281 715 q 235 576 235 624 q 286 459 235 504 q 417 414 338 414 z "},"\u0000":{"ha":0,"x_min":0,"x_max":0,"o":""},"\r":{"ha":417,"x_min":0,"x_max":0,"o":""}," ":{"ha":417,"x_min":0,"x_max":0,"o":""},"A":{"ha":974,"x_min":6,"x_max":892,"o":"m 664 264 l 279 264 l 139 0 l 6 0 l 572 1046 l 581 1046 l 892 0 l 736 0 l 664 264 m 632 381 l 533 740 l 342 381 l 632 381 z "},"Á":{"ha":974,"x_min":6,"x_max":892,"o":"m 664 264 l 279 264 l 139 0 l 6 0 l 572 1046 l 581 1046 l 892 0 l 736 0 l 664 264 m 632 381 l 533 740 l 342 381 l 632 381 m 636 1089 l 553 1089 l 676 1275 l 819 1275 l 636 1089 z "},"Ă":{"ha":974,"x_min":6,"x_max":892,"o":"m 664 264 l 279 264 l 139 0 l 6 0 l 572 1046 l 581 1046 l 892 0 l 736 0 l 664 264 m 632 381 l 533 740 l 342 381 l 632 381 m 594 1099 q 456 1159 511 1099 q 401 1351 400 1219 l 489 1351 q 520 1228 488 1268 q 599 1188 553 1188 q 729 1351 692 1188 l 818 1351 q 739 1163 797 1226 q 594 1099 681 1099 z "},"Ắ":{"ha":974,"x_min":6,"x_max":892,"o":"m 664 264 l 279 264 l 139 0 l 6 0 l 572 1046 l 581 1046 l 892 0 l 736 0 l 664 264 m 632 381 l 533 740 l 342 381 l 632 381 m 599 1119 q 460 1180 515 1119 q 406 1372 404 1240 l 493 1372 q 524 1249 492 1289 q 603 1208 557 1208 q 733 1372 696 1208 l 822 1372 q 743 1183 801 1247 q 599 1119 685 1119 m 676 1411 l 593 1411 l 717 1597 l 860 1597 l 676 1411 z "},"Ặ":{"ha":974,"x_min":6,"x_max":892,"o":"m 664 264 l 279 264 l 139 0 l 6 0 l 572 1046 l 581 1046 l 892 0 l 736 0 l 664 264 m 632 381 l 533 740 l 342 381 l 632 381 m 354 -142 q 377 -87 354 -110 q 435 -64 400 -64 q 487 -81 464 -64 q 510 -129 510 -99 q 486 -185 510 -162 q 428 -208 463 -208 q 376 -190 397 -207 q 354 -142 354 -172 m 594 1099 q 456 1159 511 1099 q 401 1351 400 1219 l 489 1351 q 520 1228 488 1268 q 599 1188 553 1188 q 729 1351 692 1188 l 818 1351 q 739 1163 797 1226 q 594 1099 681 1099 z "},"Ằ":{"ha":974,"x_min":6,"x_max":892,"o":"m 664 264 l 279 264 l 139 0 l 6 0 l 572 1046 l 581 1046 l 892 0 l 736 0 l 664 264 m 632 381 l 533 740 l 342 381 l 632 381 m 593 1119 q 454 1180 510 1119 q 400 1372 399 1240 l 488 1372 q 519 1249 486 1289 q 597 1208 551 1208 q 728 1372 690 1208 l 817 1372 q 738 1183 796 1247 q 593 1119 679 1119 m 664 1401 l 581 1401 l 428 1588 l 572 1588 l 664 1401 z "},"Ẳ":{"ha":974,"x_min":6,"x_max":892,"o":"m 664 264 l 279 264 l 139 0 l 6 0 l 572 1046 l 581 1046 l 892 0 l 736 0 l 664 264 m 632 381 l 533 740 l 342 381 l 632 381 m 594 1099 q 456 1159 511 1099 q 401 1351 400 1219 l 489 1351 q 520 1228 488 1268 q 599 1188 553 1188 q 729 1351 692 1188 l 818 1351 q 739 1163 797 1226 q 594 1099 681 1099 m 594 1440 q 651 1485 635 1467 q 668 1533 668 1504 q 657 1565 668 1553 q 622 1576 646 1576 q 557 1539 588 1578 l 511 1571 q 640 1649 563 1649 q 719 1619 692 1649 q 743 1544 746 1590 q 619 1403 740 1465 l 594 1440 z "},"Ẵ":{"ha":974,"x_min":6,"x_max":892,"o":"m 664 264 l 279 264 l 139 0 l 6 0 l 572 1046 l 581 1046 l 892 0 l 736 0 l 664 264 m 632 381 l 533 740 l 342 381 l 632 381 m 708 1403 q 640 1421 667 1403 q 583 1474 614 1439 q 549 1508 563 1497 q 515 1518 535 1518 q 472 1490 490 1518 q 450 1417 454 1463 l 376 1424 q 424 1555 383 1503 q 528 1607 465 1607 q 588 1590 564 1607 q 640 1539 613 1572 q 678 1501 664 1513 q 714 1489 693 1489 q 774 1594 763 1489 l 846 1588 q 805 1453 844 1504 q 708 1403 765 1403 m 581 1119 q 442 1180 497 1119 q 388 1372 386 1240 l 475 1372 q 506 1249 474 1289 q 585 1208 539 1208 q 715 1372 678 1208 l 804 1372 q 725 1183 783 1247 q 581 1119 667 1119 z "},"Â":{"ha":974,"x_min":6,"x_max":892,"o":"m 664 264 l 279 264 l 139 0 l 6 0 l 572 1046 l 581 1046 l 892 0 l 736 0 l 664 264 m 632 381 l 533 740 l 342 381 l 632 381 m 696 1125 l 603 1254 l 482 1125 l 364 1125 l 618 1378 l 815 1125 l 696 1125 z "},"Ấ":{"ha":974,"x_min":6,"x_max":950,"o":"m 664 264 l 279 264 l 139 0 l 6 0 l 572 1046 l 581 1046 l 892 0 l 736 0 l 664 264 m 632 381 l 533 740 l 342 381 l 632 381 m 653 1125 l 560 1254 l 439 1125 l 321 1125 l 575 1378 l 772 1125 l 653 1125 m 767 1275 l 683 1275 l 807 1461 l 950 1461 l 767 1275 z "},"Ậ":{"ha":974,"x_min":6,"x_max":892,"o":"m 664 264 l 279 264 l 139 0 l 6 0 l 572 1046 l 581 1046 l 892 0 l 736 0 l 664 264 m 632 381 l 533 740 l 342 381 l 632 381 m 354 -142 q 377 -87 354 -110 q 435 -64 400 -64 q 487 -81 464 -64 q 510 -129 510 -99 q 486 -185 510 -162 q 428 -208 463 -208 q 376 -190 397 -207 q 354 -142 354 -172 m 696 1125 l 603 1254 l 482 1125 l 364 1125 l 618 1378 l 815 1125 l 696 1125 z "},"Ầ":{"ha":974,"x_min":6,"x_max":892,"o":"m 664 264 l 279 264 l 139 0 l 6 0 l 572 1046 l 581 1046 l 892 0 l 736 0 l 664 264 m 632 381 l 533 740 l 342 381 l 632 381 m 693 1094 l 600 1224 l 479 1094 l 361 1094 l 615 1347 l 813 1094 l 693 1094 m 467 1247 l 383 1247 l 231 1433 l 375 1433 l 467 1247 z "},"Ẩ":{"ha":974,"x_min":6,"x_max":914,"o":"m 664 264 l 279 264 l 139 0 l 6 0 l 572 1046 l 581 1046 l 892 0 l 736 0 l 664 264 m 632 381 l 533 740 l 342 381 l 632 381 m 682 1094 l 589 1224 l 468 1094 l 350 1094 l 604 1347 l 801 1094 l 682 1094 m 765 1276 q 822 1322 806 1303 q 839 1369 839 1340 q 828 1401 839 1389 q 793 1413 817 1413 q 728 1375 758 1414 l 682 1407 q 811 1485 733 1485 q 890 1456 863 1485 q 914 1381 917 1426 q 790 1239 911 1301 l 765 1276 z "},"Ẫ":{"ha":974,"x_min":6,"x_max":892,"o":"m 664 264 l 279 264 l 139 0 l 6 0 l 572 1046 l 581 1046 l 892 0 l 736 0 l 664 264 m 632 381 l 533 740 l 342 381 l 632 381 m 543 1501 q 500 1474 518 1501 q 478 1400 482 1446 l 404 1407 q 452 1538 411 1486 q 556 1590 493 1590 q 616 1573 592 1590 q 668 1522 640 1556 q 706 1484 692 1496 q 742 1472 721 1472 q 801 1578 790 1472 l 874 1571 q 833 1437 872 1488 q 736 1386 793 1386 q 668 1404 694 1386 q 611 1457 642 1422 q 576 1491 590 1481 q 543 1501 563 1501 m 622 1342 l 819 1089 l 700 1089 l 607 1218 l 486 1089 l 368 1089 l 622 1342 z "},"Ȁ":{"ha":974,"x_min":6,"x_max":892,"o":"m 664 264 l 279 264 l 139 0 l 6 0 l 572 1046 l 581 1046 l 892 0 l 736 0 l 664 264 m 632 381 l 533 740 l 342 381 l 632 381 m 556 1125 l 472 1125 l 319 1311 l 464 1311 l 556 1125 m 743 1125 l 660 1125 l 507 1311 l 651 1311 l 743 1125 z "},"Ä":{"ha":974,"x_min":6,"x_max":892,"o":"m 664 264 l 279 264 l 139 0 l 6 0 l 572 1046 l 581 1046 l 892 0 l 736 0 l 664 264 m 632 381 l 533 740 l 342 381 l 632 381 m 397 1183 q 422 1239 397 1217 q 475 1261 446 1261 q 522 1241 501 1261 q 542 1190 542 1221 q 517 1134 542 1157 q 463 1114 492 1111 q 417 1135 436 1115 q 397 1183 397 1154 m 656 1183 q 680 1239 656 1217 q 733 1261 704 1261 q 780 1240 760 1261 q 800 1190 800 1219 q 775 1134 800 1157 q 721 1114 750 1111 q 675 1135 694 1115 q 656 1183 656 1154 z "},"Ạ":{"ha":974,"x_min":6,"x_max":892,"o":"m 664 264 l 279 264 l 139 0 l 6 0 l 572 1046 l 581 1046 l 892 0 l 736 0 l 664 264 m 632 381 l 533 740 l 342 381 l 632 381 m 354 -142 q 377 -87 354 -110 q 435 -64 400 -64 q 487 -81 464 -64 q 510 -129 510 -99 q 486 -185 510 -162 q 428 -208 463 -208 q 376 -190 397 -207 q 354 -142 354 -172 z "},"À":{"ha":974,"x_min":6,"x_max":892,"o":"m 664 264 l 279 264 l 139 0 l 6 0 l 572 1046 l 581 1046 l 892 0 l 736 0 l 664 264 m 632 381 l 533 740 l 342 381 l 632 381 m 629 1125 l 546 1125 l 393 1311 l 538 1311 l 629 1125 z "},"Ả":{"ha":974,"x_min":6,"x_max":892,"o":"m 664 264 l 279 264 l 139 0 l 6 0 l 572 1046 l 581 1046 l 892 0 l 736 0 l 664 264 m 632 381 l 533 740 l 342 381 l 632 381 m 560 1128 q 617 1173 600 1154 q 633 1221 633 1192 q 622 1252 633 1240 q 588 1264 611 1264 q 522 1226 553 1265 l 476 1258 q 606 1336 528 1336 q 684 1307 657 1336 q 708 1232 711 1278 q 585 1090 706 1153 l 560 1128 z "},"Ȃ":{"ha":974,"x_min":6,"x_max":892,"o":"m 664 264 l 279 264 l 139 0 l 6 0 l 572 1046 l 581 1046 l 892 0 l 736 0 l 664 264 m 632 381 l 533 740 l 342 381 l 632 381 m 604 1331 q 743 1270 688 1331 q 797 1078 799 1210 l 710 1078 q 678 1201 711 1161 q 600 1242 646 1242 q 469 1078 507 1242 l 381 1078 q 460 1267 401 1203 q 604 1331 518 1331 z "},"Ā":{"ha":974,"x_min":6,"x_max":892,"o":"m 664 264 l 279 264 l 139 0 l 6 0 l 572 1046 l 581 1046 l 892 0 l 736 0 l 664 264 m 632 381 l 533 740 l 342 381 l 632 381 m 760 1197 l 751 1122 l 428 1122 l 436 1197 l 760 1197 z "},"Ą":{"ha":974,"x_min":6,"x_max":926,"o":"m 926 -206 q 855 -268 899 -244 q 768 -292 811 -292 q 657 -251 701 -292 q 613 -147 613 -210 q 643 -57 613 -103 q 732 17 674 -11 l 664 264 l 279 264 l 139 0 l 6 0 l 572 1046 l 581 1046 l 892 1 l 892 0 l 888 0 q 763 -65 804 -33 q 722 -135 722 -96 q 741 -183 722 -167 q 788 -200 760 -200 q 885 -137 838 -200 l 926 -206 m 632 381 l 533 740 l 342 381 l 632 381 z "},"Å":{"ha":974,"x_min":6,"x_max":892,"o":"m 664 264 l 279 264 l 139 0 l 6 0 l 572 1046 l 581 1046 l 892 0 l 736 0 l 664 264 m 632 381 l 533 740 l 342 381 l 632 381 m 472 1178 q 511 1274 472 1238 q 608 1311 550 1311 q 698 1279 664 1311 q 732 1196 732 1247 q 692 1099 732 1136 q 596 1063 653 1063 q 507 1095 542 1063 q 472 1178 472 1128 m 543 1183 q 558 1142 543 1157 q 597 1124 572 1126 q 644 1142 625 1124 q 663 1190 663 1161 q 647 1232 663 1217 q 607 1247 632 1247 q 562 1230 581 1247 q 543 1183 543 1213 z "},"Ǻ":{"ha":974,"x_min":6,"x_max":892,"o":"m 664 264 l 279 264 l 139 0 l 6 0 l 572 1046 l 581 1046 l 892 0 l 736 0 l 664 264 m 632 381 l 533 740 l 342 381 l 632 381 m 472 1178 q 511 1274 472 1238 q 608 1311 550 1311 q 698 1279 664 1311 q 732 1196 732 1247 q 692 1099 732 1136 q 596 1063 653 1063 q 507 1095 542 1063 q 472 1178 472 1128 m 543 1183 q 558 1142 543 1157 q 597 1124 572 1126 q 644 1142 625 1124 q 663 1190 663 1161 q 647 1232 663 1217 q 607 1247 632 1247 q 562 1230 581 1247 q 543 1183 543 1213 m 672 1374 l 589 1374 l 713 1560 l 856 1560 l 672 1374 z "},"Ã":{"ha":974,"x_min":6,"x_max":892,"o":"m 664 264 l 279 264 l 139 0 l 6 0 l 572 1046 l 581 1046 l 892 0 l 736 0 l 664 264 m 632 381 l 533 740 l 342 381 l 632 381 m 701 1076 q 623 1097 653 1076 q 558 1156 593 1117 q 519 1194 535 1182 q 482 1206 504 1206 q 434 1174 454 1206 q 408 1092 414 1143 l 326 1099 q 380 1247 333 1188 q 497 1306 426 1306 q 564 1285 536 1306 q 622 1229 592 1265 q 665 1185 649 1199 q 704 1172 682 1172 q 772 1290 758 1172 l 853 1283 q 831 1175 853 1222 q 776 1102 810 1128 q 701 1076 742 1076 z "},"Æ":{"ha":1324,"x_min":-18,"x_max":1299,"o":"m 869 874 l 831 568 l 1189 568 l 1174 438 l 815 438 l 778 131 l 1211 131 l 1196 0 l 628 0 l 658 249 l 322 249 l 138 0 l -18 0 l 750 1004 l 1299 1004 l 1283 874 l 869 874 m 671 356 l 724 790 l 401 356 l 671 356 z "},"Ǽ":{"ha":1324,"x_min":-18,"x_max":1299,"o":"m 869 874 l 831 568 l 1189 568 l 1174 438 l 815 438 l 778 131 l 1211 131 l 1196 0 l 628 0 l 658 249 l 322 249 l 138 0 l -18 0 l 750 1004 l 1299 1004 l 1283 874 l 869 874 m 671 356 l 724 790 l 401 356 l 671 356 m 1017 1068 l 933 1068 l 1057 1254 l 1200 1254 l 1017 1068 z "},"B":{"ha":853,"x_min":107,"x_max":779,"o":"m 604 510 q 722 438 676 490 q 768 303 768 386 q 668 76 768 153 q 415 0 568 0 l 107 0 l 231 1004 l 489 1004 q 705 952 631 1004 q 779 786 779 900 q 738 615 779 693 q 604 510 696 536 m 315 565 l 463 565 q 565 595 525 565 q 621 667 604 625 q 638 749 638 708 q 476 879 638 879 l 354 879 l 315 565 m 421 125 q 576 176 521 125 q 632 307 632 226 q 577 413 632 378 q 444 447 522 447 l 300 447 l 263 125 l 421 125 z "},"C":{"ha":971,"x_min":108,"x_max":950,"o":"m 858 53 q 740 3 811 25 q 589 -18 669 -18 q 356 33 465 -18 q 177 191 246 85 q 108 451 108 297 q 164 719 108 592 q 338 928 219 847 q 638 1010 457 1010 q 810 982 731 1010 q 950 910 890 954 l 881 788 q 771 853 835 826 q 633 879 707 879 q 424 822 511 879 q 292 669 336 765 q 249 461 249 574 q 292 281 249 360 q 415 158 336 201 q 594 114 493 114 q 710 131 661 114 q 815 176 760 149 l 858 53 z "},"Ć":{"ha":971,"x_min":108,"x_max":950,"o":"m 858 53 q 740 3 811 25 q 589 -18 669 -18 q 356 33 465 -18 q 177 191 246 85 q 108 451 108 297 q 164 719 108 592 q 338 928 219 847 q 638 1010 457 1010 q 810 982 731 1010 q 950 910 890 954 l 881 788 q 771 853 835 826 q 633 879 707 879 q 424 822 511 879 q 292 669 336 765 q 249 461 249 574 q 292 281 249 360 q 415 158 336 201 q 594 114 493 114 q 710 131 661 114 q 815 176 760 149 l 858 53 m 690 1061 l 607 1061 l 731 1247 l 874 1247 l 690 1061 z "},"Č":{"ha":971,"x_min":108,"x_max":950,"o":"m 858 53 q 740 3 811 25 q 589 -18 669 -18 q 356 33 465 -18 q 177 191 246 85 q 108 451 108 297 q 164 719 108 592 q 338 928 219 847 q 638 1010 457 1010 q 810 982 731 1010 q 950 910 890 954 l 881 788 q 771 853 835 826 q 633 879 707 879 q 424 822 511 879 q 292 669 336 765 q 249 461 249 574 q 292 281 249 360 q 415 158 336 201 q 594 114 493 114 q 710 131 661 114 q 815 176 760 149 l 858 53 m 904 1331 l 649 1078 l 647 1078 l 451 1331 l 571 1331 l 664 1201 l 785 1331 l 904 1331 z "},"Ç":{"ha":971,"x_min":108,"x_max":950,"o":"m 633 879 q 424 822 511 879 q 292 669 336 765 q 249 461 249 574 q 292 281 249 360 q 415 158 336 201 q 594 114 493 114 q 710 131 661 114 q 815 176 760 149 l 858 53 q 762 11 819 31 q 639 -15 704 -8 l 589 -67 l 601 -67 q 714 -100 672 -69 q 756 -183 756 -131 q 701 -287 756 -251 q 565 -322 646 -322 q 408 -261 460 -322 l 456 -208 q 491 -238 468 -226 q 543 -251 514 -250 q 615 -235 585 -253 q 644 -185 644 -218 q 553 -126 644 -126 q 471 -137 515 -126 l 456 -72 l 531 -15 q 321 51 417 -4 q 167 208 225 107 q 108 451 108 308 q 164 719 108 592 q 338 928 219 847 q 638 1010 457 1010 q 810 982 731 1010 q 950 910 890 954 l 881 788 q 771 853 835 826 q 633 879 707 879 z "},"Ĉ":{"ha":971,"x_min":108,"x_max":950,"o":"m 858 53 q 740 3 811 25 q 589 -18 669 -18 q 356 33 465 -18 q 177 191 246 85 q 108 451 108 297 q 164 719 108 592 q 338 928 219 847 q 638 1010 457 1010 q 810 982 731 1010 q 950 910 890 954 l 881 788 q 771 853 835 826 q 633 879 707 879 q 424 822 511 879 q 292 669 336 765 q 249 461 249 574 q 292 281 249 360 q 415 158 336 201 q 594 114 493 114 q 710 131 661 114 q 815 176 760 149 l 858 53 m 750 1097 l 657 1226 l 536 1097 l 418 1097 l 672 1350 l 869 1097 l 750 1097 z "},"Ċ":{"ha":971,"x_min":108,"x_max":950,"o":"m 858 53 q 740 3 811 25 q 589 -18 669 -18 q 356 33 465 -18 q 177 191 246 85 q 108 451 108 297 q 164 719 108 592 q 338 928 219 847 q 638 1010 457 1010 q 810 982 731 1010 q 950 910 890 954 l 881 788 q 771 853 835 826 q 633 879 707 879 q 424 822 511 879 q 292 669 336 765 q 249 461 249 574 q 292 281 249 360 q 415 158 336 201 q 594 114 493 114 q 710 131 661 114 q 815 176 760 149 l 858 53 m 579 1189 q 602 1244 579 1221 q 660 1267 625 1267 q 712 1249 689 1267 q 735 1201 735 1232 q 711 1145 735 1168 q 653 1122 688 1122 q 601 1141 622 1124 q 579 1189 579 1158 z "},"D":{"ha":1046,"x_min":107,"x_max":990,"o":"m 231 1004 l 524 1004 q 793 944 689 1004 q 944 785 897 883 q 990 564 990 686 q 988 510 990 546 q 902 238 978 354 q 706 61 826 122 q 444 0 586 0 l 107 0 l 231 1004 m 442 131 q 653 180 560 131 q 799 325 746 229 q 853 558 853 421 q 808 735 853 664 q 689 840 764 806 q 522 875 614 875 l 349 875 l 257 131 l 442 131 z "},"Ǆ":{"ha":1961,"x_min":107,"x_max":2003,"o":"m 231 1004 l 524 1004 q 793 944 689 1004 q 944 785 897 883 q 990 564 990 686 q 988 510 990 546 q 902 238 978 354 q 706 61 826 122 q 444 0 586 0 l 107 0 l 231 1004 m 442 131 q 653 180 560 131 q 799 325 746 229 q 853 558 853 421 q 808 735 853 664 q 689 840 764 806 q 522 875 614 875 l 349 875 l 257 131 l 442 131 m 1307 131 l 1913 131 l 1896 0 l 1053 0 l 1744 875 l 1331 875 q 1253 898 1285 875 q 1226 960 1221 921 l 1239 1054 l 1364 1054 l 1361 1036 q 1369 1012 1360 1019 q 1401 1004 1378 1004 l 2003 1004 l 1307 131 m 1899 1338 l 1643 1085 l 1642 1085 l 1446 1338 l 1565 1338 l 1658 1208 l 1779 1338 l 1899 1338 z "},"Ð":{"ha":1046,"x_min":49,"x_max":990,"o":"m 524 1004 q 793 944 689 1004 q 944 785 897 883 q 990 564 990 686 q 988 510 990 546 q 902 238 978 354 q 706 61 826 122 q 444 0 586 0 l 107 0 l 158 422 l 49 422 l 65 553 l 175 553 l 231 1004 l 524 1004 m 853 558 q 808 735 853 664 q 689 840 764 806 q 522 875 614 875 l 349 875 l 308 553 l 425 553 l 408 422 l 293 422 l 257 131 l 442 131 q 653 180 560 131 q 799 325 746 229 q 853 558 853 421 z "},"Ď":{"ha":1046,"x_min":107,"x_max":990,"o":"m 231 1004 l 524 1004 q 793 944 689 1004 q 944 785 897 883 q 990 564 990 686 q 988 510 990 546 q 902 238 978 354 q 706 61 826 122 q 444 0 586 0 l 107 0 l 231 1004 m 442 131 q 653 180 560 131 q 799 325 746 229 q 853 558 853 421 q 808 735 853 664 q 689 840 764 806 q 522 875 614 875 l 349 875 l 257 131 l 442 131 m 826 1306 l 571 1053 l 569 1053 l 374 1306 l 493 1306 l 586 1176 l 707 1306 l 826 1306 z "},"Đ":{"ha":1046,"x_min":49,"x_max":990,"o":"m 524 1004 q 793 944 689 1004 q 944 785 897 883 q 990 564 990 686 q 988 510 990 546 q 902 238 978 354 q 706 61 826 122 q 444 0 586 0 l 107 0 l 158 422 l 49 422 l 65 553 l 175 553 l 231 1004 l 524 1004 m 853 558 q 808 735 853 664 q 689 840 764 806 q 522 875 614 875 l 349 875 l 308 553 l 425 553 l 408 422 l 293 422 l 257 131 l 442 131 q 653 180 560 131 q 799 325 746 229 q 853 558 853 421 z "},"ǅ":{"ha":1717,"x_min":107,"x_max":1719,"o":"m 231 1004 l 524 1004 q 793 944 689 1004 q 944 785 897 883 q 990 564 990 686 q 988 510 990 546 q 902 238 978 354 q 706 61 826 122 q 444 0 586 0 l 107 0 l 231 1004 m 442 131 q 653 180 560 131 q 799 325 746 229 q 853 558 853 421 q 808 735 853 664 q 689 840 764 806 q 522 875 614 875 l 349 875 l 257 131 l 442 131 m 1271 107 l 1593 107 l 1579 0 l 1049 0 l 1429 468 l 1238 468 q 1167 491 1193 468 q 1140 557 1140 514 q 1142 575 1140 569 l 1147 631 l 1246 631 l 1246 613 q 1251 583 1243 590 q 1286 575 1260 575 l 1654 575 l 1271 107 m 1719 928 l 1464 675 l 1463 675 l 1267 928 l 1386 928 l 1479 799 l 1600 928 l 1719 928 z "},"E":{"ha":907,"x_min":107,"x_max":883,"o":"m 883 1004 l 868 879 l 354 879 l 315 568 l 774 568 l 758 440 l 300 440 l 263 129 l 796 129 l 779 0 l 107 0 l 231 1004 l 883 1004 z "},"É":{"ha":907,"x_min":107,"x_max":883,"o":"m 883 1004 l 868 879 l 354 879 l 315 568 l 774 568 l 758 440 l 300 440 l 263 129 l 796 129 l 779 0 l 107 0 l 231 1004 l 883 1004 m 601 1063 l 518 1063 l 642 1249 l 785 1249 l 601 1063 z "},"Ĕ":{"ha":907,"x_min":107,"x_max":883,"o":"m 883 1004 l 868 879 l 354 879 l 315 568 l 774 568 l 758 440 l 300 440 l 263 129 l 796 129 l 779 0 l 107 0 l 231 1004 l 883 1004 m 560 1072 q 421 1133 476 1072 q 367 1325 365 1193 l 454 1325 q 485 1201 453 1242 q 564 1161 518 1161 q 694 1325 657 1161 l 783 1325 q 704 1136 763 1200 q 560 1072 646 1072 z "},"Ě":{"ha":907,"x_min":107,"x_max":883,"o":"m 883 1004 l 868 879 l 354 879 l 315 568 l 774 568 l 758 440 l 300 440 l 263 129 l 796 129 l 779 0 l 107 0 l 231 1004 l 883 1004 m 815 1332 l 560 1079 l 558 1079 l 363 1332 l 482 1332 l 575 1203 l 696 1332 l 815 1332 z "},"Ê":{"ha":907,"x_min":107,"x_max":883,"o":"m 883 1004 l 868 879 l 354 879 l 315 568 l 774 568 l 758 440 l 300 440 l 263 129 l 796 129 l 779 0 l 107 0 l 231 1004 l 883 1004 m 661 1099 l 568 1228 l 447 1099 l 329 1099 l 583 1351 l 781 1099 l 661 1099 z "},"Ế":{"ha":907,"x_min":107,"x_max":915,"o":"m 883 1004 l 868 879 l 354 879 l 315 568 l 774 568 l 758 440 l 300 440 l 263 129 l 796 129 l 779 0 l 107 0 l 231 1004 l 883 1004 m 618 1099 l 525 1228 l 404 1099 l 286 1099 l 540 1351 l 738 1099 l 618 1099 m 732 1249 l 649 1249 l 772 1435 l 915 1435 l 732 1249 z "},"Ệ":{"ha":907,"x_min":107,"x_max":883,"o":"m 883 1004 l 868 879 l 354 879 l 315 568 l 774 568 l 758 440 l 300 440 l 263 129 l 796 129 l 779 0 l 107 0 l 231 1004 l 883 1004 m 357 -142 q 380 -87 357 -110 q 438 -64 403 -64 q 490 -81 467 -64 q 513 -129 513 -99 q 489 -185 513 -162 q 431 -208 465 -208 q 378 -190 400 -207 q 357 -142 357 -172 m 661 1099 l 568 1228 l 447 1099 l 329 1099 l 583 1351 l 781 1099 l 661 1099 z "},"Ề":{"ha":907,"x_min":107,"x_max":883,"o":"m 883 1004 l 868 879 l 354 879 l 315 568 l 774 568 l 758 440 l 300 440 l 263 129 l 796 129 l 779 0 l 107 0 l 231 1004 l 883 1004 m 658 1068 l 565 1197 l 444 1068 l 326 1068 l 581 1321 l 778 1068 l 658 1068 m 432 1221 l 349 1221 l 196 1407 l 340 1407 l 432 1221 z "},"Ể":{"ha":907,"x_min":107,"x_max":883,"o":"m 883 1004 l 868 879 l 354 879 l 315 568 l 774 568 l 758 440 l 300 440 l 263 129 l 796 129 l 779 0 l 107 0 l 231 1004 l 883 1004 m 647 1068 l 554 1197 l 433 1068 l 315 1068 l 569 1321 l 767 1068 l 647 1068 m 731 1250 q 788 1295 771 1276 q 804 1343 804 1314 q 793 1374 804 1363 q 758 1386 782 1386 q 693 1349 724 1388 l 647 1381 q 776 1458 699 1458 q 855 1429 828 1458 q 879 1354 882 1400 q 756 1213 876 1275 l 731 1250 z "},"Ễ":{"ha":907,"x_min":107,"x_max":883,"o":"m 883 1004 l 868 879 l 354 879 l 315 568 l 774 568 l 758 440 l 300 440 l 263 129 l 796 129 l 779 0 l 107 0 l 231 1004 l 883 1004 m 508 1475 q 465 1447 483 1475 q 443 1374 447 1419 l 369 1381 q 417 1512 376 1460 q 521 1564 458 1564 q 581 1547 557 1564 q 633 1496 606 1529 q 672 1458 657 1469 q 707 1446 686 1446 q 767 1551 756 1446 l 839 1544 q 798 1410 838 1461 q 701 1360 758 1360 q 633 1378 660 1360 q 576 1431 607 1396 q 542 1465 556 1454 q 508 1475 528 1475 m 588 1315 l 785 1063 l 665 1063 l 572 1192 l 451 1063 l 333 1063 l 588 1315 z "},"Ȅ":{"ha":907,"x_min":107,"x_max":883,"o":"m 883 1004 l 868 879 l 354 879 l 315 568 l 774 568 l 758 440 l 300 440 l 263 129 l 796 129 l 779 0 l 107 0 l 231 1004 l 883 1004 m 521 1099 l 438 1099 l 285 1285 l 429 1285 l 521 1099 m 708 1099 l 625 1099 l 472 1285 l 617 1285 l 708 1099 z "},"Ë":{"ha":907,"x_min":107,"x_max":883,"o":"m 883 1004 l 868 879 l 354 879 l 315 568 l 774 568 l 758 440 l 300 440 l 263 129 l 796 129 l 779 0 l 107 0 l 231 1004 l 883 1004 m 363 1157 q 387 1213 363 1190 q 440 1235 411 1235 q 487 1215 467 1235 q 507 1164 507 1194 q 482 1108 507 1131 q 428 1088 457 1085 q 382 1108 401 1089 q 363 1157 363 1128 m 621 1157 q 645 1213 621 1190 q 699 1235 669 1235 q 745 1214 725 1235 q 765 1164 765 1193 q 740 1108 765 1131 q 686 1088 715 1085 q 640 1108 660 1089 q 621 1157 621 1128 z "},"Ė":{"ha":907,"x_min":107,"x_max":883,"o":"m 883 1004 l 868 879 l 354 879 l 315 568 l 774 568 l 758 440 l 300 440 l 263 129 l 796 129 l 779 0 l 107 0 l 231 1004 l 883 1004 m 490 1190 q 513 1245 490 1222 q 571 1268 536 1268 q 623 1251 600 1268 q 646 1203 646 1233 q 622 1147 646 1169 q 564 1124 599 1124 q 512 1142 533 1125 q 490 1190 490 1160 z "},"Ẹ":{"ha":907,"x_min":107,"x_max":883,"o":"m 883 1004 l 868 879 l 354 879 l 315 568 l 774 568 l 758 440 l 300 440 l 263 129 l 796 129 l 779 0 l 107 0 l 231 1004 l 883 1004 m 357 -142 q 380 -87 357 -110 q 438 -64 403 -64 q 490 -81 467 -64 q 513 -129 513 -99 q 489 -185 513 -162 q 431 -208 465 -208 q 378 -190 400 -207 q 357 -142 357 -172 z "},"È":{"ha":907,"x_min":107,"x_max":883,"o":"m 883 1004 l 868 879 l 354 879 l 315 568 l 774 568 l 758 440 l 300 440 l 263 129 l 796 129 l 779 0 l 107 0 l 231 1004 l 883 1004 m 594 1099 l 511 1099 l 358 1285 l 503 1285 l 594 1099 z "},"Ẻ":{"ha":907,"x_min":107,"x_max":883,"o":"m 883 1004 l 868 879 l 354 879 l 315 568 l 774 568 l 758 440 l 300 440 l 263 129 l 796 129 l 779 0 l 107 0 l 231 1004 l 883 1004 m 525 1101 q 582 1147 565 1128 q 599 1194 599 1165 q 588 1226 599 1214 q 553 1238 576 1238 q 488 1200 518 1239 l 442 1232 q 571 1310 493 1310 q 649 1281 622 1310 q 674 1206 676 1251 q 550 1064 671 1126 l 525 1101 z "},"Ȇ":{"ha":907,"x_min":107,"x_max":883,"o":"m 883 1004 l 868 879 l 354 879 l 315 568 l 774 568 l 758 440 l 300 440 l 263 129 l 796 129 l 779 0 l 107 0 l 231 1004 l 883 1004 m 569 1304 q 708 1244 653 1304 q 763 1051 764 1183 l 675 1051 q 644 1175 676 1135 q 565 1215 611 1215 q 435 1051 472 1215 l 346 1051 q 425 1240 367 1176 q 569 1304 483 1304 z "},"Ē":{"ha":907,"x_min":107,"x_max":883,"o":"m 883 1004 l 868 879 l 354 879 l 315 568 l 774 568 l 758 440 l 300 440 l 263 129 l 796 129 l 779 0 l 107 0 l 231 1004 l 883 1004 m 725 1171 l 717 1096 l 393 1096 l 401 1171 l 725 1171 z "},"Ę":{"ha":907,"x_min":107,"x_max":883,"o":"m 354 879 l 315 568 l 774 568 l 758 440 l 300 440 l 263 129 l 796 129 l 779 0 l 775 0 q 651 -65 692 -33 q 610 -135 610 -96 q 628 -183 610 -167 q 675 -200 647 -200 q 772 -137 725 -200 l 814 -206 q 742 -268 786 -244 q 656 -292 699 -292 q 544 -251 589 -292 q 500 -147 500 -210 q 523 -69 500 -110 q 589 0 546 -29 l 107 0 l 231 1004 l 883 1004 l 868 879 l 354 879 z "},"Ẽ":{"ha":907,"x_min":107,"x_max":883,"o":"m 883 1004 l 868 879 l 354 879 l 315 568 l 774 568 l 758 440 l 300 440 l 263 129 l 796 129 l 779 0 l 107 0 l 231 1004 l 883 1004 m 667 1050 q 588 1070 618 1050 q 524 1129 558 1090 q 485 1167 500 1156 q 447 1179 469 1179 q 399 1148 419 1179 q 374 1065 379 1117 l 292 1072 q 345 1220 299 1161 q 463 1279 392 1279 q 529 1259 501 1279 q 588 1203 557 1239 q 631 1159 614 1172 q 669 1146 647 1146 q 738 1264 724 1146 l 818 1257 q 797 1149 818 1196 q 741 1076 775 1101 q 667 1050 707 1050 z "},"F":{"ha":818,"x_min":107,"x_max":825,"o":"m 825 1004 l 810 876 l 353 876 l 314 556 l 714 556 l 697 426 l 297 426 l 246 0 l 107 0 l 231 1004 l 825 1004 z "},"G":{"ha":1054,"x_min":106,"x_max":975,"o":"m 911 64 q 772 7 865 31 q 597 -15 679 -17 q 372 37 486 -14 q 182 194 258 88 q 107 457 106 300 q 171 715 111 589 q 353 925 231 842 q 653 1008 475 1008 q 824 985 739 1008 q 975 917 908 961 l 915 794 q 792 852 863 831 q 656 872 721 874 q 422 808 514 872 q 289 649 331 744 q 247 457 247 554 q 306 268 247 344 q 453 155 365 192 q 629 118 542 118 q 783 147 721 118 l 808 358 l 608 358 l 625 486 l 963 486 l 911 64 z "},"Ğ":{"ha":1054,"x_min":107,"x_max":975,"o":"m 911 64 q 772 7 865 31 q 597 -15 679 -17 q 372 37 486 -14 q 182 194 258 88 q 107 457 106 300 q 171 715 111 589 q 353 925 231 842 q 653 1008 475 1008 q 824 985 739 1008 q 975 917 908 961 l 915 794 q 792 852 863 831 q 656 872 721 874 q 422 808 514 872 q 289 649 331 744 q 247 457 247 554 q 306 268 247 344 q 453 155 365 192 q 629 118 542 118 q 783 147 721 118 l 808 358 l 608 358 l 625 486 l 963 486 l 911 64 m 669 1082 q 531 1142 586 1082 q 476 1335 475 1203 l 564 1335 q 595 1211 563 1251 q 674 1171 628 1171 q 804 1335 767 1171 l 893 1335 q 814 1146 872 1210 q 669 1082 756 1082 z "},"Ǧ":{"ha":1054,"x_min":107,"x_max":975,"o":"m 911 64 q 772 7 865 31 q 597 -15 679 -17 q 372 37 486 -14 q 182 194 258 88 q 107 457 106 300 q 171 715 111 589 q 353 925 231 842 q 653 1008 475 1008 q 824 985 739 1008 q 975 917 908 961 l 915 794 q 792 852 863 831 q 656 872 721 874 q 422 808 514 872 q 289 649 331 744 q 247 457 247 554 q 306 268 247 344 q 453 155 365 192 q 629 118 542 118 q 783 147 721 118 l 808 358 l 608 358 l 625 486 l 963 486 l 911 64 m 925 1342 l 669 1089 l 668 1089 l 472 1342 l 592 1342 l 685 1213 l 806 1342 l 925 1342 z "},"Ĝ":{"ha":1054,"x_min":107,"x_max":975,"o":"m 911 64 q 772 7 865 31 q 597 -15 679 -17 q 372 37 486 -14 q 182 194 258 88 q 107 457 106 300 q 171 715 111 589 q 353 925 231 842 q 653 1008 475 1008 q 824 985 739 1008 q 975 917 908 961 l 915 794 q 792 852 863 831 q 656 872 721 874 q 422 808 514 872 q 289 649 331 744 q 247 457 247 554 q 306 268 247 344 q 453 155 365 192 q 629 118 542 118 q 783 147 721 118 l 808 358 l 608 358 l 625 486 l 963 486 l 911 64 m 771 1108 l 678 1238 l 557 1108 l 439 1108 l 693 1361 l 890 1108 l 771 1108 z "},"Ģ":{"ha":1054,"x_min":107,"x_max":975,"o":"m 911 64 q 772 7 865 31 q 597 -15 679 -17 q 372 37 486 -14 q 182 194 258 88 q 107 457 106 300 q 171 715 111 589 q 353 925 231 842 q 653 1008 475 1008 q 824 985 739 1008 q 975 917 908 961 l 915 794 q 792 852 863 831 q 656 872 721 874 q 422 808 514 872 q 289 649 331 744 q 247 457 247 554 q 306 268 247 344 q 453 155 365 192 q 629 118 542 118 q 783 147 721 118 l 808 358 l 608 358 l 625 486 l 963 486 l 911 64 m 415 -244 q 463 -178 446 -221 q 479 -86 479 -135 q 478 -61 479 -69 l 593 -62 q 594 -86 594 -69 q 564 -203 594 -144 q 482 -292 533 -261 l 415 -244 z "},"Ġ":{"ha":1054,"x_min":107,"x_max":975,"o":"m 911 64 q 772 7 865 31 q 597 -15 679 -17 q 372 37 486 -14 q 182 194 258 88 q 107 457 106 300 q 171 715 111 589 q 353 925 231 842 q 653 1008 475 1008 q 824 985 739 1008 q 975 917 908 961 l 915 794 q 792 852 863 831 q 656 872 721 874 q 422 808 514 872 q 289 649 331 744 q 247 457 247 554 q 306 268 247 344 q 453 155 365 192 q 629 118 542 118 q 783 147 721 118 l 808 358 l 608 358 l 625 486 l 963 486 l 911 64 m 600 1200 q 623 1255 600 1232 q 681 1278 646 1278 q 733 1260 710 1278 q 756 1213 756 1243 q 732 1156 756 1179 q 674 1133 708 1133 q 622 1152 643 1135 q 600 1200 600 1169 z "},"H":{"ha":1086,"x_min":107,"x_max":1025,"o":"m 901 0 l 763 0 l 818 440 l 300 440 l 246 0 l 107 0 l 231 1004 l 369 1004 l 315 571 l 833 571 l 886 1004 l 1025 1004 l 901 0 z "},"Ħ":{"ha":1304,"x_min":196,"x_max":1217,"o":"m 1208 717 l 1089 717 l 1000 0 l 861 0 l 917 440 l 399 440 l 344 0 l 206 0 l 294 717 l 196 717 l 204 790 l 303 790 l 329 1004 l 468 1004 l 442 790 l 958 790 l 985 1004 l 1124 1004 l 1097 790 l 1217 790 l 1208 717 m 950 717 l 432 717 l 414 571 l 932 571 l 950 717 z "},"Ĥ":{"ha":1086,"x_min":107,"x_max":1025,"o":"m 901 0 l 763 0 l 818 440 l 300 440 l 246 0 l 107 0 l 231 1004 l 369 1004 l 315 571 l 833 571 l 886 1004 l 1025 1004 l 901 0 m 736 1108 l 643 1238 l 522 1108 l 404 1108 l 658 1361 l 856 1108 l 736 1108 z "},"I":{"ha":431,"x_min":107,"x_max":369,"o":"m 369 1004 l 246 0 l 107 0 l 231 1004 l 369 1004 z "},"Ĳ":{"ha":942,"x_min":107,"x_max":881,"o":"m 369 1004 l 246 0 l 107 0 l 231 1004 l 369 1004 m 781 182 q 710 -24 767 63 q 566 -158 653 -111 q 375 -207 479 -204 l 390 -76 q 562 -5 493 -71 q 646 186 631 61 l 746 1004 l 881 1004 l 781 182 z "},"Í":{"ha":431,"x_min":107,"x_max":540,"o":"m 369 1004 l 246 0 l 107 0 l 231 1004 l 369 1004 m 357 1063 l 274 1063 l 397 1249 l 540 1249 l 357 1063 z "},"Ĭ":{"ha":431,"x_min":107,"x_max":539,"o":"m 369 1004 l 246 0 l 107 0 l 231 1004 l 369 1004 m 315 1072 q 176 1133 232 1072 q 122 1325 121 1193 l 210 1325 q 241 1201 208 1242 q 319 1161 274 1161 q 450 1325 413 1161 l 539 1325 q 460 1136 518 1200 q 315 1072 401 1072 z "},"Î":{"ha":431,"x_min":85,"x_max":536,"o":"m 369 1004 l 246 0 l 107 0 l 231 1004 l 369 1004 m 417 1099 l 324 1228 l 203 1099 l 85 1099 l 339 1351 l 536 1099 l 417 1099 z "},"Ȉ":{"ha":431,"x_min":40,"x_max":464,"o":"m 369 1004 l 246 0 l 107 0 l 231 1004 l 369 1004 m 276 1099 l 193 1099 l 40 1285 l 185 1285 l 276 1099 m 464 1099 l 381 1099 l 228 1285 l 372 1285 l 464 1099 z "},"Ï":{"ha":431,"x_min":107,"x_max":519,"o":"m 369 1004 l 246 0 l 107 0 l 231 1004 l 369 1004 m 117 1157 q 141 1213 117 1190 q 194 1235 165 1235 q 241 1215 221 1235 q 261 1164 261 1194 q 236 1108 261 1131 q 182 1088 211 1085 q 136 1108 156 1089 q 117 1157 117 1128 m 375 1157 q 399 1213 375 1190 q 453 1235 424 1235 q 499 1214 479 1235 q 519 1164 519 1193 q 494 1108 519 1131 q 440 1088 469 1085 q 394 1108 414 1089 q 375 1157 375 1128 z "},"İ":{"ha":431,"x_min":107,"x_max":401,"o":"m 369 1004 l 246 0 l 107 0 l 231 1004 l 369 1004 m 246 1190 q 269 1245 246 1222 q 326 1268 292 1268 q 378 1251 356 1268 q 401 1203 401 1233 q 378 1147 401 1169 q 319 1124 354 1124 q 267 1142 289 1125 q 246 1190 246 1160 z "},"Ị":{"ha":431,"x_min":65,"x_max":369,"o":"m 369 1004 l 246 0 l 107 0 l 231 1004 l 369 1004 m 65 -142 q 88 -87 65 -110 q 146 -64 111 -64 q 198 -81 175 -64 q 221 -129 221 -99 q 197 -185 221 -162 q 139 -208 174 -208 q 87 -190 108 -207 q 65 -142 65 -172 z "},"Ì":{"ha":431,"x_min":107,"x_max":369,"o":"m 369 1004 l 246 0 l 107 0 l 231 1004 l 369 1004 m 350 1099 l 267 1099 l 114 1285 l 258 1285 l 350 1099 z "},"Ỉ":{"ha":431,"x_min":107,"x_max":429,"o":"m 369 1004 l 246 0 l 107 0 l 231 1004 l 369 1004 m 281 1101 q 338 1147 321 1128 q 354 1194 354 1165 q 343 1226 354 1214 q 308 1238 332 1238 q 243 1200 274 1239 l 197 1232 q 326 1310 249 1310 q 405 1281 378 1310 q 429 1206 432 1251 q 306 1064 426 1126 l 281 1101 z "},"Ȋ":{"ha":431,"x_min":101,"x_max":518,"o":"m 369 1004 l 246 0 l 107 0 l 231 1004 l 369 1004 m 325 1304 q 464 1244 408 1304 q 518 1051 519 1183 l 431 1051 q 399 1175 432 1135 q 321 1215 367 1215 q 190 1051 228 1215 l 101 1051 q 181 1240 122 1176 q 325 1304 239 1304 z "},"Ī":{"ha":431,"x_min":107,"x_max":479,"o":"m 369 1004 l 246 0 l 107 0 l 231 1004 l 369 1004 m 479 1171 l 471 1096 l 147 1096 l 156 1171 l 479 1171 z "},"Į":{"ha":419,"x_min":-25,"x_max":369,"o":"m 150 -206 q 247 -144 201 -206 l 289 -212 q 213 -276 260 -251 q 125 -299 167 -300 q 17 -255 60 -294 q -25 -154 -25 -215 q 10 -53 -25 -106 q 110 26 46 -1 l 231 1004 l 369 1004 l 246 0 q 125 -67 165 -35 q 85 -140 85 -99 q 103 -189 85 -172 q 150 -206 122 -206 z "},"Ĩ":{"ha":431,"x_min":47,"x_max":574,"o":"m 369 1004 l 246 0 l 107 0 l 231 1004 l 369 1004 m 422 1050 q 344 1070 374 1050 q 279 1129 314 1090 q 240 1167 256 1156 q 203 1179 225 1179 q 155 1148 175 1179 q 129 1065 135 1117 l 47 1072 q 101 1220 54 1161 q 218 1279 147 1279 q 285 1259 257 1279 q 343 1203 313 1239 q 386 1159 369 1172 q 425 1146 403 1146 q 493 1264 479 1146 l 574 1257 q 552 1149 574 1196 q 497 1076 531 1101 q 422 1050 463 1050 z "},"J":{"ha":511,"x_min":-56,"x_max":450,"o":"m 350 182 q 279 -24 336 63 q 135 -158 222 -111 q -56 -207 49 -204 l -40 -76 q 131 -5 63 -71 q 215 186 200 61 l 315 1004 l 450 1004 l 350 182 z "},"Ĵ":{"ha":511,"x_min":-56,"x_max":615,"o":"m 350 182 q 279 -24 336 63 q 135 -158 222 -111 q -56 -207 49 -204 l -40 -76 q 131 -5 63 -71 q 215 186 200 61 l 315 1004 l 450 1004 l 350 182 m 496 1104 l 403 1233 l 282 1104 l 164 1104 l 418 1357 l 615 1104 l 496 1104 z "},"K":{"ha":942,"x_min":107,"x_max":964,"o":"m 306 550 l 326 576 l 790 1004 l 964 1004 l 497 574 l 865 0 l 694 0 l 388 488 l 293 406 l 243 0 l 107 0 l 231 1004 l 367 1004 l 317 600 l 306 550 z "},"Ķ":{"ha":942,"x_min":107,"x_max":964,"o":"m 306 550 l 326 576 l 790 1004 l 964 1004 l 497 574 l 865 0 l 694 0 l 388 488 l 293 406 l 243 0 l 107 0 l 231 1004 l 367 1004 l 317 600 l 306 550 m 311 -244 q 358 -178 342 -221 q 375 -86 375 -135 q 374 -61 375 -69 l 489 -62 q 490 -86 490 -69 q 460 -203 490 -144 q 378 -292 429 -261 l 311 -244 z "},"L":{"ha":844,"x_min":107,"x_max":768,"o":"m 364 1004 l 257 131 l 768 131 l 753 0 l 107 0 l 231 1004 l 364 1004 z "},"Ǉ":{"ha":1356,"x_min":107,"x_max":1294,"o":"m 364 1004 l 257 131 l 768 131 l 753 0 l 107 0 l 231 1004 l 364 1004 m 1194 182 q 1124 -24 1181 63 q 980 -158 1067 -111 q 789 -207 893 -204 l 804 -76 q 976 -5 907 -71 q 1060 186 1044 61 l 1160 1004 l 1294 1004 l 1194 182 z "},"Ĺ":{"ha":844,"x_min":107,"x_max":768,"o":"m 364 1004 l 257 131 l 768 131 l 753 0 l 107 0 l 231 1004 l 364 1004 m 353 1086 l 269 1086 l 393 1272 l 536 1272 l 353 1086 z "},"Ľ":{"ha":844,"x_min":107,"x_max":883,"o":"m 364 1004 l 257 131 l 768 131 l 753 0 l 107 0 l 231 1004 l 364 1004 m 704 819 q 751 886 735 843 q 768 978 768 929 q 767 1003 768 994 l 882 1001 q 883 978 883 994 q 853 861 883 919 q 771 772 822 803 l 704 819 z "},"Ļ":{"ha":844,"x_min":107,"x_max":768,"o":"m 364 1004 l 257 131 l 768 131 l 753 0 l 107 0 l 231 1004 l 364 1004 m 292 -244 q 339 -178 322 -221 q 356 -86 356 -135 q 354 -61 356 -69 l 469 -62 q 471 -86 471 -69 q 440 -203 471 -144 q 358 -292 410 -261 l 292 -244 z "},"Ŀ":{"ha":833,"x_min":107,"x_max":894,"o":"m 364 1004 l 257 131 l 768 131 l 753 0 l 107 0 l 231 1004 l 364 1004 m 749 485 q 774 544 749 519 q 832 568 800 568 q 876 548 857 568 q 894 500 894 528 q 869 443 894 467 q 814 419 843 419 q 768 438 788 419 q 749 485 749 457 z "},"ǈ":{"ha":1215,"x_min":107,"x_max":1169,"o":"m 364 1004 l 257 131 l 768 131 l 753 0 l 107 0 l 231 1004 l 364 1004 m 811 -204 q 936 -7 918 -137 l 1008 575 l 1139 575 l 1068 0 q 876 -285 1042 -208 l 811 -204 m 1014 765 q 1037 820 1014 797 q 1094 843 1060 843 q 1147 826 1124 843 q 1169 778 1169 808 q 1146 722 1169 744 q 1088 699 1122 699 q 1035 717 1057 700 q 1014 765 1014 735 z "},"Ł":{"ha":843,"x_min":67,"x_max":768,"o":"m 768 131 l 753 0 l 107 0 l 151 367 l 67 340 l 82 454 l 167 481 l 231 1004 l 364 1004 l 306 522 l 636 624 l 622 510 l 292 408 l 257 131 l 768 131 z "},"M":{"ha":1290,"x_min":107,"x_max":1233,"o":"m 1233 1036 l 1106 0 l 971 0 l 1051 650 l 617 126 l 614 126 l 315 631 l 238 0 l 107 0 l 235 1036 l 236 1036 l 643 336 l 1231 1036 l 1233 1036 z "},"N":{"ha":1165,"x_min":107,"x_max":1104,"o":"m 1104 1004 l 976 -33 l 972 -33 l 328 719 l 242 0 l 107 0 l 233 1035 l 239 1035 l 883 274 l 969 1004 l 1104 1004 z "},"Ǌ":{"ha":1676,"x_min":107,"x_max":1615,"o":"m 1104 1004 l 976 -33 l 972 -33 l 328 719 l 242 0 l 107 0 l 233 1035 l 239 1035 l 883 274 l 969 1004 l 1104 1004 m 1515 182 q 1444 -24 1501 63 q 1301 -158 1388 -111 q 1110 -207 1214 -204 l 1125 -76 q 1297 -5 1228 -71 q 1381 186 1365 61 l 1481 1004 l 1615 1004 l 1515 182 z "},"Ń":{"ha":1165,"x_min":107,"x_max":1104,"o":"m 1104 1004 l 976 -33 l 972 -33 l 328 719 l 242 0 l 107 0 l 233 1035 l 239 1035 l 883 274 l 969 1004 l 1104 1004 m 715 1036 l 632 1036 l 756 1222 l 899 1222 l 715 1036 z "},"Ň":{"ha":1165,"x_min":107,"x_max":1104,"o":"m 1104 1004 l 976 -33 l 972 -33 l 328 719 l 242 0 l 107 0 l 233 1035 l 239 1035 l 883 274 l 969 1004 l 1104 1004 m 929 1306 l 674 1053 l 672 1053 l 476 1306 l 596 1306 l 689 1176 l 810 1306 l 929 1306 z "},"Ņ":{"ha":1165,"x_min":107,"x_max":1104,"o":"m 1104 1004 l 976 -33 l 972 -33 l 328 719 l 242 0 l 107 0 l 233 1035 l 239 1035 l 883 274 l 969 1004 l 1104 1004 m 432 -244 q 479 -178 463 -221 q 496 -86 496 -135 q 494 -61 496 -69 l 610 -62 q 611 -86 611 -69 q 581 -203 611 -144 q 499 -292 550 -261 l 432 -244 z "},"Ŋ":{"ha":1119,"x_min":88,"x_max":1085,"o":"m 1085 1004 l 961 -4 q 790 -278 938 -197 l 725 -197 q 832 1 819 -129 l 843 97 l 310 722 l 224 0 l 88 0 l 215 1035 l 221 1035 l 863 274 l 949 1004 l 1085 1004 z "},"Ɲ":{"ha":1110,"x_min":-56,"x_max":1049,"o":"m 1049 1004 l 925 -3 l 918 -33 l 274 717 l 188 0 l 186 0 l 186 -4 q 18 -278 163 -192 l -56 -197 q 53 1 36 -126 l 74 175 l 179 1035 l 185 1035 l 828 278 l 915 1004 l 1049 1004 z "},"ǋ":{"ha":1536,"x_min":107,"x_max":1490,"o":"m 1104 1004 l 976 -33 l 972 -33 l 328 719 l 242 0 l 107 0 l 233 1035 l 239 1035 l 883 274 l 969 1004 l 1104 1004 m 1132 -204 q 1257 -7 1239 -137 l 1329 575 l 1460 575 l 1389 0 q 1197 -285 1363 -208 l 1132 -204 m 1335 765 q 1358 820 1335 797 q 1415 843 1381 843 q 1467 826 1444 843 q 1490 778 1490 808 q 1467 722 1490 744 q 1408 699 1443 699 q 1356 717 1378 700 q 1335 765 1335 735 z "},"Ñ":{"ha":1165,"x_min":107,"x_max":1104,"o":"m 1104 1004 l 976 -33 l 972 -33 l 328 719 l 242 0 l 107 0 l 233 1035 l 239 1035 l 883 274 l 969 1004 l 1104 1004 m 781 1024 q 702 1044 732 1024 q 638 1103 672 1064 q 599 1141 614 1129 q 561 1153 583 1153 q 513 1122 533 1153 q 488 1039 493 1090 l 406 1046 q 459 1194 413 1135 q 576 1253 506 1253 q 643 1233 615 1253 q 701 1176 671 1213 q 744 1133 728 1146 q 783 1119 761 1119 q 851 1238 838 1119 l 932 1231 q 910 1122 932 1169 q 855 1049 889 1075 q 781 1024 821 1024 z "},"O":{"ha":1193,"x_min":108,"x_max":1136,"o":"m 590 -10 q 353 45 464 -10 q 176 208 243 100 q 108 467 108 317 q 172 722 108 596 q 359 931 235 849 q 654 1014 483 1014 q 891 959 781 1014 q 1069 796 1001 904 q 1136 538 1136 688 q 1073 282 1136 408 q 885 73 1010 156 q 590 -10 761 -10 m 593 121 q 815 183 724 121 q 952 339 907 244 q 997 531 997 433 q 952 706 997 625 q 827 836 907 788 q 649 885 747 885 q 427 823 518 885 q 292 666 336 761 q 247 474 247 571 q 292 298 247 379 q 415 169 336 217 q 593 121 494 121 z "},"Ó":{"ha":1193,"x_min":108,"x_max":1136,"o":"m 590 -10 q 353 45 464 -10 q 176 208 243 100 q 108 467 108 317 q 172 722 108 596 q 359 931 235 849 q 654 1014 483 1014 q 891 959 781 1014 q 1069 796 1001 904 q 1136 538 1136 688 q 1073 282 1136 408 q 885 73 1010 156 q 590 -10 761 -10 m 593 121 q 815 183 724 121 q 952 339 907 244 q 997 531 997 433 q 952 706 997 625 q 827 836 907 788 q 649 885 747 885 q 427 823 518 885 q 292 666 336 761 q 247 474 247 571 q 292 298 247 379 q 415 169 336 217 q 593 121 494 121 m 721 1063 l 638 1063 l 761 1249 l 904 1249 l 721 1063 z "},"Ŏ":{"ha":1193,"x_min":108,"x_max":1136,"o":"m 590 -10 q 353 45 464 -10 q 176 208 243 100 q 108 467 108 317 q 172 722 108 596 q 359 931 235 849 q 654 1014 483 1014 q 891 959 781 1014 q 1069 796 1001 904 q 1136 538 1136 688 q 1073 282 1136 408 q 885 73 1010 156 q 590 -10 761 -10 m 593 121 q 815 183 724 121 q 952 339 907 244 q 997 531 997 433 q 952 706 997 625 q 827 836 907 788 q 649 885 747 885 q 427 823 518 885 q 292 666 336 761 q 247 474 247 571 q 292 298 247 379 q 415 169 336 217 q 593 121 494 121 m 679 1072 q 540 1133 596 1072 q 486 1325 485 1193 l 574 1325 q 605 1201 572 1242 q 683 1161 638 1161 q 814 1325 776 1161 l 903 1325 q 824 1136 882 1200 q 679 1072 765 1072 z "},"Ô":{"ha":1193,"x_min":108,"x_max":1136,"o":"m 590 -10 q 353 45 464 -10 q 176 208 243 100 q 108 467 108 317 q 172 722 108 596 q 359 931 235 849 q 654 1014 483 1014 q 891 959 781 1014 q 1069 796 1001 904 q 1136 538 1136 688 q 1073 282 1136 408 q 885 73 1010 156 q 590 -10 761 -10 m 593 121 q 815 183 724 121 q 952 339 907 244 q 997 531 997 433 q 952 706 997 625 q 827 836 907 788 q 649 885 747 885 q 427 823 518 885 q 292 666 336 761 q 247 474 247 571 q 292 298 247 379 q 415 169 336 217 q 593 121 494 121 m 781 1099 l 688 1228 l 567 1099 l 449 1099 l 703 1351 l 900 1099 l 781 1099 z "},"Ố":{"ha":1193,"x_min":108,"x_max":1136,"o":"m 590 -10 q 353 45 464 -10 q 176 208 243 100 q 108 467 108 317 q 172 722 108 596 q 359 931 235 849 q 654 1014 483 1014 q 891 959 781 1014 q 1069 796 1001 904 q 1136 538 1136 688 q 1073 282 1136 408 q 885 73 1010 156 q 590 -10 761 -10 m 593 121 q 815 183 724 121 q 952 339 907 244 q 997 531 997 433 q 952 706 997 625 q 827 836 907 788 q 649 885 747 885 q 427 823 518 885 q 292 666 336 761 q 247 474 247 571 q 292 298 247 379 q 415 169 336 217 q 593 121 494 121 m 738 1099 l 644 1228 l 524 1099 l 406 1099 l 660 1351 l 857 1099 l 738 1099 m 851 1249 l 768 1249 l 892 1435 l 1035 1435 l 851 1249 z "},"Ộ":{"ha":1193,"x_min":108,"x_max":1136,"o":"m 590 -10 q 353 45 464 -10 q 176 208 243 100 q 108 467 108 317 q 172 722 108 596 q 359 931 235 849 q 654 1014 483 1014 q 891 959 781 1014 q 1069 796 1001 904 q 1136 538 1136 688 q 1073 282 1136 408 q 885 73 1010 156 q 590 -10 761 -10 m 593 121 q 815 183 724 121 q 952 339 907 244 q 997 531 997 433 q 952 706 997 625 q 827 836 907 788 q 649 885 747 885 q 427 823 518 885 q 292 666 336 761 q 247 474 247 571 q 292 298 247 379 q 415 169 336 217 q 593 121 494 121 m 510 -142 q 533 -87 510 -110 q 590 -64 556 -64 q 642 -81 619 -64 q 665 -129 665 -99 q 642 -185 665 -162 q 583 -208 618 -208 q 531 -190 553 -207 q 510 -142 510 -172 m 781 1099 l 688 1228 l 567 1099 l 449 1099 l 703 1351 l 900 1099 l 781 1099 z "},"Ồ":{"ha":1193,"x_min":108,"x_max":1136,"o":"m 590 -10 q 353 45 464 -10 q 176 208 243 100 q 108 467 108 317 q 172 722 108 596 q 359 931 235 849 q 654 1014 483 1014 q 891 959 781 1014 q 1069 796 1001 904 q 1136 538 1136 688 q 1073 282 1136 408 q 885 73 1010 156 q 590 -10 761 -10 m 593 121 q 815 183 724 121 q 952 339 907 244 q 997 531 997 433 q 952 706 997 625 q 827 836 907 788 q 649 885 747 885 q 427 823 518 885 q 292 666 336 761 q 247 474 247 571 q 292 298 247 379 q 415 169 336 217 q 593 121 494 121 m 778 1068 l 685 1197 l 564 1068 l 446 1068 l 700 1321 l 897 1068 l 778 1068 m 551 1221 l 468 1221 l 315 1407 l 460 1407 l 551 1221 z "},"Ổ":{"ha":1193,"x_min":108,"x_max":1136,"o":"m 590 -10 q 353 45 464 -10 q 176 208 243 100 q 108 467 108 317 q 172 722 108 596 q 359 931 235 849 q 654 1014 483 1014 q 891 959 781 1014 q 1069 796 1001 904 q 1136 538 1136 688 q 1073 282 1136 408 q 885 73 1010 156 q 590 -10 761 -10 m 593 121 q 815 183 724 121 q 952 339 907 244 q 997 531 997 433 q 952 706 997 625 q 827 836 907 788 q 649 885 747 885 q 427 823 518 885 q 292 666 336 761 q 247 474 247 571 q 292 298 247 379 q 415 169 336 217 q 593 121 494 121 m 767 1068 l 674 1197 l 553 1068 l 435 1068 l 689 1321 l 886 1068 l 767 1068 m 850 1250 q 907 1295 890 1276 q 924 1343 924 1314 q 913 1374 924 1363 q 878 1386 901 1386 q 813 1349 843 1388 l 767 1381 q 896 1458 818 1458 q 974 1429 947 1458 q 999 1354 1001 1400 q 875 1213 996 1275 l 850 1250 z "},"Ỗ":{"ha":1193,"x_min":108,"x_max":1136,"o":"m 590 -10 q 353 45 464 -10 q 176 208 243 100 q 108 467 108 317 q 172 722 108 596 q 359 931 235 849 q 654 1014 483 1014 q 891 959 781 1014 q 1069 796 1001 904 q 1136 538 1136 688 q 1073 282 1136 408 q 885 73 1010 156 q 590 -10 761 -10 m 593 121 q 815 183 724 121 q 952 339 907 244 q 997 531 997 433 q 952 706 997 625 q 827 836 907 788 q 649 885 747 885 q 427 823 518 885 q 292 666 336 761 q 247 474 247 571 q 292 298 247 379 q 415 169 336 217 q 593 121 494 121 m 628 1475 q 585 1447 603 1475 q 563 1374 567 1419 l 489 1381 q 537 1512 496 1460 q 640 1564 578 1564 q 701 1547 676 1564 q 753 1496 725 1529 q 791 1458 776 1469 q 826 1446 806 1446 q 886 1551 875 1446 l 958 1544 q 917 1410 957 1461 q 821 1360 878 1360 q 753 1378 779 1360 q 696 1431 726 1396 q 661 1465 675 1454 q 628 1475 647 1475 m 707 1315 l 904 1063 l 785 1063 l 692 1192 l 571 1063 l 453 1063 l 707 1315 z "},"Ȍ":{"ha":1193,"x_min":108,"x_max":1136,"o":"m 590 -10 q 353 45 464 -10 q 176 208 243 100 q 108 467 108 317 q 172 722 108 596 q 359 931 235 849 q 654 1014 483 1014 q 891 959 781 1014 q 1069 796 1001 904 q 1136 538 1136 688 q 1073 282 1136 408 q 885 73 1010 156 q 590 -10 761 -10 m 593 121 q 815 183 724 121 q 952 339 907 244 q 997 531 997 433 q 952 706 997 625 q 827 836 907 788 q 649 885 747 885 q 427 823 518 885 q 292 666 336 761 q 247 474 247 571 q 292 298 247 379 q 415 169 336 217 q 593 121 494 121 m 640 1099 l 557 1099 l 404 1285 l 549 1285 l 640 1099 m 828 1099 l 744 1099 l 592 1285 l 736 1285 l 828 1099 z "},"Ö":{"ha":1193,"x_min":108,"x_max":1136,"o":"m 590 -10 q 353 45 464 -10 q 176 208 243 100 q 108 467 108 317 q 172 722 108 596 q 359 931 235 849 q 654 1014 483 1014 q 891 959 781 1014 q 1069 796 1001 904 q 1136 538 1136 688 q 1073 282 1136 408 q 885 73 1010 156 q 590 -10 761 -10 m 593 121 q 815 183 724 121 q 952 339 907 244 q 997 531 997 433 q 952 706 997 625 q 827 836 907 788 q 649 885 747 885 q 427 823 518 885 q 292 666 336 761 q 247 474 247 571 q 292 298 247 379 q 415 169 336 217 q 593 121 494 121 m 482 1157 q 506 1213 482 1190 q 560 1235 531 1235 q 606 1215 586 1235 q 626 1164 626 1194 q 601 1108 626 1131 q 547 1088 576 1085 q 501 1108 521 1089 q 482 1157 482 1128 m 740 1157 q 765 1213 740 1190 q 818 1235 789 1235 q 865 1214 844 1235 q 885 1164 885 1193 q 860 1108 885 1131 q 806 1088 835 1085 q 760 1108 779 1089 q 740 1157 740 1128 z "},"Ȫ":{"ha":1193,"x_min":108,"x_max":1136,"o":"m 590 -10 q 353 45 464 -10 q 176 208 243 100 q 108 467 108 317 q 172 722 108 596 q 359 931 235 849 q 654 1014 483 1014 q 891 959 781 1014 q 1069 796 1001 904 q 1136 538 1136 688 q 1073 282 1136 408 q 885 73 1010 156 q 590 -10 761 -10 m 593 121 q 815 183 724 121 q 952 339 907 244 q 997 531 997 433 q 952 706 997 625 q 827 836 907 788 q 649 885 747 885 q 427 823 518 885 q 292 666 336 761 q 247 474 247 571 q 292 298 247 379 q 415 169 336 217 q 593 121 494 121 m 482 1157 q 506 1213 482 1190 q 560 1235 531 1235 q 606 1215 586 1235 q 626 1164 626 1194 q 601 1108 626 1131 q 547 1088 576 1085 q 501 1108 521 1089 q 482 1157 482 1128 m 740 1157 q 765 1213 740 1190 q 818 1235 789 1235 q 865 1214 844 1235 q 885 1164 885 1193 q 860 1108 885 1131 q 806 1088 835 1085 q 760 1108 779 1089 q 740 1157 740 1128 m 872 1401 l 864 1326 l 540 1326 l 549 1401 l 872 1401 z "},"Ȱ":{"ha":1193,"x_min":108,"x_max":1136,"o":"m 590 -10 q 353 45 464 -10 q 176 208 243 100 q 108 467 108 317 q 172 722 108 596 q 359 931 235 849 q 654 1014 483 1014 q 891 959 781 1014 q 1069 796 1001 904 q 1136 538 1136 688 q 1073 282 1136 408 q 885 73 1010 156 q 590 -10 761 -10 m 593 121 q 815 183 724 121 q 952 339 907 244 q 997 531 997 433 q 952 706 997 625 q 827 836 907 788 q 649 885 747 885 q 427 823 518 885 q 292 666 336 761 q 247 474 247 571 q 292 298 247 379 q 415 169 336 217 q 593 121 494 121 m 610 1190 q 633 1245 610 1222 q 690 1268 656 1268 q 742 1251 719 1268 q 765 1203 765 1233 q 742 1147 765 1169 q 683 1124 718 1124 q 631 1142 653 1125 q 610 1190 610 1160 m 879 1447 l 871 1372 l 547 1372 l 556 1447 l 879 1447 z "},"Ọ":{"ha":1193,"x_min":108,"x_max":1136,"o":"m 590 -10 q 353 45 464 -10 q 176 208 243 100 q 108 467 108 317 q 172 722 108 596 q 359 931 235 849 q 654 1014 483 1014 q 891 959 781 1014 q 1069 796 1001 904 q 1136 538 1136 688 q 1073 282 1136 408 q 885 73 1010 156 q 590 -10 761 -10 m 593 121 q 815 183 724 121 q 952 339 907 244 q 997 531 997 433 q 952 706 997 625 q 827 836 907 788 q 649 885 747 885 q 427 823 518 885 q 292 666 336 761 q 247 474 247 571 q 292 298 247 379 q 415 169 336 217 q 593 121 494 121 m 510 -142 q 533 -87 510 -110 q 590 -64 556 -64 q 642 -81 619 -64 q 665 -129 665 -99 q 642 -185 665 -162 q 583 -208 618 -208 q 531 -190 553 -207 q 510 -142 510 -172 z "},"Ò":{"ha":1193,"x_min":108,"x_max":1136,"o":"m 590 -10 q 353 45 464 -10 q 176 208 243 100 q 108 467 108 317 q 172 722 108 596 q 359 931 235 849 q 654 1014 483 1014 q 891 959 781 1014 q 1069 796 1001 904 q 1136 538 1136 688 q 1073 282 1136 408 q 885 73 1010 156 q 590 -10 761 -10 m 593 121 q 815 183 724 121 q 952 339 907 244 q 997 531 997 433 q 952 706 997 625 q 827 836 907 788 q 649 885 747 885 q 427 823 518 885 q 292 666 336 761 q 247 474 247 571 q 292 298 247 379 q 415 169 336 217 q 593 121 494 121 m 714 1099 l 631 1099 l 478 1285 l 622 1285 l 714 1099 z "},"Ỏ":{"ha":1193,"x_min":108,"x_max":1136,"o":"m 590 -10 q 353 45 464 -10 q 176 208 243 100 q 108 467 108 317 q 172 722 108 596 q 359 931 235 849 q 654 1014 483 1014 q 891 959 781 1014 q 1069 796 1001 904 q 1136 538 1136 688 q 1073 282 1136 408 q 885 73 1010 156 q 590 -10 761 -10 m 593 121 q 815 183 724 121 q 952 339 907 244 q 997 531 997 433 q 952 706 997 625 q 827 836 907 788 q 649 885 747 885 q 427 823 518 885 q 292 666 336 761 q 247 474 247 571 q 292 298 247 379 q 415 169 336 217 q 593 121 494 121 m 644 1101 q 701 1147 685 1128 q 718 1194 718 1165 q 707 1226 718 1214 q 672 1238 696 1238 q 607 1200 638 1239 l 561 1232 q 690 1310 613 1310 q 769 1281 742 1310 q 793 1206 796 1251 q 669 1064 790 1126 l 644 1101 z "},"Ơ":{"ha":1193,"x_min":108,"x_max":1240,"o":"m 1240 976 q 1178 840 1219 886 q 1078 781 1138 794 q 1136 538 1136 672 q 1073 282 1136 408 q 885 73 1010 156 q 590 -10 761 -10 q 353 45 464 -10 q 176 208 243 100 q 108 467 108 317 q 172 722 108 596 q 359 931 235 849 q 654 1014 483 1014 q 860 974 763 1014 q 1025 856 958 933 q 1100 888 1071 858 q 1143 976 1129 917 l 1240 976 m 593 121 q 815 183 724 121 q 952 339 907 244 q 997 531 997 433 q 952 706 997 625 q 827 836 907 788 q 649 885 747 885 q 427 823 518 885 q 292 666 336 761 q 247 474 247 571 q 292 298 247 379 q 415 169 336 217 q 593 121 494 121 z "},"Ớ":{"ha":1193,"x_min":108,"x_max":1240,"o":"m 1240 976 q 1178 840 1219 886 q 1078 781 1138 794 q 1136 538 1136 672 q 1073 282 1136 408 q 885 73 1010 156 q 590 -10 761 -10 q 353 45 464 -10 q 176 208 243 100 q 108 467 108 317 q 172 722 108 596 q 359 931 235 849 q 654 1014 483 1014 q 860 974 763 1014 q 1025 856 958 933 q 1100 888 1071 858 q 1143 976 1129 917 l 1240 976 m 593 121 q 815 183 724 121 q 952 339 907 244 q 997 531 997 433 q 952 706 997 625 q 827 836 907 788 q 649 885 747 885 q 427 823 518 885 q 292 666 336 761 q 247 474 247 571 q 292 298 247 379 q 415 169 336 217 q 593 121 494 121 m 721 1063 l 638 1063 l 761 1249 l 904 1249 l 721 1063 z "},"Ợ":{"ha":1193,"x_min":108,"x_max":1240,"o":"m 1240 976 q 1178 840 1219 886 q 1078 781 1138 794 q 1136 538 1136 672 q 1073 282 1136 408 q 885 73 1010 156 q 590 -10 761 -10 q 353 45 464 -10 q 176 208 243 100 q 108 467 108 317 q 172 722 108 596 q 359 931 235 849 q 654 1014 483 1014 q 860 974 763 1014 q 1025 856 958 933 q 1100 888 1071 858 q 1143 976 1129 917 l 1240 976 m 593 121 q 815 183 724 121 q 952 339 907 244 q 997 531 997 433 q 952 706 997 625 q 827 836 907 788 q 649 885 747 885 q 427 823 518 885 q 292 666 336 761 q 247 474 247 571 q 292 298 247 379 q 415 169 336 217 q 593 121 494 121 m 510 -142 q 533 -87 510 -110 q 590 -64 556 -64 q 642 -81 619 -64 q 665 -129 665 -99 q 642 -185 665 -162 q 583 -208 618 -208 q 531 -190 553 -207 q 510 -142 510 -172 z "},"Ờ":{"ha":1193,"x_min":108,"x_max":1240,"o":"m 1240 976 q 1178 840 1219 886 q 1078 781 1138 794 q 1136 538 1136 672 q 1073 282 1136 408 q 885 73 1010 156 q 590 -10 761 -10 q 353 45 464 -10 q 176 208 243 100 q 108 467 108 317 q 172 722 108 596 q 359 931 235 849 q 654 1014 483 1014 q 860 974 763 1014 q 1025 856 958 933 q 1100 888 1071 858 q 1143 976 1129 917 l 1240 976 m 593 121 q 815 183 724 121 q 952 339 907 244 q 997 531 997 433 q 952 706 997 625 q 827 836 907 788 q 649 885 747 885 q 427 823 518 885 q 292 666 336 761 q 247 474 247 571 q 292 298 247 379 q 415 169 336 217 q 593 121 494 121 m 714 1099 l 631 1099 l 478 1285 l 622 1285 l 714 1099 z "},"Ở":{"ha":1193,"x_min":108,"x_max":1240,"o":"m 1240 976 q 1178 840 1219 886 q 1078 781 1138 794 q 1136 538 1136 672 q 1073 282 1136 408 q 885 73 1010 156 q 590 -10 761 -10 q 353 45 464 -10 q 176 208 243 100 q 108 467 108 317 q 172 722 108 596 q 359 931 235 849 q 654 1014 483 1014 q 860 974 763 1014 q 1025 856 958 933 q 1100 888 1071 858 q 1143 976 1129 917 l 1240 976 m 593 121 q 815 183 724 121 q 952 339 907 244 q 997 531 997 433 q 952 706 997 625 q 827 836 907 788 q 649 885 747 885 q 427 823 518 885 q 292 666 336 761 q 247 474 247 571 q 292 298 247 379 q 415 169 336 217 q 593 121 494 121 m 644 1101 q 701 1147 685 1128 q 718 1194 718 1165 q 707 1226 718 1214 q 672 1238 696 1238 q 607 1200 638 1239 l 561 1232 q 690 1310 613 1310 q 769 1281 742 1310 q 793 1206 796 1251 q 669 1064 790 1126 l 644 1101 z "},"Ỡ":{"ha":1193,"x_min":108,"x_max":1240,"o":"m 1240 976 q 1178 840 1219 886 q 1078 781 1138 794 q 1136 538 1136 672 q 1073 282 1136 408 q 885 73 1010 156 q 590 -10 761 -10 q 353 45 464 -10 q 176 208 243 100 q 108 467 108 317 q 172 722 108 596 q 359 931 235 849 q 654 1014 483 1014 q 860 974 763 1014 q 1025 856 958 933 q 1100 888 1071 858 q 1143 976 1129 917 l 1240 976 m 593 121 q 815 183 724 121 q 952 339 907 244 q 997 531 997 433 q 952 706 997 625 q 827 836 907 788 q 649 885 747 885 q 427 823 518 885 q 292 666 336 761 q 247 474 247 571 q 292 298 247 379 q 415 169 336 217 q 593 121 494 121 m 786 1050 q 708 1070 738 1050 q 643 1129 678 1090 q 604 1167 619 1156 q 567 1179 589 1179 q 519 1148 539 1179 q 493 1065 499 1117 l 411 1072 q 465 1220 418 1161 q 582 1279 511 1279 q 649 1259 621 1279 q 707 1203 676 1239 q 750 1159 733 1172 q 789 1146 767 1146 q 857 1264 843 1146 l 938 1257 q 916 1149 938 1196 q 860 1076 894 1101 q 786 1050 826 1050 z "},"Ő":{"ha":1193,"x_min":108,"x_max":1136,"o":"m 590 -10 q 353 45 464 -10 q 176 208 243 100 q 108 467 108 317 q 172 722 108 596 q 359 931 235 849 q 654 1014 483 1014 q 891 959 781 1014 q 1069 796 1001 904 q 1136 538 1136 688 q 1073 282 1136 408 q 885 73 1010 156 q 590 -10 761 -10 m 593 121 q 815 183 724 121 q 952 339 907 244 q 997 531 997 433 q 952 706 997 625 q 827 836 907 788 q 649 885 747 885 q 427 823 518 885 q 292 666 336 761 q 247 474 247 571 q 292 298 247 379 q 415 169 336 217 q 593 121 494 121 m 743 1285 q 604 1144 683 1221 l 558 1099 l 476 1099 l 625 1285 l 743 1285 m 993 1285 q 854 1144 933 1221 l 808 1099 l 726 1099 q 876 1285 817 1211 l 993 1285 z "},"Ȏ":{"ha":1193,"x_min":108,"x_max":1136,"o":"m 590 -10 q 353 45 464 -10 q 176 208 243 100 q 108 467 108 317 q 172 722 108 596 q 359 931 235 849 q 654 1014 483 1014 q 891 959 781 1014 q 1069 796 1001 904 q 1136 538 1136 688 q 1073 282 1136 408 q 885 73 1010 156 q 590 -10 761 -10 m 593 121 q 815 183 724 121 q 952 339 907 244 q 997 531 997 433 q 952 706 997 625 q 827 836 907 788 q 649 885 747 885 q 427 823 518 885 q 292 666 336 761 q 247 474 247 571 q 292 298 247 379 q 415 169 336 217 q 593 121 494 121 m 689 1304 q 828 1244 772 1304 q 882 1051 883 1183 l 794 1051 q 763 1175 796 1135 q 685 1215 731 1215 q 554 1051 592 1215 l 465 1051 q 544 1240 486 1176 q 689 1304 603 1304 z "},"Ō":{"ha":1193,"x_min":108,"x_max":1136,"o":"m 590 -10 q 353 45 464 -10 q 176 208 243 100 q 108 467 108 317 q 172 722 108 596 q 359 931 235 849 q 654 1014 483 1014 q 891 959 781 1014 q 1069 796 1001 904 q 1136 538 1136 688 q 1073 282 1136 408 q 885 73 1010 156 q 590 -10 761 -10 m 593 121 q 815 183 724 121 q 952 339 907 244 q 997 531 997 433 q 952 706 997 625 q 827 836 907 788 q 649 885 747 885 q 427 823 518 885 q 292 666 336 761 q 247 474 247 571 q 292 298 247 379 q 415 169 336 217 q 593 121 494 121 m 844 1171 l 836 1096 l 513 1096 l 521 1171 l 844 1171 z "},"Ǫ":{"ha":1193,"x_min":108,"x_max":1136,"o":"m 771 22 q 642 -137 642 -43 q 660 -188 642 -171 q 706 -206 678 -206 q 803 -144 757 -206 l 844 -212 q 774 -274 817 -250 q 688 -297 731 -297 q 576 -257 621 -297 q 532 -153 532 -217 q 553 -78 532 -117 q 613 -10 574 -39 l 590 -10 q 353 45 464 -10 q 176 208 243 100 q 108 467 108 317 q 172 722 108 596 q 359 931 235 849 q 654 1014 483 1014 q 891 959 781 1014 q 1069 796 1001 904 q 1136 538 1136 688 q 1093 332 1136 438 q 967 142 1050 226 q 771 22 885 58 m 247 474 q 292 298 247 379 q 415 169 336 217 q 593 121 494 121 q 815 183 724 121 q 952 339 907 244 q 997 531 997 433 q 952 706 997 625 q 827 836 907 788 q 649 885 747 885 q 427 823 518 885 q 292 666 336 761 q 247 474 247 571 z "},"Ø":{"ha":1181,"x_min":108,"x_max":1158,"o":"m 1042 835 q 1136 538 1136 714 q 1073 282 1136 408 q 885 73 1010 156 q 590 -10 761 -10 q 438 13 513 -10 q 301 76 363 35 l 207 -21 l 147 39 l 236 131 q 142 276 175 192 q 108 467 108 361 q 172 722 108 596 q 359 931 235 849 q 654 1014 483 1014 q 832 983 746 1014 q 983 896 918 953 l 1100 1015 l 1158 954 l 1042 835 m 247 474 q 271 344 247 406 q 338 233 294 282 l 883 793 q 777 860 838 836 q 649 885 717 885 q 427 823 518 885 q 292 666 336 761 q 247 474 247 571 m 997 531 q 939 729 997 640 l 401 178 q 593 121 485 121 q 815 183 724 121 q 952 339 907 244 q 997 531 997 433 z "},"Ǿ":{"ha":1181,"x_min":108,"x_max":1158,"o":"m 1042 835 q 1136 538 1136 714 q 1073 282 1136 408 q 885 73 1010 156 q 590 -10 761 -10 q 438 13 513 -10 q 301 76 363 35 l 207 -21 l 147 39 l 236 131 q 142 276 175 192 q 108 467 108 361 q 172 722 108 596 q 359 931 235 849 q 654 1014 483 1014 q 832 983 746 1014 q 983 896 918 953 l 1100 1015 l 1158 954 l 1042 835 m 247 474 q 271 344 247 406 q 338 233 294 282 l 883 793 q 777 860 838 836 q 649 885 717 885 q 427 823 518 885 q 292 666 336 761 q 247 474 247 571 m 997 531 q 939 729 997 640 l 401 178 q 593 121 485 121 q 815 183 724 121 q 952 339 907 244 q 997 531 997 433 m 739 1068 l 656 1068 l 779 1254 l 922 1254 l 739 1068 z "},"Õ":{"ha":1193,"x_min":108,"x_max":1136,"o":"m 590 -10 q 353 45 464 -10 q 176 208 243 100 q 108 467 108 317 q 172 722 108 596 q 359 931 235 849 q 654 1014 483 1014 q 891 959 781 1014 q 1069 796 1001 904 q 1136 538 1136 688 q 1073 282 1136 408 q 885 73 1010 156 q 590 -10 761 -10 m 593 121 q 815 183 724 121 q 952 339 907 244 q 997 531 997 433 q 952 706 997 625 q 827 836 907 788 q 649 885 747 885 q 427 823 518 885 q 292 666 336 761 q 247 474 247 571 q 292 298 247 379 q 415 169 336 217 q 593 121 494 121 m 786 1050 q 708 1070 738 1050 q 643 1129 678 1090 q 604 1167 619 1156 q 567 1179 589 1179 q 519 1148 539 1179 q 493 1065 499 1117 l 411 1072 q 465 1220 418 1161 q 582 1279 511 1279 q 649 1259 621 1279 q 707 1203 676 1239 q 750 1159 733 1172 q 789 1146 767 1146 q 857 1264 843 1146 l 938 1257 q 916 1149 938 1196 q 860 1076 894 1101 q 786 1050 826 1050 z "},"Ȭ":{"ha":1193,"x_min":108,"x_max":1136,"o":"m 590 -10 q 353 45 464 -10 q 176 208 243 100 q 108 467 108 317 q 172 722 108 596 q 359 931 235 849 q 654 1014 483 1014 q 891 959 781 1014 q 1069 796 1001 904 q 1136 538 1136 688 q 1073 282 1136 408 q 885 73 1010 156 q 590 -10 761 -10 m 593 121 q 815 183 724 121 q 952 339 907 244 q 997 531 997 433 q 952 706 997 625 q 827 836 907 788 q 649 885 747 885 q 427 823 518 885 q 292 666 336 761 q 247 474 247 571 q 292 298 247 379 q 415 169 336 217 q 593 121 494 121 m 786 1050 q 708 1070 738 1050 q 643 1129 678 1090 q 604 1167 619 1156 q 567 1179 589 1179 q 519 1148 539 1179 q 493 1065 499 1117 l 411 1072 q 465 1220 418 1161 q 582 1279 511 1279 q 649 1259 621 1279 q 707 1203 676 1239 q 750 1159 733 1172 q 789 1146 767 1146 q 857 1264 843 1146 l 938 1257 q 916 1149 938 1196 q 860 1076 894 1101 q 786 1050 826 1050 m 889 1425 l 881 1350 l 557 1350 l 565 1425 l 889 1425 z "},"Œ":{"ha":1401,"x_min":146,"x_max":1407,"o":"m 919 879 l 881 568 l 1297 568 l 1282 440 l 865 440 l 828 129 l 1319 129 l 1303 0 l 703 0 q 599 -11 647 -11 q 366 50 469 -11 q 204 217 263 111 q 146 449 146 322 q 224 732 146 601 q 435 939 303 863 q 724 1015 568 1015 q 824 1004 775 1015 l 1407 1004 l 1392 879 l 919 879 m 285 461 q 328 289 285 367 q 447 166 371 211 q 617 121 522 121 q 688 128 660 121 l 779 874 q 708 882 746 882 q 494 826 592 882 q 341 673 397 769 q 285 461 285 576 z "},"P":{"ha":811,"x_min":107,"x_max":813,"o":"m 497 1004 q 726 933 639 1004 q 813 731 813 861 q 773 559 813 642 q 648 423 733 476 q 435 369 563 369 l 292 369 l 246 0 l 107 0 l 231 1004 l 497 1004 m 447 500 q 577 535 526 500 q 650 619 628 569 q 672 711 672 668 q 628 825 672 776 q 494 874 583 874 l 353 874 l 307 500 l 447 500 z "},"Þ":{"ha":811,"x_min":107,"x_max":790,"o":"m 475 814 q 703 742 615 814 q 790 540 790 669 q 750 369 790 451 q 625 233 710 286 q 413 179 540 179 l 268 179 l 246 0 l 107 0 l 228 985 l 367 985 l 346 814 l 475 814 m 424 310 q 553 345 503 310 q 626 430 604 381 q 649 522 649 479 q 604 635 649 586 q 471 685 560 685 l 329 685 l 283 310 l 424 310 z "},"Q":{"ha":1308,"x_min":168,"x_max":1226,"o":"m 1211 0 l 758 0 q 650 -10 711 -10 q 413 45 524 -10 q 235 208 303 100 q 168 467 168 317 q 231 722 168 596 q 419 931 294 849 q 714 1014 543 1014 q 951 959 840 1014 q 1128 796 1061 904 q 1196 538 1196 688 q 1144 306 1196 422 q 996 111 1092 190 l 1226 132 l 1211 0 m 307 474 q 351 298 307 379 q 474 169 396 217 q 651 121 553 121 q 874 183 782 121 q 1011 339 965 244 q 1057 531 1057 433 q 1012 706 1057 625 q 887 836 967 788 q 708 885 807 885 q 487 823 578 885 q 351 666 396 761 q 307 474 307 571 z "},"R":{"ha":917,"x_min":107,"x_max":817,"o":"m 814 693 q 753 522 803 600 q 614 404 703 444 l 815 0 l 658 0 l 468 371 q 435 369 457 369 l 288 369 l 242 0 l 107 0 l 231 1004 l 497 1004 q 729 935 642 1004 q 817 739 817 865 q 814 693 817 724 m 449 500 q 581 534 531 500 q 654 617 632 568 q 676 711 676 665 q 634 826 676 778 q 504 875 592 875 l 349 875 l 303 500 l 449 500 z "},"Ŕ":{"ha":917,"x_min":107,"x_max":817,"o":"m 814 693 q 753 522 803 600 q 614 404 703 444 l 815 0 l 658 0 l 468 371 q 435 369 457 369 l 288 369 l 242 0 l 107 0 l 231 1004 l 497 1004 q 729 935 642 1004 q 817 739 817 865 q 814 693 817 724 m 449 500 q 581 534 531 500 q 654 617 632 568 q 676 711 676 665 q 634 826 676 778 q 504 875 592 875 l 349 875 l 303 500 l 449 500 m 563 1063 l 479 1063 l 603 1249 l 746 1249 l 563 1063 z "},"Ř":{"ha":917,"x_min":107,"x_max":817,"o":"m 814 693 q 753 522 803 600 q 614 404 703 444 l 815 0 l 658 0 l 468 371 q 435 369 457 369 l 288 369 l 242 0 l 107 0 l 231 1004 l 497 1004 q 729 935 642 1004 q 817 739 817 865 q 814 693 817 724 m 449 500 q 581 534 531 500 q 654 617 632 568 q 676 711 676 665 q 634 826 676 778 q 504 875 592 875 l 349 875 l 303 500 l 449 500 m 776 1332 l 521 1079 l 519 1079 l 324 1332 l 443 1332 l 536 1203 l 657 1332 l 776 1332 z "},"Ŗ":{"ha":917,"x_min":107,"x_max":817,"o":"m 814 693 q 753 522 803 600 q 614 404 703 444 l 815 0 l 658 0 l 468 371 q 435 369 457 369 l 288 369 l 242 0 l 107 0 l 231 1004 l 497 1004 q 729 935 642 1004 q 817 739 817 865 q 814 693 817 724 m 449 500 q 581 534 531 500 q 654 617 632 568 q 676 711 676 665 q 634 826 676 778 q 504 875 592 875 l 349 875 l 303 500 l 449 500 m 315 -244 q 363 -178 346 -221 q 379 -86 379 -135 q 378 -61 379 -69 l 493 -62 q 494 -86 494 -69 q 464 -203 494 -144 q 382 -292 433 -261 l 315 -244 z "},"Ȑ":{"ha":917,"x_min":107,"x_max":817,"o":"m 814 693 q 753 522 803 600 q 614 404 703 444 l 815 0 l 658 0 l 468 371 q 435 369 457 369 l 288 369 l 242 0 l 107 0 l 231 1004 l 497 1004 q 729 935 642 1004 q 817 739 817 865 q 814 693 817 724 m 449 500 q 581 534 531 500 q 654 617 632 568 q 676 711 676 665 q 634 826 676 778 q 504 875 592 875 l 349 875 l 303 500 l 449 500 m 482 1099 l 399 1099 l 246 1285 l 390 1285 l 482 1099 m 669 1099 l 586 1099 l 433 1285 l 578 1285 l 669 1099 z "},"Ȓ":{"ha":917,"x_min":107,"x_max":817,"o":"m 814 693 q 753 522 803 600 q 614 404 703 444 l 815 0 l 658 0 l 468 371 q 435 369 457 369 l 288 369 l 242 0 l 107 0 l 231 1004 l 497 1004 q 729 935 642 1004 q 817 739 817 865 q 814 693 817 724 m 449 500 q 581 534 531 500 q 654 617 632 568 q 676 711 676 665 q 634 826 676 778 q 504 875 592 875 l 349 875 l 303 500 l 449 500 m 531 1304 q 669 1244 614 1304 q 724 1051 725 1183 l 636 1051 q 605 1175 638 1135 q 526 1215 572 1215 q 396 1051 433 1215 l 307 1051 q 386 1240 328 1176 q 531 1304 444 1304 z "},"S":{"ha":785,"x_min":33,"x_max":782,"o":"m 717 807 q 600 864 663 842 q 481 886 538 886 q 346 843 392 886 q 300 744 300 800 q 351 649 300 689 q 494 567 401 610 q 658 462 599 521 q 717 297 717 403 q 678 151 717 222 q 563 35 640 81 q 375 -10 486 -10 q 188 25 276 -10 q 33 117 100 60 l 106 219 q 227 142 154 174 q 369 111 300 111 q 513 157 456 111 q 575 276 569 203 q 531 381 578 338 q 403 461 485 424 q 278 527 326 497 q 195 605 231 557 q 160 721 160 653 q 201 873 160 808 q 317 972 243 938 q 482 1006 390 1007 q 646 976 574 1001 q 782 907 718 950 l 717 807 z "},"Ś":{"ha":785,"x_min":33,"x_max":782,"o":"m 717 807 q 600 864 663 842 q 481 886 538 886 q 346 843 392 886 q 300 744 300 800 q 351 649 300 689 q 494 567 401 610 q 658 462 599 521 q 717 297 717 403 q 678 151 717 222 q 563 35 640 81 q 375 -10 486 -10 q 188 25 276 -10 q 33 117 100 60 l 106 219 q 227 142 154 174 q 369 111 300 111 q 513 157 456 111 q 575 276 569 203 q 531 381 578 338 q 403 461 485 424 q 278 527 326 497 q 195 605 231 557 q 160 721 160 653 q 201 873 160 808 q 317 972 243 938 q 482 1006 390 1007 q 646 976 574 1001 q 782 907 718 950 l 717 807 m 521 1036 l 438 1036 l 561 1222 l 704 1222 l 521 1036 z "},"Š":{"ha":785,"x_min":33,"x_max":782,"o":"m 717 807 q 600 864 663 842 q 481 886 538 886 q 346 843 392 886 q 300 744 300 800 q 351 649 300 689 q 494 567 401 610 q 658 462 599 521 q 717 297 717 403 q 678 151 717 222 q 563 35 640 81 q 375 -10 486 -10 q 188 25 276 -10 q 33 117 100 60 l 106 219 q 227 142 154 174 q 369 111 300 111 q 513 157 456 111 q 575 276 569 203 q 531 381 578 338 q 403 461 485 424 q 278 527 326 497 q 195 605 231 557 q 160 721 160 653 q 201 873 160 808 q 317 972 243 938 q 482 1006 390 1007 q 646 976 574 1001 q 782 907 718 950 l 717 807 m 735 1306 l 479 1053 l 478 1053 l 282 1306 l 401 1306 l 494 1176 l 615 1306 l 735 1306 z "},"Ş":{"ha":785,"x_min":33,"x_max":782,"o":"m 481 886 q 346 843 392 886 q 300 744 300 800 q 351 649 300 689 q 494 567 401 610 q 658 462 599 521 q 717 297 717 403 q 685 163 717 229 q 588 51 653 97 q 429 -7 522 4 l 374 -64 l 386 -64 q 499 -97 457 -67 q 540 -181 540 -128 q 485 -284 540 -249 q 350 -319 431 -319 q 193 -258 244 -319 l 240 -206 q 276 -235 253 -224 q 328 -249 299 -247 q 399 -233 369 -250 q 429 -182 429 -215 q 338 -124 429 -124 q 256 -135 300 -124 l 240 -69 l 322 -7 q 165 35 239 1 q 33 117 92 68 l 106 219 q 227 142 154 174 q 369 111 300 111 q 513 157 456 111 q 575 276 569 203 q 531 381 578 338 q 403 461 485 424 q 278 527 326 497 q 195 605 231 557 q 160 721 160 653 q 201 873 160 808 q 317 972 243 938 q 482 1006 390 1007 q 646 976 574 1001 q 782 907 718 950 l 717 807 q 600 864 663 842 q 481 886 538 886 z "},"Ŝ":{"ha":785,"x_min":33,"x_max":782,"o":"m 717 807 q 600 864 663 842 q 481 886 538 886 q 346 843 392 886 q 300 744 300 800 q 351 649 300 689 q 494 567 401 610 q 658 462 599 521 q 717 297 717 403 q 678 151 717 222 q 563 35 640 81 q 375 -10 486 -10 q 188 25 276 -10 q 33 117 100 60 l 106 219 q 227 142 154 174 q 369 111 300 111 q 513 157 456 111 q 575 276 569 203 q 531 381 578 338 q 403 461 485 424 q 278 527 326 497 q 195 605 231 557 q 160 721 160 653 q 201 873 160 808 q 317 972 243 938 q 482 1006 390 1007 q 646 976 574 1001 q 782 907 718 950 l 717 807 m 581 1072 l 488 1201 l 367 1072 l 249 1072 l 503 1325 l 700 1072 l 581 1072 z "},"Ș":{"ha":785,"x_min":33,"x_max":782,"o":"m 717 807 q 600 864 663 842 q 481 886 538 886 q 346 843 392 886 q 300 744 300 800 q 351 649 300 689 q 494 567 401 610 q 658 462 599 521 q 717 297 717 403 q 678 151 717 222 q 563 35 640 81 q 375 -10 486 -10 q 188 25 276 -10 q 33 117 100 60 l 106 219 q 227 142 154 174 q 369 111 300 111 q 513 157 456 111 q 575 276 569 203 q 531 381 578 338 q 403 461 485 424 q 278 527 326 497 q 195 605 231 557 q 160 721 160 653 q 201 873 160 808 q 317 972 243 938 q 482 1006 390 1007 q 646 976 574 1001 q 782 907 718 950 l 717 807 m 257 -244 q 304 -178 288 -221 q 321 -86 321 -135 q 319 -61 321 -69 l 435 -62 q 436 -86 436 -69 q 406 -203 436 -144 q 324 -292 375 -261 l 257 -244 z "},"ẞ":{"ha":1149,"x_min":107,"x_max":1085,"o":"m 890 529 q 995 461 960 488 q 1058 392 1031 435 q 1085 288 1085 349 q 1044 141 1085 210 q 928 31 1003 72 q 756 -11 853 -11 q 592 13 668 -11 q 456 81 515 38 l 528 188 q 638 131 575 153 q 760 108 700 108 q 877 146 821 108 q 942 253 933 183 q 943 268 943 258 q 914 337 943 308 q 822 403 885 365 l 799 417 q 658 522 711 464 q 604 661 604 579 q 606 689 604 679 q 665 835 617 775 q 796 921 714 896 q 660 944 729 944 q 425 844 517 944 q 308 540 333 744 l 242 0 l 107 0 l 174 546 q 324 917 203 782 q 660 1053 444 1053 q 876 1009 772 1053 q 1026 908 981 965 l 976 808 q 926 838 951 829 l 925 836 l 924 838 q 885 843 901 843 q 784 801 826 843 q 742 697 742 758 q 762 631 742 660 q 808 584 782 603 q 890 529 833 565 z "},"Ə":{"ha":1111,"x_min":85,"x_max":1056,"o":"m 604 1015 q 815 963 711 1014 q 988 805 919 911 q 1056 543 1056 699 q 996 293 1056 419 q 814 82 936 167 q 515 -3 692 -3 q 348 28 438 -3 q 181 156 258 60 q 85 431 103 253 l 894 660 q 815 788 869 738 q 697 860 761 838 q 571 883 632 883 q 421 853 497 883 q 294 778 344 824 l 240 890 q 408 980 306 944 q 604 1015 511 1015 m 535 118 q 740 185 654 118 q 869 349 826 251 q 913 536 913 447 l 913 560 l 243 363 q 358 179 276 240 q 535 118 440 118 z "},"T":{"ha":808,"x_min":139,"x_max":822,"o":"m 822 1004 l 806 872 l 539 872 l 432 0 l 293 0 l 400 872 l 139 872 l 156 1004 l 822 1004 z "},"Ŧ":{"ha":808,"x_min":139,"x_max":822,"o":"m 539 872 l 500 553 l 607 553 l 590 422 l 483 422 l 432 0 l 293 0 l 344 422 l 231 422 l 247 553 l 361 553 l 400 872 l 139 872 l 156 1004 l 822 1004 l 806 872 l 539 872 z "},"Ť":{"ha":808,"x_min":139,"x_max":822,"o":"m 822 1004 l 806 872 l 539 872 l 432 0 l 293 0 l 400 872 l 139 872 l 156 1004 l 822 1004 m 760 1306 l 504 1053 l 503 1053 l 307 1306 l 426 1306 l 519 1176 l 640 1306 l 760 1306 z "},"Ţ":{"ha":808,"x_min":139,"x_max":822,"o":"m 822 1004 l 806 872 l 539 872 l 432 0 l 417 0 l 354 -64 l 367 -64 q 479 -97 438 -67 q 521 -181 521 -128 q 466 -284 521 -249 q 331 -319 411 -319 q 174 -258 225 -319 l 221 -206 q 256 -235 233 -224 q 308 -249 279 -247 q 380 -233 350 -250 q 410 -182 410 -215 q 318 -124 410 -124 q 236 -135 281 -124 l 221 -69 l 313 0 l 293 0 l 400 872 l 139 872 l 156 1004 l 822 1004 z "},"Ț":{"ha":808,"x_min":139,"x_max":822,"o":"m 822 1004 l 806 872 l 539 872 l 432 0 l 293 0 l 400 872 l 139 872 l 156 1004 l 822 1004 m 238 -244 q 285 -178 268 -221 q 301 -86 301 -135 q 300 -61 301 -69 l 415 -62 q 417 -86 417 -69 q 386 -203 417 -144 q 304 -292 356 -261 l 238 -244 z "},"U":{"ha":1044,"x_min":147,"x_max":983,"o":"m 290 356 q 288 322 288 333 q 346 176 288 233 q 497 119 404 119 q 625 150 567 119 q 720 235 683 181 q 765 356 757 289 l 844 1004 l 983 1004 l 904 351 q 832 161 890 243 q 683 34 774 79 q 482 -11 592 -11 q 309 28 385 -11 q 190 138 233 67 q 147 301 147 208 q 150 351 147 318 l 231 1004 l 369 1004 l 290 356 z "},"Ú":{"ha":1044,"x_min":147,"x_max":983,"o":"m 290 356 q 288 322 288 333 q 346 176 288 233 q 497 119 404 119 q 625 150 567 119 q 720 235 683 181 q 765 356 757 289 l 844 1004 l 983 1004 l 904 351 q 832 161 890 243 q 683 34 774 79 q 482 -11 592 -11 q 309 28 385 -11 q 190 138 233 67 q 147 301 147 208 q 150 351 147 318 l 231 1004 l 369 1004 l 290 356 m 669 1063 l 586 1063 l 710 1249 l 853 1249 l 669 1063 z "},"Ŭ":{"ha":1044,"x_min":147,"x_max":983,"o":"m 290 356 q 288 322 288 333 q 346 176 288 233 q 497 119 404 119 q 625 150 567 119 q 720 235 683 181 q 765 356 757 289 l 844 1004 l 983 1004 l 904 351 q 832 161 890 243 q 683 34 774 79 q 482 -11 592 -11 q 309 28 385 -11 q 190 138 233 67 q 147 301 147 208 q 150 351 147 318 l 231 1004 l 369 1004 l 290 356 m 628 1072 q 489 1133 544 1072 q 435 1325 433 1193 l 522 1325 q 553 1201 521 1242 q 632 1161 586 1161 q 763 1325 725 1161 l 851 1325 q 772 1136 831 1200 q 628 1072 714 1072 z "},"Ǔ":{"ha":1044,"x_min":147,"x_max":983,"o":"m 290 356 q 288 322 288 333 q 346 176 288 233 q 497 119 404 119 q 625 150 567 119 q 720 235 683 181 q 765 356 757 289 l 844 1004 l 983 1004 l 904 351 q 832 161 890 243 q 683 34 774 79 q 482 -11 592 -11 q 309 28 385 -11 q 190 138 233 67 q 147 301 147 208 q 150 351 147 318 l 231 1004 l 369 1004 l 290 356 m 883 1332 l 628 1079 l 626 1079 l 431 1332 l 550 1332 l 643 1203 l 764 1332 l 883 1332 z "},"Û":{"ha":1044,"x_min":147,"x_max":983,"o":"m 290 356 q 288 322 288 333 q 346 176 288 233 q 497 119 404 119 q 625 150 567 119 q 720 235 683 181 q 765 356 757 289 l 844 1004 l 983 1004 l 904 351 q 832 161 890 243 q 683 34 774 79 q 482 -11 592 -11 q 309 28 385 -11 q 190 138 233 67 q 147 301 147 208 q 150 351 147 318 l 231 1004 l 369 1004 l 290 356 m 729 1099 l 636 1228 l 515 1099 l 397 1099 l 651 1351 l 849 1099 l 729 1099 z "},"Ȕ":{"ha":1044,"x_min":147,"x_max":983,"o":"m 290 356 q 288 322 288 333 q 346 176 288 233 q 497 119 404 119 q 625 150 567 119 q 720 235 683 181 q 765 356 757 289 l 844 1004 l 983 1004 l 904 351 q 832 161 890 243 q 683 34 774 79 q 482 -11 592 -11 q 309 28 385 -11 q 190 138 233 67 q 147 301 147 208 q 150 351 147 318 l 231 1004 l 369 1004 l 290 356 m 589 1099 l 506 1099 l 353 1285 l 497 1285 l 589 1099 m 776 1099 l 693 1099 l 540 1285 l 685 1285 l 776 1099 z "},"Ü":{"ha":1044,"x_min":147,"x_max":983,"o":"m 290 356 q 288 322 288 333 q 346 176 288 233 q 497 119 404 119 q 625 150 567 119 q 720 235 683 181 q 765 356 757 289 l 844 1004 l 983 1004 l 904 351 q 832 161 890 243 q 683 34 774 79 q 482 -11 592 -11 q 309 28 385 -11 q 190 138 233 67 q 147 301 147 208 q 150 351 147 318 l 231 1004 l 369 1004 l 290 356 m 431 1157 q 455 1213 431 1190 q 508 1235 479 1235 q 555 1215 535 1235 q 575 1164 575 1194 q 550 1108 575 1131 q 496 1088 525 1085 q 450 1108 469 1089 q 431 1157 431 1128 m 689 1157 q 713 1213 689 1190 q 767 1235 738 1235 q 813 1214 793 1235 q 833 1164 833 1193 q 808 1108 833 1131 q 754 1088 783 1085 q 708 1108 728 1089 q 689 1157 689 1128 z "},"Ụ":{"ha":1044,"x_min":147,"x_max":983,"o":"m 290 356 q 288 322 288 333 q 346 176 288 233 q 497 119 404 119 q 625 150 567 119 q 720 235 683 181 q 765 356 757 289 l 844 1004 l 983 1004 l 904 351 q 832 161 890 243 q 683 34 774 79 q 482 -11 592 -11 q 309 28 385 -11 q 190 138 233 67 q 147 301 147 208 q 150 351 147 318 l 231 1004 l 369 1004 l 290 356 m 375 -142 q 398 -87 375 -110 q 456 -64 421 -64 q 508 -81 485 -64 q 531 -129 531 -99 q 507 -185 531 -162 q 449 -208 483 -208 q 397 -190 418 -207 q 375 -142 375 -172 z "},"Ù":{"ha":1044,"x_min":147,"x_max":983,"o":"m 290 356 q 288 322 288 333 q 346 176 288 233 q 497 119 404 119 q 625 150 567 119 q 720 235 683 181 q 765 356 757 289 l 844 1004 l 983 1004 l 904 351 q 832 161 890 243 q 683 34 774 79 q 482 -11 592 -11 q 309 28 385 -11 q 190 138 233 67 q 147 301 147 208 q 150 351 147 318 l 231 1004 l 369 1004 l 290 356 m 663 1099 l 579 1099 l 426 1285 l 571 1285 l 663 1099 z "},"Ủ":{"ha":1044,"x_min":147,"x_max":983,"o":"m 290 356 q 288 322 288 333 q 346 176 288 233 q 497 119 404 119 q 625 150 567 119 q 720 235 683 181 q 765 356 757 289 l 844 1004 l 983 1004 l 904 351 q 832 161 890 243 q 683 34 774 79 q 482 -11 592 -11 q 309 28 385 -11 q 190 138 233 67 q 147 301 147 208 q 150 351 147 318 l 231 1004 l 369 1004 l 290 356 m 593 1101 q 650 1147 633 1128 q 667 1194 667 1165 q 656 1226 667 1214 q 621 1238 644 1238 q 556 1200 586 1239 l 510 1232 q 639 1310 561 1310 q 717 1281 690 1310 q 742 1206 744 1251 q 618 1064 739 1126 l 593 1101 z "},"Ư":{"ha":1129,"x_min":147,"x_max":1203,"o":"m 1203 1006 q 1114 844 1175 888 q 960 806 1053 800 l 904 351 q 832 161 890 243 q 683 34 774 79 q 482 -11 592 -11 q 309 28 385 -11 q 190 138 233 67 q 147 301 147 208 q 150 351 147 318 l 231 1004 l 369 1004 l 290 356 q 288 322 288 333 q 346 176 288 233 q 497 119 404 119 q 625 150 567 119 q 720 235 683 181 q 765 356 757 289 l 844 1004 l 983 1004 l 969 885 q 1056 910 1024 882 q 1106 1006 1089 939 l 1203 1006 z "},"Ứ":{"ha":1129,"x_min":147,"x_max":1203,"o":"m 1203 1006 q 1114 844 1175 888 q 960 806 1053 800 l 904 351 q 832 161 890 243 q 683 34 774 79 q 482 -11 592 -11 q 309 28 385 -11 q 190 138 233 67 q 147 301 147 208 q 150 351 147 318 l 231 1004 l 369 1004 l 290 356 q 288 322 288 333 q 346 176 288 233 q 497 119 404 119 q 625 150 567 119 q 720 235 683 181 q 765 356 757 289 l 844 1004 l 983 1004 l 969 885 q 1056 910 1024 882 q 1106 1006 1089 939 l 1203 1006 m 669 1063 l 586 1063 l 710 1249 l 853 1249 l 669 1063 z "},"Ự":{"ha":1129,"x_min":147,"x_max":1203,"o":"m 1203 1006 q 1114 844 1175 888 q 960 806 1053 800 l 904 351 q 832 161 890 243 q 683 34 774 79 q 482 -11 592 -11 q 309 28 385 -11 q 190 138 233 67 q 147 301 147 208 q 150 351 147 318 l 231 1004 l 369 1004 l 290 356 q 288 322 288 333 q 346 176 288 233 q 497 119 404 119 q 625 150 567 119 q 720 235 683 181 q 765 356 757 289 l 844 1004 l 983 1004 l 969 885 q 1056 910 1024 882 q 1106 1006 1089 939 l 1203 1006 m 375 -142 q 398 -87 375 -110 q 456 -64 421 -64 q 508 -81 485 -64 q 531 -129 531 -99 q 507 -185 531 -162 q 449 -208 483 -208 q 397 -190 418 -207 q 375 -142 375 -172 z "},"Ừ":{"ha":1129,"x_min":147,"x_max":1203,"o":"m 1203 1006 q 1114 844 1175 888 q 960 806 1053 800 l 904 351 q 832 161 890 243 q 683 34 774 79 q 482 -11 592 -11 q 309 28 385 -11 q 190 138 233 67 q 147 301 147 208 q 150 351 147 318 l 231 1004 l 369 1004 l 290 356 q 288 322 288 333 q 346 176 288 233 q 497 119 404 119 q 625 150 567 119 q 720 235 683 181 q 765 356 757 289 l 844 1004 l 983 1004 l 969 885 q 1056 910 1024 882 q 1106 1006 1089 939 l 1203 1006 m 663 1099 l 579 1099 l 426 1285 l 571 1285 l 663 1099 z "},"Ử":{"ha":1129,"x_min":147,"x_max":1203,"o":"m 1203 1006 q 1114 844 1175 888 q 960 806 1053 800 l 904 351 q 832 161 890 243 q 683 34 774 79 q 482 -11 592 -11 q 309 28 385 -11 q 190 138 233 67 q 147 301 147 208 q 150 351 147 318 l 231 1004 l 369 1004 l 290 356 q 288 322 288 333 q 346 176 288 233 q 497 119 404 119 q 625 150 567 119 q 720 235 683 181 q 765 356 757 289 l 844 1004 l 983 1004 l 969 885 q 1056 910 1024 882 q 1106 1006 1089 939 l 1203 1006 m 593 1101 q 650 1147 633 1128 q 667 1194 667 1165 q 656 1226 667 1214 q 621 1238 644 1238 q 556 1200 586 1239 l 510 1232 q 639 1310 561 1310 q 717 1281 690 1310 q 742 1206 744 1251 q 618 1064 739 1126 l 593 1101 z "},"Ữ":{"ha":1129,"x_min":147,"x_max":1203,"o":"m 1203 1006 q 1114 844 1175 888 q 960 806 1053 800 l 904 351 q 832 161 890 243 q 683 34 774 79 q 482 -11 592 -11 q 309 28 385 -11 q 190 138 233 67 q 147 301 147 208 q 150 351 147 318 l 231 1004 l 369 1004 l 290 356 q 288 322 288 333 q 346 176 288 233 q 497 119 404 119 q 625 150 567 119 q 720 235 683 181 q 765 356 757 289 l 844 1004 l 983 1004 l 969 885 q 1056 910 1024 882 q 1106 1006 1089 939 l 1203 1006 m 735 1050 q 656 1070 686 1050 q 592 1129 626 1090 q 553 1167 568 1156 q 515 1179 538 1179 q 467 1148 488 1179 q 442 1065 447 1117 l 360 1072 q 413 1220 367 1161 q 531 1279 460 1279 q 597 1259 569 1279 q 656 1203 625 1239 q 699 1159 682 1172 q 738 1146 715 1146 q 806 1264 792 1146 l 886 1257 q 865 1149 886 1196 q 809 1076 843 1101 q 735 1050 775 1050 z "},"Ű":{"ha":1044,"x_min":147,"x_max":983,"o":"m 290 356 q 288 322 288 333 q 346 176 288 233 q 497 119 404 119 q 625 150 567 119 q 720 235 683 181 q 765 356 757 289 l 844 1004 l 983 1004 l 904 351 q 832 161 890 243 q 683 34 774 79 q 482 -11 592 -11 q 309 28 385 -11 q 190 138 233 67 q 147 301 147 208 q 150 351 147 318 l 231 1004 l 369 1004 l 290 356 m 692 1285 q 553 1144 632 1221 l 507 1099 l 425 1099 l 574 1285 l 692 1285 m 942 1285 q 803 1144 882 1221 l 757 1099 l 675 1099 q 825 1285 765 1211 l 942 1285 z "},"Ȗ":{"ha":1044,"x_min":147,"x_max":983,"o":"m 290 356 q 288 322 288 333 q 346 176 288 233 q 497 119 404 119 q 625 150 567 119 q 720 235 683 181 q 765 356 757 289 l 844 1004 l 983 1004 l 904 351 q 832 161 890 243 q 683 34 774 79 q 482 -11 592 -11 q 309 28 385 -11 q 190 138 233 67 q 147 301 147 208 q 150 351 147 318 l 231 1004 l 369 1004 l 290 356 m 638 1304 q 776 1244 721 1304 q 831 1051 832 1183 l 743 1051 q 712 1175 744 1135 q 633 1215 679 1215 q 503 1051 540 1215 l 414 1051 q 493 1240 435 1176 q 638 1304 551 1304 z "},"Ū":{"ha":1044,"x_min":147,"x_max":983,"o":"m 290 356 q 288 322 288 333 q 346 176 288 233 q 497 119 404 119 q 625 150 567 119 q 720 235 683 181 q 765 356 757 289 l 844 1004 l 983 1004 l 904 351 q 832 161 890 243 q 683 34 774 79 q 482 -11 592 -11 q 309 28 385 -11 q 190 138 233 67 q 147 301 147 208 q 150 351 147 318 l 231 1004 l 369 1004 l 290 356 m 793 1171 l 785 1096 l 461 1096 l 469 1171 l 793 1171 z "},"Ų":{"ha":1044,"x_min":147,"x_max":983,"o":"m 983 1004 l 904 351 q 818 149 889 236 q 644 17 747 63 q 561 -45 589 -7 q 533 -128 533 -83 q 551 -178 533 -157 q 596 -200 569 -200 q 694 -139 647 -204 l 736 -207 q 663 -269 708 -246 q 572 -293 617 -293 q 463 -250 503 -293 q 424 -142 424 -207 q 483 -11 424 -67 l 482 -11 q 307 27 383 -11 q 189 136 231 65 q 147 300 147 207 q 150 351 147 333 l 231 1004 l 369 1004 l 290 356 q 288 322 288 333 q 346 176 288 233 q 497 119 404 119 q 625 150 567 119 q 720 235 683 181 q 765 356 757 289 l 844 1004 l 983 1004 z "},"Ů":{"ha":1044,"x_min":147,"x_max":983,"o":"m 290 356 q 288 322 288 333 q 346 176 288 233 q 497 119 404 119 q 625 150 567 119 q 720 235 683 181 q 765 356 757 289 l 844 1004 l 983 1004 l 904 351 q 832 161 890 243 q 683 34 774 79 q 482 -11 592 -11 q 309 28 385 -11 q 190 138 233 67 q 147 301 147 208 q 150 351 147 318 l 231 1004 l 369 1004 l 290 356 m 506 1151 q 544 1248 506 1211 q 642 1285 583 1285 q 731 1253 697 1285 q 765 1169 765 1221 q 726 1073 765 1110 q 629 1036 686 1036 q 540 1069 575 1036 q 506 1151 506 1101 m 576 1157 q 591 1115 576 1131 q 631 1097 606 1100 q 677 1116 658 1097 q 696 1164 696 1135 q 681 1206 696 1190 q 640 1221 665 1221 q 595 1203 614 1221 q 576 1157 576 1186 z "},"Ũ":{"ha":1044,"x_min":147,"x_max":983,"o":"m 290 356 q 288 322 288 333 q 346 176 288 233 q 497 119 404 119 q 625 150 567 119 q 720 235 683 181 q 765 356 757 289 l 844 1004 l 983 1004 l 904 351 q 832 161 890 243 q 683 34 774 79 q 482 -11 592 -11 q 309 28 385 -11 q 190 138 233 67 q 147 301 147 208 q 150 351 147 318 l 231 1004 l 369 1004 l 290 356 m 735 1050 q 656 1070 686 1050 q 592 1129 626 1090 q 553 1167 568 1156 q 515 1179 538 1179 q 467 1148 488 1179 q 442 1065 447 1117 l 360 1072 q 413 1220 367 1161 q 531 1279 460 1279 q 597 1259 569 1279 q 656 1203 625 1239 q 699 1159 682 1172 q 738 1146 715 1146 q 806 1264 792 1146 l 886 1257 q 865 1149 886 1196 q 809 1076 843 1101 q 735 1050 775 1050 z "},"V":{"ha":999,"x_min":144,"x_max":1031,"o":"m 1031 1004 l 463 -40 l 458 -40 l 144 1004 l 306 1004 l 506 286 l 872 1004 l 1031 1004 z "},"W":{"ha":1400,"x_min":144,"x_max":1432,"o":"m 908 -44 l 747 556 l 417 -47 l 144 1000 l 301 1000 l 471 271 l 701 725 l 628 1000 l 763 1000 l 953 285 l 1288 1000 l 1432 1000 l 908 -44 z "},"Ẃ":{"ha":1400,"x_min":144,"x_max":1432,"o":"m 908 -44 l 747 556 l 417 -47 l 144 1000 l 301 1000 l 471 271 l 701 725 l 628 1000 l 763 1000 l 953 285 l 1288 1000 l 1432 1000 l 908 -44 m 879 1068 l 796 1068 l 919 1254 l 1063 1254 l 879 1068 z "},"Ŵ":{"ha":1400,"x_min":144,"x_max":1432,"o":"m 908 -44 l 747 556 l 417 -47 l 144 1000 l 301 1000 l 471 271 l 701 725 l 628 1000 l 763 1000 l 953 285 l 1288 1000 l 1432 1000 l 908 -44 m 939 1104 l 846 1233 l 725 1104 l 607 1104 l 861 1357 l 1058 1104 l 939 1104 z "},"Ẅ":{"ha":1400,"x_min":144,"x_max":1432,"o":"m 908 -44 l 747 556 l 417 -47 l 144 1000 l 301 1000 l 471 271 l 701 725 l 628 1000 l 763 1000 l 953 285 l 1288 1000 l 1432 1000 l 908 -44 m 640 1163 q 665 1218 640 1196 q 718 1240 689 1240 q 765 1220 744 1240 q 785 1169 785 1200 q 760 1113 785 1136 q 706 1093 735 1090 q 660 1114 679 1094 q 640 1163 640 1133 m 899 1163 q 923 1218 899 1196 q 976 1240 947 1240 q 1023 1219 1003 1240 q 1043 1169 1043 1199 q 1018 1113 1043 1136 q 964 1093 993 1090 q 918 1114 938 1094 q 899 1163 899 1133 z "},"Ẁ":{"ha":1400,"x_min":144,"x_max":1432,"o":"m 908 -44 l 747 556 l 417 -47 l 144 1000 l 301 1000 l 471 271 l 701 725 l 628 1000 l 763 1000 l 953 285 l 1288 1000 l 1432 1000 l 908 -44 m 872 1104 l 789 1104 l 636 1290 l 781 1290 l 872 1104 z "},"X":{"ha":896,"x_min":-4,"x_max":944,"o":"m 567 508 l 836 0 l 663 0 l 451 400 l 164 0 l -4 0 l 389 518 l 133 1004 l 304 1004 l 507 622 l 781 1004 l 944 1004 l 567 508 z "},"Y":{"ha":961,"x_min":128,"x_max":1011,"o":"m 1011 1004 l 553 335 l 511 0 l 376 0 l 417 335 l 128 1004 l 292 1004 l 507 488 l 844 1004 l 1011 1004 z "},"Ý":{"ha":961,"x_min":128,"x_max":1011,"o":"m 1011 1004 l 553 335 l 511 0 l 376 0 l 417 335 l 128 1004 l 292 1004 l 507 488 l 844 1004 l 1011 1004 m 619 1068 l 536 1068 l 660 1254 l 803 1254 l 619 1068 z "},"Ŷ":{"ha":961,"x_min":128,"x_max":1011,"o":"m 1011 1004 l 553 335 l 511 0 l 376 0 l 417 335 l 128 1004 l 292 1004 l 507 488 l 844 1004 l 1011 1004 m 679 1104 l 586 1233 l 465 1104 l 347 1104 l 601 1357 l 799 1104 l 679 1104 z "},"Ÿ":{"ha":961,"x_min":128,"x_max":1011,"o":"m 1011 1004 l 553 335 l 511 0 l 376 0 l 417 335 l 128 1004 l 292 1004 l 507 488 l 844 1004 l 1011 1004 m 381 1163 q 405 1218 381 1196 q 458 1240 429 1240 q 505 1220 485 1240 q 525 1169 525 1200 q 500 1113 525 1136 q 446 1093 475 1090 q 400 1114 419 1094 q 381 1163 381 1133 m 639 1163 q 663 1218 639 1196 q 717 1240 688 1240 q 763 1219 743 1240 q 783 1169 783 1199 q 758 1113 783 1136 q 704 1093 733 1090 q 658 1114 678 1094 q 639 1163 639 1133 z "},"Ỵ":{"ha":961,"x_min":128,"x_max":1011,"o":"m 1011 1004 l 553 335 l 511 0 l 376 0 l 417 335 l 128 1004 l 292 1004 l 507 488 l 844 1004 l 1011 1004 m 328 -142 q 351 -87 328 -110 q 408 -64 374 -64 q 460 -81 438 -64 q 483 -129 483 -99 q 460 -185 483 -162 q 401 -208 436 -208 q 349 -190 371 -207 q 328 -142 328 -172 z "},"Ỳ":{"ha":961,"x_min":128,"x_max":1011,"o":"m 1011 1004 l 553 335 l 511 0 l 376 0 l 417 335 l 128 1004 l 292 1004 l 507 488 l 844 1004 l 1011 1004 m 613 1104 l 529 1104 l 376 1290 l 521 1290 l 613 1104 z "},"Ỷ":{"ha":961,"x_min":128,"x_max":1011,"o":"m 1011 1004 l 553 335 l 511 0 l 376 0 l 417 335 l 128 1004 l 292 1004 l 507 488 l 844 1004 l 1011 1004 m 543 1107 q 600 1152 583 1133 q 617 1200 617 1171 q 606 1231 617 1219 q 571 1243 594 1243 q 506 1206 536 1244 l 460 1238 q 589 1315 511 1315 q 667 1286 640 1315 q 692 1211 694 1257 q 568 1069 689 1132 l 543 1107 z "},"Ȳ":{"ha":961,"x_min":128,"x_max":1011,"o":"m 1011 1004 l 553 335 l 511 0 l 376 0 l 417 335 l 128 1004 l 292 1004 l 507 488 l 844 1004 l 1011 1004 m 743 1176 l 735 1101 l 411 1101 l 419 1176 l 743 1176 z "},"Ỹ":{"ha":961,"x_min":128,"x_max":1011,"o":"m 1011 1004 l 553 335 l 511 0 l 376 0 l 417 335 l 128 1004 l 292 1004 l 507 488 l 844 1004 l 1011 1004 m 685 1056 q 606 1076 636 1056 q 542 1135 576 1096 q 503 1173 518 1161 q 465 1185 488 1185 q 417 1153 438 1185 q 392 1071 397 1122 l 310 1078 q 363 1226 317 1167 q 481 1285 410 1285 q 547 1265 519 1285 q 606 1208 575 1244 q 649 1165 632 1178 q 688 1151 665 1151 q 756 1269 742 1151 l 836 1263 q 815 1154 836 1201 q 759 1081 793 1107 q 685 1056 725 1056 z "},"Z":{"ha":915,"x_min":7,"x_max":957,"o":"m 261 131 l 867 131 l 850 0 l 7 0 l 699 875 l 285 875 q 207 898 239 875 q 181 960 175 921 l 193 1054 l 318 1054 l 315 1036 q 323 1012 314 1019 q 356 1004 332 1004 l 957 1004 l 261 131 z "},"Ź":{"ha":915,"x_min":7,"x_max":957,"o":"m 261 131 l 867 131 l 850 0 l 7 0 l 699 875 l 285 875 q 207 898 239 875 q 181 960 175 921 l 193 1054 l 318 1054 l 315 1036 q 323 1012 314 1019 q 356 1004 332 1004 l 957 1004 l 261 131 m 639 1068 l 556 1068 l 679 1254 l 822 1254 l 639 1068 z "},"Ž":{"ha":915,"x_min":7,"x_max":957,"o":"m 261 131 l 867 131 l 850 0 l 7 0 l 699 875 l 285 875 q 207 898 239 875 q 181 960 175 921 l 193 1054 l 318 1054 l 315 1036 q 323 1012 314 1019 q 356 1004 332 1004 l 957 1004 l 261 131 m 853 1338 l 597 1085 l 596 1085 l 400 1338 l 519 1338 l 613 1208 l 733 1338 l 853 1338 z "},"Ż":{"ha":915,"x_min":7,"x_max":957,"o":"m 261 131 l 867 131 l 850 0 l 7 0 l 699 875 l 285 875 q 207 898 239 875 q 181 960 175 921 l 193 1054 l 318 1054 l 315 1036 q 323 1012 314 1019 q 356 1004 332 1004 l 957 1004 l 261 131 m 528 1196 q 551 1251 528 1228 q 608 1274 574 1274 q 660 1256 638 1274 q 683 1208 683 1239 q 660 1152 683 1175 q 601 1129 636 1129 q 549 1148 571 1131 q 528 1196 528 1165 z "},"a":{"ha":819,"x_min":61,"x_max":742,"o":"m 742 575 l 672 0 l 542 0 l 553 92 q 456 19 518 51 q 311 -11 393 -12 q 188 22 246 -12 q 96 122 131 57 q 61 268 61 186 q 100 424 61 347 q 212 550 139 501 q 382 599 285 599 q 600 479 538 599 l 622 575 l 742 575 m 583 349 q 525 451 575 411 q 404 492 475 492 q 287 458 333 492 q 218 377 240 425 q 196 283 196 329 q 248 147 196 200 q 382 94 300 94 q 497 132 446 94 q 571 235 549 169 l 583 349 z "},"á":{"ha":819,"x_min":61,"x_max":742,"o":"m 742 575 l 672 0 l 542 0 l 553 92 q 456 19 518 51 q 311 -11 393 -12 q 188 22 246 -12 q 96 122 131 57 q 61 268 61 186 q 100 424 61 347 q 212 550 139 501 q 382 599 285 599 q 600 479 538 599 l 622 575 l 742 575 m 583 349 q 525 451 575 411 q 404 492 475 492 q 287 458 333 492 q 218 377 240 425 q 196 283 196 329 q 248 147 196 200 q 382 94 300 94 q 497 132 446 94 q 571 235 549 169 l 583 349 m 508 667 l 425 667 l 549 853 l 692 853 l 508 667 z "},"ă":{"ha":819,"x_min":61,"x_max":742,"o":"m 742 575 l 672 0 l 542 0 l 553 92 q 456 19 518 51 q 311 -11 393 -12 q 188 22 246 -12 q 96 122 131 57 q 61 268 61 186 q 100 424 61 347 q 212 550 139 501 q 382 599 285 599 q 600 479 538 599 l 622 575 l 742 575 m 583 349 q 525 451 575 411 q 404 492 475 492 q 287 458 333 492 q 218 377 240 425 q 196 283 196 329 q 248 147 196 200 q 382 94 300 94 q 497 132 446 94 q 571 235 549 169 l 583 349 m 467 678 q 328 738 383 678 q 274 931 272 799 l 361 931 q 392 807 360 847 q 471 767 425 767 q 601 931 564 767 l 690 931 q 611 742 669 806 q 467 678 553 678 z "},"ắ":{"ha":819,"x_min":61,"x_max":742,"o":"m 742 575 l 672 0 l 542 0 l 553 92 q 456 19 518 51 q 311 -11 393 -12 q 188 22 246 -12 q 96 122 131 57 q 61 268 61 186 q 100 424 61 347 q 212 550 139 501 q 382 599 285 599 q 600 479 538 599 l 622 575 l 742 575 m 583 349 q 525 451 575 411 q 404 492 475 492 q 287 458 333 492 q 218 377 240 425 q 196 283 196 329 q 248 147 196 200 q 382 94 300 94 q 497 132 446 94 q 571 235 549 169 l 583 349 m 471 699 q 332 759 388 699 q 278 951 276 819 l 365 951 q 397 828 364 868 q 475 788 429 788 q 606 951 568 788 l 694 951 q 615 763 674 826 q 471 699 557 699 m 549 990 l 465 990 l 589 1176 l 732 1176 l 549 990 z "},"ặ":{"ha":819,"x_min":61,"x_max":742,"o":"m 742 575 l 672 0 l 542 0 l 553 92 q 456 19 518 51 q 311 -11 393 -12 q 188 22 246 -12 q 96 122 131 57 q 61 268 61 186 q 100 424 61 347 q 212 550 139 501 q 382 599 285 599 q 600 479 538 599 l 622 575 l 742 575 m 583 349 q 525 451 575 411 q 404 492 475 492 q 287 458 333 492 q 218 377 240 425 q 196 283 196 329 q 248 147 196 200 q 382 94 300 94 q 497 132 446 94 q 571 235 549 169 l 583 349 m 264 -160 q 287 -105 264 -128 q 344 -82 310 -82 q 397 -99 374 -82 q 419 -147 419 -117 q 396 -203 419 -181 q 338 -226 372 -226 q 285 -208 307 -225 q 264 -160 264 -190 m 467 678 q 328 738 383 678 q 274 931 272 799 l 361 931 q 392 807 360 847 q 471 767 425 767 q 601 931 564 767 l 690 931 q 611 742 669 806 q 467 678 553 678 z "},"ằ":{"ha":819,"x_min":61,"x_max":742,"o":"m 742 575 l 672 0 l 542 0 l 553 92 q 456 19 518 51 q 311 -11 393 -12 q 188 22 246 -12 q 96 122 131 57 q 61 268 61 186 q 100 424 61 347 q 212 550 139 501 q 382 599 285 599 q 600 479 538 599 l 622 575 l 742 575 m 583 349 q 525 451 575 411 q 404 492 475 492 q 287 458 333 492 q 218 377 240 425 q 196 283 196 329 q 248 147 196 200 q 382 94 300 94 q 497 132 446 94 q 571 235 549 169 l 583 349 m 465 699 q 326 759 382 699 q 272 951 271 819 l 360 951 q 391 828 358 868 q 469 788 424 788 q 600 951 563 788 l 689 951 q 610 763 668 826 q 465 699 551 699 m 536 981 l 453 981 l 300 1167 l 444 1167 l 536 981 z "},"ẳ":{"ha":819,"x_min":61,"x_max":742,"o":"m 742 575 l 672 0 l 542 0 l 553 92 q 456 19 518 51 q 311 -11 393 -12 q 188 22 246 -12 q 96 122 131 57 q 61 268 61 186 q 100 424 61 347 q 212 550 139 501 q 382 599 285 599 q 600 479 538 599 l 622 575 l 742 575 m 583 349 q 525 451 575 411 q 404 492 475 492 q 287 458 333 492 q 218 377 240 425 q 196 283 196 329 q 248 147 196 200 q 382 94 300 94 q 497 132 446 94 q 571 235 549 169 l 583 349 m 467 678 q 328 738 383 678 q 274 931 272 799 l 361 931 q 392 807 360 847 q 471 767 425 767 q 601 931 564 767 l 690 931 q 611 742 669 806 q 467 678 553 678 m 467 1019 q 524 1065 507 1046 q 540 1113 540 1083 q 529 1144 540 1132 q 494 1156 518 1156 q 429 1118 460 1157 l 383 1150 q 513 1228 435 1228 q 591 1199 564 1228 q 615 1124 618 1169 q 492 982 613 1044 l 467 1019 z "},"ẵ":{"ha":819,"x_min":61,"x_max":742,"o":"m 742 575 l 672 0 l 542 0 l 553 92 q 456 19 518 51 q 311 -11 393 -12 q 188 22 246 -12 q 96 122 131 57 q 61 268 61 186 q 100 424 61 347 q 212 550 139 501 q 382 599 285 599 q 600 479 538 599 l 622 575 l 742 575 m 583 349 q 525 451 575 411 q 404 492 475 492 q 287 458 333 492 q 218 377 240 425 q 196 283 196 329 q 248 147 196 200 q 382 94 300 94 q 497 132 446 94 q 571 235 549 169 l 583 349 m 581 982 q 513 1000 539 982 q 456 1053 486 1018 q 421 1087 435 1076 q 388 1097 407 1097 q 344 1069 363 1097 q 322 996 326 1042 l 249 1003 q 297 1134 256 1082 q 400 1186 338 1186 q 460 1169 436 1186 q 513 1118 485 1151 q 551 1080 536 1092 q 586 1068 565 1068 q 646 1174 635 1068 l 718 1167 q 677 1033 717 1083 q 581 982 638 982 m 453 699 q 314 759 369 699 q 260 951 258 819 l 347 951 q 378 828 346 868 q 457 788 411 788 q 588 951 550 788 l 676 951 q 597 763 656 826 q 453 699 539 699 z "},"â":{"ha":819,"x_min":61,"x_max":742,"o":"m 742 575 l 672 0 l 542 0 l 553 92 q 456 19 518 51 q 311 -11 393 -12 q 188 22 246 -12 q 96 122 131 57 q 61 268 61 186 q 100 424 61 347 q 212 550 139 501 q 382 599 285 599 q 600 479 538 599 l 622 575 l 742 575 m 583 349 q 525 451 575 411 q 404 492 475 492 q 287 458 333 492 q 218 377 240 425 q 196 283 196 329 q 248 147 196 200 q 382 94 300 94 q 497 132 446 94 q 571 235 549 169 l 583 349 m 568 704 l 475 833 l 354 704 l 236 704 l 490 957 l 688 704 l 568 704 z "},"ấ":{"ha":819,"x_min":61,"x_max":822,"o":"m 742 575 l 672 0 l 542 0 l 553 92 q 456 19 518 51 q 311 -11 393 -12 q 188 22 246 -12 q 96 122 131 57 q 61 268 61 186 q 100 424 61 347 q 212 550 139 501 q 382 599 285 599 q 600 479 538 599 l 622 575 l 742 575 m 583 349 q 525 451 575 411 q 404 492 475 492 q 287 458 333 492 q 218 377 240 425 q 196 283 196 329 q 248 147 196 200 q 382 94 300 94 q 497 132 446 94 q 571 235 549 169 l 583 349 m 525 704 l 432 833 l 311 704 l 193 704 l 447 957 l 644 704 l 525 704 m 639 854 l 556 854 l 679 1040 l 822 1040 l 639 854 z "},"ậ":{"ha":819,"x_min":61,"x_max":742,"o":"m 742 575 l 672 0 l 542 0 l 553 92 q 456 19 518 51 q 311 -11 393 -12 q 188 22 246 -12 q 96 122 131 57 q 61 268 61 186 q 100 424 61 347 q 212 550 139 501 q 382 599 285 599 q 600 479 538 599 l 622 575 l 742 575 m 583 349 q 525 451 575 411 q 404 492 475 492 q 287 458 333 492 q 218 377 240 425 q 196 283 196 329 q 248 147 196 200 q 382 94 300 94 q 497 132 446 94 q 571 235 549 169 l 583 349 m 264 -160 q 287 -105 264 -128 q 344 -82 310 -82 q 397 -99 374 -82 q 419 -147 419 -117 q 396 -203 419 -181 q 338 -226 372 -226 q 285 -208 307 -225 q 264 -160 264 -190 m 568 704 l 475 833 l 354 704 l 236 704 l 490 957 l 688 704 l 568 704 z "},"ầ":{"ha":819,"x_min":61,"x_max":742,"o":"m 742 575 l 672 0 l 542 0 l 553 92 q 456 19 518 51 q 311 -11 393 -12 q 188 22 246 -12 q 96 122 131 57 q 61 268 61 186 q 100 424 61 347 q 212 550 139 501 q 382 599 285 599 q 600 479 538 599 l 622 575 l 742 575 m 583 349 q 525 451 575 411 q 404 492 475 492 q 287 458 333 492 q 218 377 240 425 q 196 283 196 329 q 248 147 196 200 q 382 94 300 94 q 497 132 446 94 q 571 235 549 169 l 583 349 m 565 672 l 472 801 l 351 672 l 233 672 l 488 925 l 685 672 l 565 672 m 339 825 l 256 825 l 103 1011 l 247 1011 l 339 825 z "},"ẩ":{"ha":819,"x_min":61,"x_max":786,"o":"m 742 575 l 672 0 l 542 0 l 553 92 q 456 19 518 51 q 311 -11 393 -12 q 188 22 246 -12 q 96 122 131 57 q 61 268 61 186 q 100 424 61 347 q 212 550 139 501 q 382 599 285 599 q 600 479 538 599 l 622 575 l 742 575 m 583 349 q 525 451 575 411 q 404 492 475 492 q 287 458 333 492 q 218 377 240 425 q 196 283 196 329 q 248 147 196 200 q 382 94 300 94 q 497 132 446 94 q 571 235 549 169 l 583 349 m 554 672 l 461 801 l 340 672 l 222 672 l 476 925 l 674 672 l 554 672 m 638 854 q 694 899 678 881 q 711 947 711 918 q 700 978 711 967 q 665 990 689 990 q 600 953 631 992 l 554 985 q 683 1063 606 1063 q 762 1033 735 1063 q 786 958 789 1004 q 663 817 783 879 l 638 854 z "},"ẫ":{"ha":819,"x_min":61,"x_max":746,"o":"m 742 575 l 672 0 l 542 0 l 553 92 q 456 19 518 51 q 311 -11 393 -12 q 188 22 246 -12 q 96 122 131 57 q 61 268 61 186 q 100 424 61 347 q 212 550 139 501 q 382 599 285 599 q 600 479 538 599 l 622 575 l 742 575 m 583 349 q 525 451 575 411 q 404 492 475 492 q 287 458 333 492 q 218 377 240 425 q 196 283 196 329 q 248 147 196 200 q 382 94 300 94 q 497 132 446 94 q 571 235 549 169 l 583 349 m 415 1081 q 372 1053 390 1081 q 350 979 354 1025 l 276 986 q 324 1117 283 1065 q 428 1169 365 1169 q 488 1152 464 1169 q 540 1101 513 1135 q 578 1063 564 1075 q 614 1051 593 1051 q 674 1157 663 1051 l 746 1150 q 705 1016 744 1067 q 608 965 665 965 q 540 983 567 965 q 483 1036 514 1001 q 449 1070 463 1060 q 415 1081 435 1081 m 494 921 l 692 668 l 572 668 l 479 797 l 358 668 l 240 668 l 494 921 z "},"ȁ":{"ha":819,"x_min":61,"x_max":742,"o":"m 742 575 l 672 0 l 542 0 l 553 92 q 456 19 518 51 q 311 -11 393 -12 q 188 22 246 -12 q 96 122 131 57 q 61 268 61 186 q 100 424 61 347 q 212 550 139 501 q 382 599 285 599 q 600 479 538 599 l 622 575 l 742 575 m 583 349 q 525 451 575 411 q 404 492 475 492 q 287 458 333 492 q 218 377 240 425 q 196 283 196 329 q 248 147 196 200 q 382 94 300 94 q 497 132 446 94 q 571 235 549 169 l 583 349 m 428 704 l 344 704 l 192 890 l 336 890 l 428 704 m 615 704 l 532 704 l 379 890 l 524 890 l 615 704 z "},"ä":{"ha":819,"x_min":61,"x_max":742,"o":"m 742 575 l 672 0 l 542 0 l 553 92 q 456 19 518 51 q 311 -11 393 -12 q 188 22 246 -12 q 96 122 131 57 q 61 268 61 186 q 100 424 61 347 q 212 550 139 501 q 382 599 285 599 q 600 479 538 599 l 622 575 l 742 575 m 583 349 q 525 451 575 411 q 404 492 475 492 q 287 458 333 492 q 218 377 240 425 q 196 283 196 329 q 248 147 196 200 q 382 94 300 94 q 497 132 446 94 q 571 235 549 169 l 583 349 m 269 763 q 294 818 269 796 q 347 840 318 840 q 394 820 374 840 q 414 769 414 800 q 389 713 414 736 q 335 693 364 690 q 289 714 308 694 q 269 763 269 733 m 528 763 q 552 818 528 796 q 606 840 576 840 q 652 819 632 840 q 672 769 672 799 q 647 713 672 736 q 593 693 622 690 q 547 714 567 694 q 528 763 528 733 z "},"ạ":{"ha":819,"x_min":61,"x_max":742,"o":"m 742 575 l 672 0 l 542 0 l 553 92 q 456 19 518 51 q 311 -11 393 -12 q 188 22 246 -12 q 96 122 131 57 q 61 268 61 186 q 100 424 61 347 q 212 550 139 501 q 382 599 285 599 q 600 479 538 599 l 622 575 l 742 575 m 583 349 q 525 451 575 411 q 404 492 475 492 q 287 458 333 492 q 218 377 240 425 q 196 283 196 329 q 248 147 196 200 q 382 94 300 94 q 497 132 446 94 q 571 235 549 169 l 583 349 m 264 -160 q 287 -105 264 -128 q 344 -82 310 -82 q 397 -99 374 -82 q 419 -147 419 -117 q 396 -203 419 -181 q 338 -226 372 -226 q 285 -208 307 -225 q 264 -160 264 -190 z "},"à":{"ha":819,"x_min":61,"x_max":742,"o":"m 742 575 l 672 0 l 542 0 l 553 92 q 456 19 518 51 q 311 -11 393 -12 q 188 22 246 -12 q 96 122 131 57 q 61 268 61 186 q 100 424 61 347 q 212 550 139 501 q 382 599 285 599 q 600 479 538 599 l 622 575 l 742 575 m 583 349 q 525 451 575 411 q 404 492 475 492 q 287 458 333 492 q 218 377 240 425 q 196 283 196 329 q 248 147 196 200 q 382 94 300 94 q 497 132 446 94 q 571 235 549 169 l 583 349 m 501 704 l 418 704 l 265 890 l 410 890 l 501 704 z "},"ả":{"ha":819,"x_min":61,"x_max":742,"o":"m 742 575 l 672 0 l 542 0 l 553 92 q 456 19 518 51 q 311 -11 393 -12 q 188 22 246 -12 q 96 122 131 57 q 61 268 61 186 q 100 424 61 347 q 212 550 139 501 q 382 599 285 599 q 600 479 538 599 l 622 575 l 742 575 m 583 349 q 525 451 575 411 q 404 492 475 492 q 287 458 333 492 q 218 377 240 425 q 196 283 196 329 q 248 147 196 200 q 382 94 300 94 q 497 132 446 94 q 571 235 549 169 l 583 349 m 432 707 q 489 752 472 733 q 506 800 506 771 q 494 831 506 819 q 460 843 483 843 q 394 806 425 844 l 349 838 q 478 915 400 915 q 556 886 529 915 q 581 811 583 857 q 457 669 578 732 l 432 707 z "},"ȃ":{"ha":819,"x_min":61,"x_max":742,"o":"m 742 575 l 672 0 l 542 0 l 553 92 q 456 19 518 51 q 311 -11 393 -12 q 188 22 246 -12 q 96 122 131 57 q 61 268 61 186 q 100 424 61 347 q 212 550 139 501 q 382 599 285 599 q 600 479 538 599 l 622 575 l 742 575 m 583 349 q 525 451 575 411 q 404 492 475 492 q 287 458 333 492 q 218 377 240 425 q 196 283 196 329 q 248 147 196 200 q 382 94 300 94 q 497 132 446 94 q 571 235 549 169 l 583 349 m 476 908 q 615 848 560 908 q 669 656 671 788 l 582 656 q 551 779 583 739 q 472 819 518 819 q 342 656 379 819 l 253 656 q 332 844 274 781 q 476 908 390 908 z "},"ā":{"ha":819,"x_min":61,"x_max":742,"o":"m 742 575 l 672 0 l 542 0 l 553 92 q 456 19 518 51 q 311 -11 393 -12 q 188 22 246 -12 q 96 122 131 57 q 61 268 61 186 q 100 424 61 347 q 212 550 139 501 q 382 599 285 599 q 600 479 538 599 l 622 575 l 742 575 m 583 349 q 525 451 575 411 q 404 492 475 492 q 287 458 333 492 q 218 377 240 425 q 196 283 196 329 q 248 147 196 200 q 382 94 300 94 q 497 132 446 94 q 571 235 549 169 l 583 349 m 632 776 l 624 701 l 300 701 l 308 776 l 632 776 z "},"ą":{"ha":819,"x_min":61,"x_max":742,"o":"m 603 -204 q 700 -142 653 -204 l 742 -210 q 670 -272 714 -249 q 583 -296 626 -296 q 472 -255 517 -296 q 428 -151 428 -214 q 457 -62 428 -107 q 543 11 486 -17 l 553 92 q 456 19 518 51 q 311 -11 393 -12 q 188 22 246 -12 q 96 122 131 57 q 61 268 61 186 q 100 424 61 347 q 212 550 139 501 q 382 599 285 599 q 600 479 538 599 l 622 575 l 742 575 l 672 3 l 707 -3 q 580 -67 622 -35 q 538 -139 538 -100 q 556 -187 538 -171 q 603 -204 575 -204 m 382 94 q 497 132 446 94 q 571 235 549 169 l 583 349 q 525 451 575 411 q 404 492 475 492 q 287 458 333 492 q 218 377 240 425 q 196 283 196 329 q 248 147 196 200 q 382 94 300 94 z "},"å":{"ha":819,"x_min":61,"x_max":742,"o":"m 742 575 l 672 0 l 542 0 l 553 92 q 456 19 518 51 q 311 -11 393 -12 q 188 22 246 -12 q 96 122 131 57 q 61 268 61 186 q 100 424 61 347 q 212 550 139 501 q 382 599 285 599 q 600 479 538 599 l 622 575 l 742 575 m 583 349 q 525 451 575 411 q 404 492 475 492 q 287 458 333 492 q 218 377 240 425 q 196 283 196 329 q 248 147 196 200 q 382 94 300 94 q 497 132 446 94 q 571 235 549 169 l 583 349 m 344 757 q 383 853 344 817 q 481 890 422 890 q 570 858 536 890 q 604 775 604 826 q 565 678 604 715 q 468 642 525 642 q 379 674 414 642 q 344 757 344 707 m 415 763 q 430 721 415 736 q 469 703 444 706 q 516 722 497 703 q 535 769 535 740 q 519 811 535 796 q 479 826 504 826 q 434 809 453 826 q 415 763 415 792 z "},"ǻ":{"ha":819,"x_min":61,"x_max":742,"o":"m 742 575 l 672 0 l 542 0 l 553 92 q 456 19 518 51 q 311 -11 393 -12 q 188 22 246 -12 q 96 122 131 57 q 61 268 61 186 q 100 424 61 347 q 212 550 139 501 q 382 599 285 599 q 600 479 538 599 l 622 575 l 742 575 m 583 349 q 525 451 575 411 q 404 492 475 492 q 287 458 333 492 q 218 377 240 425 q 196 283 196 329 q 248 147 196 200 q 382 94 300 94 q 497 132 446 94 q 571 235 549 169 l 583 349 m 344 757 q 383 853 344 817 q 481 890 422 890 q 570 858 536 890 q 604 775 604 826 q 565 678 604 715 q 468 642 525 642 q 379 674 414 642 q 344 757 344 707 m 415 763 q 430 721 415 736 q 469 703 444 706 q 516 722 497 703 q 535 769 535 740 q 519 811 535 796 q 479 826 504 826 q 434 809 453 826 q 415 763 415 792 m 544 953 l 461 953 l 585 1139 l 728 1139 l 544 953 z "},"ã":{"ha":819,"x_min":61,"x_max":742,"o":"m 742 575 l 672 0 l 542 0 l 553 92 q 456 19 518 51 q 311 -11 393 -12 q 188 22 246 -12 q 96 122 131 57 q 61 268 61 186 q 100 424 61 347 q 212 550 139 501 q 382 599 285 599 q 600 479 538 599 l 622 575 l 742 575 m 583 349 q 525 451 575 411 q 404 492 475 492 q 287 458 333 492 q 218 377 240 425 q 196 283 196 329 q 248 147 196 200 q 382 94 300 94 q 497 132 446 94 q 571 235 549 169 l 583 349 m 574 656 q 495 676 525 656 q 431 735 465 696 q 392 773 407 761 q 354 785 376 785 q 306 753 326 785 q 281 671 286 722 l 199 678 q 252 826 206 767 q 369 885 299 885 q 436 865 408 885 q 494 808 464 844 q 538 765 521 778 q 576 751 554 751 q 644 869 631 751 l 725 863 q 703 754 725 801 q 648 681 682 707 q 574 656 614 656 z "},"æ":{"ha":1119,"x_min":47,"x_max":1076,"o":"m 769 97 q 901 139 838 97 l 950 40 q 760 -14 856 -14 q 625 13 694 -14 q 513 96 556 40 l 510 75 q 405 7 467 29 q 275 -15 343 -15 q 114 31 181 -15 q 47 157 47 76 q 72 245 47 203 q 149 315 96 288 q 283 342 203 342 q 450 301 382 342 l 458 358 q 460 382 460 367 q 422 467 460 444 q 332 490 383 490 q 157 411 239 490 l 101 497 q 357 597 214 597 q 474 576 415 597 q 564 507 532 554 q 672 574 611 550 q 799 597 732 597 q 983 535 904 597 q 1076 331 1063 472 l 593 231 q 661 132 610 167 q 769 97 713 97 m 781 494 q 654 443 707 494 q 590 310 601 392 l 590 307 l 936 382 q 877 465 918 436 q 781 494 836 494 m 454 299 l 460 296 l 460 301 l 454 299 m 311 76 q 391 93 351 76 q 457 136 431 110 l 464 190 q 307 250 394 250 q 218 222 247 250 q 192 157 189 194 q 226 96 193 115 q 311 76 260 76 z "},"ǽ":{"ha":1119,"x_min":47,"x_max":1076,"o":"m 769 97 q 901 139 838 97 l 950 40 q 760 -14 856 -14 q 625 13 694 -14 q 513 96 556 40 l 510 75 q 405 7 467 29 q 275 -15 343 -15 q 114 31 181 -15 q 47 157 47 76 q 72 245 47 203 q 149 315 96 288 q 283 342 203 342 q 450 301 382 342 l 458 358 q 460 382 460 367 q 422 467 460 444 q 332 490 383 490 q 157 411 239 490 l 101 497 q 357 597 214 597 q 474 576 415 597 q 564 507 532 554 q 672 574 611 550 q 799 597 732 597 q 983 535 904 597 q 1076 331 1063 472 l 593 231 q 661 132 610 167 q 769 97 713 97 m 781 494 q 654 443 707 494 q 590 310 601 392 l 590 307 l 936 382 q 877 465 918 436 q 781 494 836 494 m 454 299 l 460 296 l 460 301 l 454 299 m 311 76 q 391 93 351 76 q 457 136 431 110 l 464 190 q 307 250 394 250 q 218 222 247 250 q 192 157 189 194 q 226 96 193 115 q 311 76 260 76 m 654 638 l 571 638 l 694 824 l 838 824 l 654 638 z "},"b":{"ha":826,"x_min":76,"x_max":765,"o":"m 493 599 q 631 565 569 599 q 729 467 693 532 q 765 313 765 403 q 726 153 765 228 q 611 32 686 78 q 435 -14 536 -14 q 308 16 363 -14 q 218 96 253 46 l 207 0 l 76 0 l 208 1076 l 338 1076 l 268 501 q 365 572 306 546 q 493 599 424 599 m 421 97 q 540 129 493 97 q 610 208 588 161 q 632 304 632 256 q 583 444 632 392 q 447 496 533 496 q 328 459 381 496 q 251 363 276 422 l 236 246 q 297 141 254 185 q 421 97 339 97 z "},"c":{"ha":640,"x_min":61,"x_max":613,"o":"m 551 39 q 460 -1 511 14 q 358 -15 408 -15 q 224 13 292 -15 q 108 105 156 42 q 61 263 61 168 q 100 419 61 344 q 211 540 139 493 q 381 588 283 588 q 613 501 524 588 l 538 421 q 473 463 511 446 q 389 479 435 479 q 292 452 338 479 q 219 377 246 425 q 192 271 192 329 q 244 143 192 194 q 381 92 297 92 q 496 125 443 92 l 551 39 z "},"ć":{"ha":606,"x_min":61,"x_max":613,"o":"m 551 39 q 460 -1 511 14 q 358 -15 408 -15 q 224 13 292 -15 q 108 105 156 42 q 61 263 61 168 q 100 419 61 344 q 211 540 139 493 q 381 588 283 588 q 613 501 524 588 l 538 421 q 473 463 511 446 q 389 479 435 479 q 292 452 338 479 q 219 377 246 425 q 192 271 192 329 q 244 143 192 194 q 381 92 297 92 q 496 125 443 92 l 551 39 m 385 675 l 301 675 l 425 861 l 568 861 l 385 675 z "},"č":{"ha":606,"x_min":61,"x_max":679,"o":"m 551 39 q 460 -1 511 14 q 358 -15 408 -15 q 224 13 292 -15 q 108 105 156 42 q 61 263 61 168 q 100 419 61 344 q 211 540 139 493 q 381 588 283 588 q 613 501 524 588 l 538 421 q 473 463 511 446 q 389 479 435 479 q 292 452 338 479 q 219 377 246 425 q 192 271 192 329 q 244 143 192 194 q 381 92 297 92 q 496 125 443 92 l 551 39 m 679 928 l 424 675 l 422 675 l 226 928 l 346 928 l 439 799 l 560 928 l 679 928 z "},"ç":{"ha":606,"x_min":90,"x_max":622,"o":"m 561 54 q 367 -14 469 -12 q 372 -51 364 -39 q 394 -72 381 -64 q 415 -86 408 -81 q 457 -179 457 -119 q 411 -301 457 -250 q 289 -353 365 -353 q 203 -326 240 -353 q 156 -246 167 -299 l 225 -212 q 246 -251 228 -236 q 290 -265 264 -265 q 349 -240 326 -265 q 371 -178 371 -214 q 361 -144 371 -157 q 333 -117 351 -132 q 299 -80 310 -97 q 292 -31 288 -62 l 294 -7 q 147 89 204 15 q 90 258 90 163 q 138 424 90 347 q 265 545 186 500 q 435 590 344 590 q 622 524 542 590 l 542 442 q 422 483 496 483 q 310 455 361 483 q 229 377 258 426 q 200 268 200 328 q 249 144 200 194 q 374 94 297 94 q 504 136 447 94 q 519 115 513 125 q 533 96 526 104 q 561 54 542 82 z "},"ĉ":{"ha":640,"x_min":61,"x_max":613,"o":"m 551 39 q 460 -1 511 14 q 358 -15 408 -15 q 224 13 292 -15 q 108 105 156 42 q 61 263 61 168 q 100 419 61 344 q 211 540 139 493 q 381 588 283 588 q 613 501 524 588 l 538 421 q 473 463 511 446 q 389 479 435 479 q 292 452 338 479 q 219 377 246 425 q 192 271 192 329 q 244 143 192 194 q 381 92 297 92 q 496 125 443 92 l 551 39 m 481 688 l 388 817 l 267 688 l 149 688 l 403 940 l 600 688 l 481 688 z "},"ċ":{"ha":640,"x_min":61,"x_max":613,"o":"m 551 39 q 460 -1 511 14 q 358 -15 408 -15 q 224 13 292 -15 q 108 105 156 42 q 61 263 61 168 q 100 419 61 344 q 211 540 139 493 q 381 588 283 588 q 613 501 524 588 l 538 421 q 473 463 511 446 q 389 479 435 479 q 292 452 338 479 q 219 377 246 425 q 192 271 192 329 q 244 143 192 194 q 381 92 297 92 q 496 125 443 92 l 551 39 m 310 778 q 333 833 310 810 q 390 856 356 856 q 442 838 419 856 q 465 790 465 821 q 442 734 465 757 q 383 711 418 711 q 331 730 353 713 q 310 778 310 747 z "},"d":{"ha":826,"x_min":63,"x_max":811,"o":"m 811 1076 l 678 0 l 549 0 l 558 86 q 346 -12 460 -12 q 201 25 265 -12 q 99 126 136 63 q 63 267 63 190 q 103 428 63 351 q 220 551 144 504 q 394 599 296 599 q 519 572 463 599 q 611 500 576 544 l 682 1076 l 811 1076 m 592 350 q 532 455 583 414 q 406 496 481 496 q 256 438 315 496 q 196 286 196 379 q 249 151 196 204 q 386 99 301 99 q 503 138 450 99 q 579 240 556 176 l 592 350 z "},"ð":{"ha":758,"x_min":64,"x_max":707,"o":"m 564 868 q 670 638 633 758 q 707 406 707 518 q 668 203 707 299 q 549 47 629 107 q 353 -12 469 -12 q 225 15 292 -12 q 111 109 158 42 q 64 288 64 176 q 99 438 64 365 q 201 555 133 510 q 364 600 269 600 q 476 574 422 600 q 564 497 529 547 q 446 806 544 661 l 315 738 l 282 826 l 388 882 q 286 988 351 925 l 392 1067 q 508 944 458 1008 l 636 1011 l 667 922 l 564 868 m 563 311 q 531 419 563 379 q 458 475 499 460 q 385 490 417 490 q 276 458 321 490 q 211 376 232 425 q 190 278 190 326 q 217 174 190 215 q 284 115 244 133 q 364 94 324 96 q 474 128 429 94 q 540 213 518 163 q 563 311 563 264 z "},"ď":{"ha":906,"x_min":63,"x_max":1015,"o":"m 811 1076 l 678 0 l 549 0 l 558 86 q 346 -12 460 -12 q 201 25 265 -12 q 99 126 136 63 q 63 267 63 190 q 103 428 63 351 q 220 551 144 504 q 394 599 296 599 q 519 572 463 599 q 611 500 576 544 l 682 1076 l 811 1076 m 592 350 q 532 455 583 414 q 406 496 481 496 q 256 438 315 496 q 196 286 196 379 q 249 151 196 204 q 386 99 301 99 q 503 138 450 99 q 579 240 556 176 l 592 350 m 874 831 q 926 901 908 860 q 940 990 943 942 l 1014 1000 q 996 890 1019 943 q 926 797 972 836 l 874 831 z "},"đ":{"ha":781,"x_min":63,"x_max":867,"o":"m 856 843 l 782 843 l 678 0 l 549 0 l 558 86 q 346 -12 460 -12 q 201 25 265 -12 q 99 126 136 63 q 63 267 63 190 q 103 428 63 351 q 220 551 144 504 q 394 599 296 599 q 519 572 463 599 q 611 500 576 544 l 654 843 l 442 843 l 453 938 l 665 938 l 682 1076 l 811 1076 l 794 938 l 867 938 l 856 843 m 592 350 q 532 455 583 414 q 406 496 481 496 q 256 438 315 496 q 196 286 196 379 q 249 151 196 204 q 386 99 301 99 q 503 138 450 99 q 579 240 556 176 l 592 350 z "},"ǳ":{"ha":1469,"x_min":63,"x_max":1435,"o":"m 811 1076 l 678 0 l 549 0 l 558 86 q 346 -12 460 -12 q 201 25 265 -12 q 99 126 136 63 q 63 267 63 190 q 103 428 63 351 q 220 551 144 504 q 394 599 296 599 q 519 572 463 599 q 611 500 576 544 l 682 1076 l 811 1076 m 592 350 q 532 455 583 414 q 406 496 481 496 q 256 438 315 496 q 196 286 196 379 q 249 151 196 204 q 386 99 301 99 q 503 138 450 99 q 579 240 556 176 l 592 350 m 1051 107 l 1374 107 l 1360 0 l 829 0 l 1210 468 l 1018 468 q 947 491 974 468 q 921 557 921 514 q 922 575 921 569 l 928 631 l 1026 631 l 1026 613 q 1032 583 1024 590 q 1067 575 1040 575 l 1435 575 l 1051 107 z "},"ǆ":{"ha":1497,"x_min":63,"x_max":1500,"o":"m 811 1076 l 678 0 l 549 0 l 558 86 q 346 -12 460 -12 q 201 25 265 -12 q 99 126 136 63 q 63 267 63 190 q 103 428 63 351 q 220 551 144 504 q 394 599 296 599 q 519 572 463 599 q 611 500 576 544 l 682 1076 l 811 1076 m 592 350 q 532 455 583 414 q 406 496 481 496 q 256 438 315 496 q 196 286 196 379 q 249 151 196 204 q 386 99 301 99 q 503 138 450 99 q 579 240 556 176 l 592 350 m 1051 107 l 1374 107 l 1360 0 l 829 0 l 1210 468 l 1018 468 q 947 491 974 468 q 921 557 921 514 q 922 575 921 569 l 928 631 l 1026 631 l 1026 613 q 1032 583 1024 590 q 1067 575 1040 575 l 1435 575 l 1051 107 m 1500 928 l 1244 675 l 1243 675 l 1047 928 l 1167 928 l 1260 799 l 1381 928 l 1500 928 z "},"e":{"ha":725,"x_min":63,"x_max":682,"o":"m 379 97 q 506 140 442 97 l 554 40 q 462 1 511 15 q 365 -12 413 -12 q 145 65 228 -12 q 63 279 63 142 q 101 431 63 357 q 215 551 139 504 q 394 597 290 597 q 583 535 507 597 q 682 331 660 472 l 211 199 q 280 123 235 149 q 379 97 325 97 m 390 494 q 285 467 331 494 q 216 393 240 439 q 192 293 192 347 l 192 279 l 540 378 q 485 463 525 431 q 390 494 444 494 z "},"é":{"ha":614,"x_min":63,"x_max":682,"o":"m 379 97 q 506 140 442 97 l 554 40 q 462 1 511 15 q 365 -12 413 -12 q 145 65 228 -12 q 63 279 63 142 q 101 431 63 357 q 215 551 139 504 q 394 597 290 597 q 583 535 507 597 q 682 331 660 472 l 211 199 q 280 123 235 149 q 379 97 325 97 m 390 494 q 285 467 331 494 q 216 393 240 439 q 192 293 192 347 l 192 279 l 540 378 q 485 463 525 431 q 390 494 444 494 m 396 675 l 313 675 l 436 861 l 579 861 l 396 675 z "},"ĕ":{"ha":725,"x_min":63,"x_max":682,"o":"m 379 97 q 506 140 442 97 l 554 40 q 462 1 511 15 q 365 -12 413 -12 q 145 65 228 -12 q 63 279 63 142 q 101 431 63 357 q 215 551 139 504 q 394 597 290 597 q 583 535 507 597 q 682 331 660 472 l 211 199 q 280 123 235 149 q 379 97 325 97 m 390 494 q 285 467 331 494 q 216 393 240 439 q 192 293 192 347 l 192 279 l 540 378 q 485 463 525 431 q 390 494 444 494 m 413 688 q 274 748 329 688 q 219 940 218 808 l 307 940 q 338 817 306 857 q 417 776 371 776 q 547 940 510 776 l 636 940 q 557 751 615 815 q 413 688 499 688 z "},"ě":{"ha":676,"x_min":63,"x_max":682,"o":"m 379 97 q 506 140 442 97 l 554 40 q 462 1 511 15 q 365 -12 413 -12 q 145 65 228 -12 q 63 279 63 142 q 101 431 63 357 q 215 551 139 504 q 394 597 290 597 q 583 535 507 597 q 682 331 660 472 l 211 199 q 280 123 235 149 q 379 97 325 97 m 390 494 q 285 467 331 494 q 216 393 240 439 q 192 293 192 347 l 192 279 l 540 378 q 485 463 525 431 q 390 494 444 494 m 667 928 l 411 675 l 410 675 l 214 928 l 333 928 l 426 799 l 547 928 l 667 928 z "},"ê":{"ha":725,"x_min":63,"x_max":682,"o":"m 379 97 q 506 140 442 97 l 554 40 q 462 1 511 15 q 365 -12 413 -12 q 145 65 228 -12 q 63 279 63 142 q 101 431 63 357 q 215 551 139 504 q 394 597 290 597 q 583 535 507 597 q 682 331 660 472 l 211 199 q 280 123 235 149 q 379 97 325 97 m 390 494 q 285 467 331 494 q 216 393 240 439 q 192 293 192 347 l 192 279 l 540 378 q 485 463 525 431 q 390 494 444 494 m 514 714 l 421 843 l 300 714 l 182 714 l 436 967 l 633 714 l 514 714 z "},"ế":{"ha":725,"x_min":63,"x_max":768,"o":"m 379 97 q 506 140 442 97 l 554 40 q 462 1 511 15 q 365 -12 413 -12 q 145 65 228 -12 q 63 279 63 142 q 101 431 63 357 q 215 551 139 504 q 394 597 290 597 q 583 535 507 597 q 682 331 660 472 l 211 199 q 280 123 235 149 q 379 97 325 97 m 390 494 q 285 467 331 494 q 216 393 240 439 q 192 293 192 347 l 192 279 l 540 378 q 485 463 525 431 q 390 494 444 494 m 471 714 l 378 843 l 257 714 l 139 714 l 393 967 l 590 714 l 471 714 m 585 864 l 501 864 l 625 1050 l 768 1050 l 585 864 z "},"ệ":{"ha":725,"x_min":63,"x_max":682,"o":"m 379 97 q 506 140 442 97 l 554 40 q 462 1 511 15 q 365 -12 413 -12 q 145 65 228 -12 q 63 279 63 142 q 101 431 63 357 q 215 551 139 504 q 394 597 290 597 q 583 535 507 597 q 682 331 660 472 l 211 199 q 280 123 235 149 q 379 97 325 97 m 390 494 q 285 467 331 494 q 216 393 240 439 q 192 293 192 347 l 192 279 l 540 378 q 485 463 525 431 q 390 494 444 494 m 229 -160 q 252 -105 229 -128 q 310 -82 275 -82 q 362 -99 339 -82 q 385 -147 385 -117 q 361 -203 385 -181 q 303 -226 338 -226 q 251 -208 272 -225 q 229 -160 229 -190 m 514 714 l 421 843 l 300 714 l 182 714 l 436 967 l 633 714 l 514 714 z "},"ề":{"ha":725,"x_min":49,"x_max":682,"o":"m 379 97 q 506 140 442 97 l 554 40 q 462 1 511 15 q 365 -12 413 -12 q 145 65 228 -12 q 63 279 63 142 q 101 431 63 357 q 215 551 139 504 q 394 597 290 597 q 583 535 507 597 q 682 331 660 472 l 211 199 q 280 123 235 149 q 379 97 325 97 m 390 494 q 285 467 331 494 q 216 393 240 439 q 192 293 192 347 l 192 279 l 540 378 q 485 463 525 431 q 390 494 444 494 m 511 683 l 418 813 l 297 683 l 179 683 l 433 936 l 631 683 l 511 683 m 285 836 l 201 836 l 49 1022 l 193 1022 l 285 836 z "},"ể":{"ha":725,"x_min":63,"x_max":732,"o":"m 379 97 q 506 140 442 97 l 554 40 q 462 1 511 15 q 365 -12 413 -12 q 145 65 228 -12 q 63 279 63 142 q 101 431 63 357 q 215 551 139 504 q 394 597 290 597 q 583 535 507 597 q 682 331 660 472 l 211 199 q 280 123 235 149 q 379 97 325 97 m 390 494 q 285 467 331 494 q 216 393 240 439 q 192 293 192 347 l 192 279 l 540 378 q 485 463 525 431 q 390 494 444 494 m 500 683 l 407 813 l 286 683 l 168 683 l 422 936 l 619 683 l 500 683 m 583 865 q 640 910 624 892 q 657 958 657 929 q 646 990 657 978 q 611 1001 635 1001 q 546 964 576 1003 l 500 996 q 629 1074 551 1074 q 708 1044 681 1074 q 732 969 735 1015 q 608 828 729 890 l 583 865 z "},"ễ":{"ha":725,"x_min":63,"x_max":715,"o":"m 379 97 q 506 140 442 97 l 554 40 q 462 1 511 15 q 365 -12 413 -12 q 145 65 228 -12 q 63 279 63 142 q 101 431 63 357 q 215 551 139 504 q 394 597 290 597 q 583 535 507 597 q 682 331 660 472 l 211 199 q 280 123 235 149 q 379 97 325 97 m 390 494 q 285 467 331 494 q 216 393 240 439 q 192 293 192 347 l 192 279 l 540 378 q 485 463 525 431 q 390 494 444 494 m 514 714 l 421 843 l 300 714 l 182 714 l 436 967 l 633 714 l 514 714 m 564 1018 q 485 1038 515 1018 q 421 1097 456 1058 q 382 1135 397 1124 q 344 1147 367 1147 q 297 1116 317 1147 q 271 1033 276 1085 l 189 1040 q 242 1188 196 1129 q 360 1247 289 1247 q 426 1227 399 1247 q 485 1171 454 1207 q 528 1127 511 1140 q 567 1114 544 1114 q 635 1232 621 1114 l 715 1225 q 694 1117 715 1164 q 638 1044 672 1069 q 564 1018 604 1018 z "},"ȅ":{"ha":725,"x_min":63,"x_max":682,"o":"m 379 97 q 506 140 442 97 l 554 40 q 462 1 511 15 q 365 -12 413 -12 q 145 65 228 -12 q 63 279 63 142 q 101 431 63 357 q 215 551 139 504 q 394 597 290 597 q 583 535 507 597 q 682 331 660 472 l 211 199 q 280 123 235 149 q 379 97 325 97 m 390 494 q 285 467 331 494 q 216 393 240 439 q 192 293 192 347 l 192 279 l 540 378 q 485 463 525 431 q 390 494 444 494 m 374 714 l 290 714 l 138 900 l 282 900 l 374 714 m 561 714 l 478 714 l 325 900 l 469 900 l 561 714 z "},"ë":{"ha":725,"x_min":63,"x_max":682,"o":"m 379 97 q 506 140 442 97 l 554 40 q 462 1 511 15 q 365 -12 413 -12 q 145 65 228 -12 q 63 279 63 142 q 101 431 63 357 q 215 551 139 504 q 394 597 290 597 q 583 535 507 597 q 682 331 660 472 l 211 199 q 280 123 235 149 q 379 97 325 97 m 390 494 q 285 467 331 494 q 216 393 240 439 q 192 293 192 347 l 192 279 l 540 378 q 485 463 525 431 q 390 494 444 494 m 215 772 q 240 828 215 806 q 293 850 264 850 q 340 830 319 850 q 360 779 360 810 q 335 723 360 746 q 281 703 310 700 q 235 724 254 704 q 215 772 215 743 m 474 772 q 498 828 474 806 q 551 850 522 850 q 598 829 578 850 q 618 779 618 808 q 593 723 618 746 q 539 703 568 700 q 493 724 513 704 q 474 772 474 743 z "},"ė":{"ha":725,"x_min":63,"x_max":682,"o":"m 379 97 q 506 140 442 97 l 554 40 q 462 1 511 15 q 365 -12 413 -12 q 145 65 228 -12 q 63 279 63 142 q 101 431 63 357 q 215 551 139 504 q 394 597 290 597 q 583 535 507 597 q 682 331 660 472 l 211 199 q 280 123 235 149 q 379 97 325 97 m 390 494 q 285 467 331 494 q 216 393 240 439 q 192 293 192 347 l 192 279 l 540 378 q 485 463 525 431 q 390 494 444 494 m 343 806 q 366 860 343 838 q 424 883 389 883 q 476 866 453 883 q 499 818 499 849 q 475 762 499 785 q 417 739 451 739 q 365 758 386 740 q 343 806 343 775 z "},"ẹ":{"ha":725,"x_min":63,"x_max":682,"o":"m 379 97 q 506 140 442 97 l 554 40 q 462 1 511 15 q 365 -12 413 -12 q 145 65 228 -12 q 63 279 63 142 q 101 431 63 357 q 215 551 139 504 q 394 597 290 597 q 583 535 507 597 q 682 331 660 472 l 211 199 q 280 123 235 149 q 379 97 325 97 m 390 494 q 285 467 331 494 q 216 393 240 439 q 192 293 192 347 l 192 279 l 540 378 q 485 463 525 431 q 390 494 444 494 m 229 -160 q 252 -105 229 -128 q 310 -82 275 -82 q 362 -99 339 -82 q 385 -147 385 -117 q 361 -203 385 -181 q 303 -226 338 -226 q 251 -208 272 -225 q 229 -160 229 -190 z "},"è":{"ha":725,"x_min":63,"x_max":682,"o":"m 379 97 q 506 140 442 97 l 554 40 q 462 1 511 15 q 365 -12 413 -12 q 145 65 228 -12 q 63 279 63 142 q 101 431 63 357 q 215 551 139 504 q 394 597 290 597 q 583 535 507 597 q 682 331 660 472 l 211 199 q 280 123 235 149 q 379 97 325 97 m 390 494 q 285 467 331 494 q 216 393 240 439 q 192 293 192 347 l 192 279 l 540 378 q 485 463 525 431 q 390 494 444 494 m 447 714 l 364 714 l 211 900 l 356 900 l 447 714 z "},"ẻ":{"ha":725,"x_min":63,"x_max":682,"o":"m 379 97 q 506 140 442 97 l 554 40 q 462 1 511 15 q 365 -12 413 -12 q 145 65 228 -12 q 63 279 63 142 q 101 431 63 357 q 215 551 139 504 q 394 597 290 597 q 583 535 507 597 q 682 331 660 472 l 211 199 q 280 123 235 149 q 379 97 325 97 m 390 494 q 285 467 331 494 q 216 393 240 439 q 192 293 192 347 l 192 279 l 540 378 q 485 463 525 431 q 390 494 444 494 m 378 717 q 435 762 418 743 q 451 810 451 781 q 440 841 451 829 q 406 853 429 853 q 340 815 371 854 l 294 847 q 424 925 346 925 q 502 896 475 925 q 526 821 529 867 q 403 679 524 742 l 378 717 z "},"ȇ":{"ha":725,"x_min":63,"x_max":682,"o":"m 379 97 q 506 140 442 97 l 554 40 q 462 1 511 15 q 365 -12 413 -12 q 145 65 228 -12 q 63 279 63 142 q 101 431 63 357 q 215 551 139 504 q 394 597 290 597 q 583 535 507 597 q 682 331 660 472 l 211 199 q 280 123 235 149 q 379 97 325 97 m 390 494 q 285 467 331 494 q 216 393 240 439 q 192 293 192 347 l 192 279 l 540 378 q 485 463 525 431 q 390 494 444 494 m 422 918 q 561 858 506 918 q 615 665 617 797 l 528 665 q 497 789 529 749 q 418 829 464 829 q 288 665 325 829 l 199 665 q 278 854 219 790 q 422 918 336 918 z "},"ē":{"ha":725,"x_min":63,"x_max":682,"o":"m 379 97 q 506 140 442 97 l 554 40 q 462 1 511 15 q 365 -12 413 -12 q 145 65 228 -12 q 63 279 63 142 q 101 431 63 357 q 215 551 139 504 q 394 597 290 597 q 583 535 507 597 q 682 331 660 472 l 211 199 q 280 123 235 149 q 379 97 325 97 m 390 494 q 285 467 331 494 q 216 393 240 439 q 192 293 192 347 l 192 279 l 540 378 q 485 463 525 431 q 390 494 444 494 m 578 786 l 569 711 l 246 711 l 254 786 l 578 786 z "},"ę":{"ha":714,"x_min":60,"x_max":679,"o":"m 433 -182 q 531 -119 486 -182 l 572 -187 q 502 -250 546 -226 q 415 -274 458 -274 q 305 -233 350 -274 q 260 -129 260 -193 q 272 -69 260 -100 q 310 -10 285 -37 q 127 81 194 6 q 60 279 60 156 q 99 431 60 357 q 213 551 138 504 q 392 597 288 597 q 581 535 504 597 q 679 331 657 472 l 210 199 q 277 123 232 149 q 378 97 322 97 q 504 140 440 97 l 551 40 q 469 6 499 21 q 369 -111 371 -50 q 386 -162 367 -143 q 433 -182 406 -182 m 389 494 q 284 467 329 494 q 215 393 239 439 q 190 293 190 347 l 190 276 l 539 375 q 483 462 524 429 q 389 494 443 494 z "},"ẽ":{"ha":725,"x_min":63,"x_max":682,"o":"m 379 97 q 506 140 442 97 l 554 40 q 462 1 511 15 q 365 -12 413 -12 q 145 65 228 -12 q 63 279 63 142 q 101 431 63 357 q 215 551 139 504 q 394 597 290 597 q 583 535 507 597 q 682 331 660 472 l 211 199 q 280 123 235 149 q 379 97 325 97 m 390 494 q 285 467 331 494 q 216 393 240 439 q 192 293 192 347 l 192 279 l 540 378 q 485 463 525 431 q 390 494 444 494 m 519 665 q 441 685 471 665 q 376 744 411 706 q 338 783 353 771 q 300 794 322 794 q 252 763 272 794 q 226 681 232 732 l 144 688 q 198 835 151 776 q 315 894 244 894 q 382 874 354 894 q 440 818 410 854 q 483 774 467 788 q 522 761 500 761 q 590 879 576 761 l 671 872 q 649 764 671 811 q 594 691 628 717 q 519 665 560 665 z "},"ə":{"ha":725,"x_min":43,"x_max":663,"o":"m 360 588 q 580 510 497 588 q 663 296 663 433 q 624 144 663 218 q 510 24 586 71 q 331 -22 435 -22 q 142 40 218 -22 q 43 244 65 103 l 514 376 q 445 452 490 426 q 346 478 400 478 q 219 435 283 478 l 171 535 q 263 574 214 560 q 360 588 313 588 m 335 81 q 440 108 394 81 q 509 182 485 136 q 533 282 533 228 l 533 296 l 185 197 q 240 113 200 144 q 335 81 281 81 z "},"f":{"ha":528,"x_min":79,"x_max":600,"o":"m 178 460 l 79 460 l 94 576 l 192 576 l 221 818 q 301 1010 236 943 q 476 1076 367 1076 q 541 1067 507 1076 q 600 1042 575 1058 l 532 947 q 478 969 514 969 q 393 933 425 969 q 351 817 361 897 l 322 576 l 504 576 l 490 460 l 307 460 l 251 0 l 122 0 l 178 460 z "},"g":{"ha":835,"x_min":58,"x_max":758,"o":"m 758 575 l 682 -31 q 579 -215 669 -146 q 350 -285 489 -285 q 185 -255 251 -285 q 58 -164 118 -225 l 146 -76 q 243 -149 192 -126 q 361 -171 294 -171 q 495 -127 444 -171 q 556 -8 546 -83 l 568 96 q 474 16 533 46 q 343 -14 415 -14 q 199 22 263 -14 q 99 126 136 58 q 63 282 63 193 q 99 422 63 349 q 209 547 135 496 q 390 599 283 599 q 530 569 469 599 q 617 490 590 539 l 640 575 l 758 575 m 600 347 q 538 451 589 411 q 413 492 486 492 q 288 458 338 492 q 217 375 239 424 q 194 282 194 326 q 247 146 194 197 q 386 94 300 94 q 507 133 451 94 q 586 233 563 171 l 600 347 z "},"ğ":{"ha":835,"x_min":58,"x_max":758,"o":"m 758 575 l 682 -31 q 579 -215 669 -146 q 350 -285 489 -285 q 185 -255 251 -285 q 58 -164 118 -225 l 146 -76 q 243 -149 192 -126 q 361 -171 294 -171 q 495 -127 444 -171 q 556 -8 546 -83 l 568 96 q 474 16 533 46 q 343 -14 415 -14 q 199 22 263 -14 q 99 126 136 58 q 63 282 63 193 q 99 422 63 349 q 209 547 135 496 q 390 599 283 599 q 530 569 469 599 q 617 490 590 539 l 640 575 l 758 575 m 600 347 q 538 451 589 411 q 413 492 486 492 q 288 458 338 492 q 217 375 239 424 q 194 282 194 326 q 247 146 194 197 q 386 94 300 94 q 507 133 451 94 q 586 233 563 171 l 600 347 m 465 704 q 326 765 382 704 q 272 957 271 825 l 360 957 q 391 833 358 874 q 469 793 424 793 q 600 957 563 793 l 689 957 q 610 768 668 832 q 465 704 551 704 z "},"ǧ":{"ha":835,"x_min":58,"x_max":758,"o":"m 758 575 l 682 -31 q 579 -215 669 -146 q 350 -285 489 -285 q 185 -255 251 -285 q 58 -164 118 -225 l 146 -76 q 243 -149 192 -126 q 361 -171 294 -171 q 495 -127 444 -171 q 556 -8 546 -83 l 568 96 q 474 16 533 46 q 343 -14 415 -14 q 199 22 263 -14 q 99 126 136 58 q 63 282 63 193 q 99 422 63 349 q 209 547 135 496 q 390 599 283 599 q 530 569 469 599 q 617 490 590 539 l 640 575 l 758 575 m 600 347 q 538 451 589 411 q 413 492 486 492 q 288 458 338 492 q 217 375 239 424 q 194 282 194 326 q 247 146 194 197 q 386 94 300 94 q 507 133 451 94 q 586 233 563 171 l 600 347 m 721 964 l 465 711 l 464 711 l 268 964 l 388 964 l 481 835 l 601 964 l 721 964 z "},"ĝ":{"ha":835,"x_min":58,"x_max":758,"o":"m 758 575 l 682 -31 q 579 -215 669 -146 q 350 -285 489 -285 q 185 -255 251 -285 q 58 -164 118 -225 l 146 -76 q 243 -149 192 -126 q 361 -171 294 -171 q 495 -127 444 -171 q 556 -8 546 -83 l 568 96 q 474 16 533 46 q 343 -14 415 -14 q 199 22 263 -14 q 99 126 136 58 q 63 282 63 193 q 99 422 63 349 q 209 547 135 496 q 390 599 283 599 q 530 569 469 599 q 617 490 590 539 l 640 575 l 758 575 m 600 347 q 538 451 589 411 q 413 492 486 492 q 288 458 338 492 q 217 375 239 424 q 194 282 194 326 q 247 146 194 197 q 386 94 300 94 q 507 133 451 94 q 586 233 563 171 l 600 347 m 567 731 l 474 860 l 353 731 l 235 731 l 489 983 l 686 731 l 567 731 z "},"ģ":{"ha":835,"x_min":58,"x_max":758,"o":"m 396 693 q 394 717 394 700 q 425 833 394 775 q 507 922 456 892 l 574 875 q 526 808 543 851 q 510 717 510 765 q 511 692 510 700 l 396 693 m 758 575 l 682 -31 q 579 -215 669 -146 q 350 -285 489 -285 q 185 -255 251 -285 q 58 -164 118 -225 l 146 -76 q 243 -149 192 -126 q 361 -171 294 -171 q 495 -127 444 -171 q 556 -8 546 -83 l 568 96 q 474 16 533 46 q 343 -14 415 -14 q 199 22 263 -14 q 99 126 136 58 q 63 282 63 193 q 99 422 63 349 q 209 547 135 496 q 390 599 283 599 q 530 569 469 599 q 617 490 590 539 l 640 575 l 758 575 m 600 347 q 538 451 589 411 q 413 492 486 492 q 288 458 338 492 q 217 375 239 424 q 194 282 194 326 q 247 146 194 197 q 386 94 300 94 q 507 133 451 94 q 586 233 563 171 l 600 347 z "},"ġ":{"ha":835,"x_min":58,"x_max":758,"o":"m 758 575 l 682 -31 q 579 -215 669 -146 q 350 -285 489 -285 q 185 -255 251 -285 q 58 -164 118 -225 l 146 -76 q 243 -149 192 -126 q 361 -171 294 -171 q 495 -127 444 -171 q 556 -8 546 -83 l 568 96 q 474 16 533 46 q 343 -14 415 -14 q 199 22 263 -14 q 99 126 136 58 q 63 282 63 193 q 99 422 63 349 q 209 547 135 496 q 390 599 283 599 q 530 569 469 599 q 617 490 590 539 l 640 575 l 758 575 m 600 347 q 538 451 589 411 q 413 492 486 492 q 288 458 338 492 q 217 375 239 424 q 194 282 194 326 q 247 146 194 197 q 386 94 300 94 q 507 133 451 94 q 586 233 563 171 l 600 347 m 396 822 q 419 877 396 854 q 476 900 442 900 q 528 883 506 900 q 551 835 551 865 q 528 778 551 801 q 469 756 504 756 q 417 774 439 757 q 396 822 396 792 z "},"h":{"ha":769,"x_min":78,"x_max":675,"o":"m 507 597 q 628 555 582 597 q 675 444 675 513 l 674 425 l 622 0 l 492 0 l 538 383 q 519 457 542 429 q 446 486 496 485 q 310 424 368 486 q 240 269 251 363 l 207 0 l 78 0 l 208 1076 l 336 1076 l 263 476 q 366 565 301 532 q 507 597 431 597 z "},"ħ":{"ha":769,"x_min":47,"x_max":675,"o":"m 507 597 q 628 555 582 597 q 675 444 675 513 l 674 425 l 622 0 l 492 0 l 538 383 q 519 457 542 429 q 446 486 496 485 q 310 424 368 486 q 240 269 251 363 l 207 0 l 78 0 l 172 778 l 47 778 l 64 908 l 188 908 l 208 1076 l 336 1076 l 315 908 l 424 908 l 407 778 l 300 778 l 263 476 q 366 565 301 532 q 507 597 431 597 z "},"ĥ":{"ha":769,"x_min":47,"x_max":675,"o":"m 507 597 q 628 555 582 597 q 675 444 675 513 l 674 425 l 622 0 l 492 0 l 538 383 q 519 457 542 429 q 446 486 496 485 q 310 424 368 486 q 240 269 251 363 l 207 0 l 78 0 l 208 1076 l 336 1076 l 263 476 q 366 565 301 532 q 507 597 431 597 m 379 1067 l 286 1196 l 165 1067 l 47 1067 l 301 1319 l 499 1067 l 379 1067 z "},"i":{"ha":354,"x_min":76,"x_max":314,"o":"m 278 575 l 207 0 l 76 0 l 147 575 l 278 575 m 158 765 q 181 820 158 797 q 239 843 204 843 q 291 826 268 843 q 314 778 314 808 q 290 722 314 744 q 232 699 267 699 q 180 717 201 700 q 158 765 158 735 z "},"ı":{"ha":354,"x_min":76,"x_max":278,"o":"m 278 575 l 207 0 l 76 0 l 147 575 l 278 575 z "},"í":{"ha":354,"x_min":76,"x_max":454,"o":"m 278 575 l 207 0 l 76 0 l 147 575 l 278 575 m 271 638 l 188 638 l 311 824 l 454 824 l 271 638 z "},"ĭ":{"ha":354,"x_min":36,"x_max":453,"o":"m 278 575 l 207 0 l 76 0 l 147 575 l 278 575 m 229 649 q 90 709 146 649 q 36 901 35 769 l 124 901 q 155 778 122 818 q 233 738 188 738 q 364 901 326 738 l 453 901 q 374 713 432 776 q 229 649 315 649 z "},"î":{"ha":354,"x_min":-1,"x_max":450,"o":"m 278 575 l 207 0 l 76 0 l 147 575 l 278 575 m 331 675 l 238 804 l 117 675 l -1 675 l 253 928 l 450 675 l 331 675 z "},"ȉ":{"ha":354,"x_min":-46,"x_max":378,"o":"m 278 575 l 207 0 l 76 0 l 147 575 l 278 575 m 190 675 l 107 675 l -46 861 l 99 861 l 190 675 m 378 675 l 294 675 l 142 861 l 286 861 l 378 675 z "},"ï":{"ha":354,"x_min":31,"x_max":433,"o":"m 278 575 l 207 0 l 76 0 l 147 575 l 278 575 m 31 733 q 55 789 31 767 q 108 811 79 811 q 155 791 135 811 q 175 740 175 771 q 150 684 175 707 q 96 664 125 661 q 50 685 69 665 q 31 733 31 704 m 289 733 q 313 789 289 767 q 367 811 338 811 q 413 790 393 811 q 433 740 433 769 q 408 684 433 707 q 354 664 383 661 q 308 685 328 665 q 289 733 289 704 z "},"ị":{"ha":354,"x_min":38,"x_max":314,"o":"m 278 575 l 207 0 l 76 0 l 147 575 l 278 575 m 158 765 q 181 820 158 797 q 239 843 204 843 q 291 826 268 843 q 314 778 314 808 q 290 722 314 744 q 232 699 267 699 q 180 717 201 700 q 158 765 158 735 m 38 -142 q 60 -87 38 -110 q 118 -64 83 -64 q 170 -81 147 -64 q 193 -129 193 -99 q 169 -185 193 -162 q 111 -208 146 -208 q 59 -190 81 -207 q 38 -142 38 -172 z "},"ì":{"ha":354,"x_min":26,"x_max":278,"o":"m 278 575 l 207 0 l 76 0 l 147 575 l 278 575 m 263 675 l 179 675 l 26 861 l 171 861 l 263 675 z "},"ỉ":{"ha":354,"x_min":76,"x_max":342,"o":"m 278 575 l 207 0 l 76 0 l 147 575 l 278 575 m 193 678 q 250 723 233 704 q 267 771 267 742 q 256 802 267 790 q 221 814 244 814 q 156 776 186 815 l 110 808 q 239 886 161 886 q 317 857 290 886 q 342 782 344 828 q 218 640 339 703 l 193 678 z "},"ȋ":{"ha":354,"x_min":15,"x_max":432,"o":"m 278 575 l 207 0 l 76 0 l 147 575 l 278 575 m 239 879 q 378 819 322 879 q 432 626 433 758 l 344 626 q 313 750 346 710 q 235 790 281 790 q 104 626 142 790 l 15 626 q 94 815 36 751 q 239 879 153 879 z "},"ĳ":{"ha":725,"x_min":76,"x_max":679,"o":"m 278 575 l 207 0 l 76 0 l 147 575 l 278 575 m 158 765 q 181 820 158 797 q 239 843 204 843 q 291 826 268 843 q 314 778 314 808 q 290 722 314 744 q 232 699 267 699 q 180 717 201 700 q 158 765 158 735 m 321 -204 q 446 -7 428 -137 l 518 575 l 649 575 l 578 0 q 386 -285 551 -208 l 321 -204 m 524 765 q 547 820 524 797 q 604 843 569 843 q 656 826 633 843 q 679 778 679 808 q 656 722 679 744 q 597 699 632 699 q 545 717 567 700 q 524 765 524 735 z "},"ī":{"ha":354,"x_min":61,"x_max":393,"o":"m 278 575 l 207 0 l 76 0 l 147 575 l 278 575 m 393 747 l 385 672 l 61 672 l 69 747 l 393 747 z "},"į":{"ha":332,"x_min":-46,"x_max":311,"o":"m 236 822 q 288 806 265 822 q 311 757 311 789 q 288 701 311 724 q 229 678 264 678 q 177 697 199 679 q 156 744 156 714 q 178 799 156 776 q 236 822 201 822 m 208 1 q 100 -67 136 -33 q 64 -140 64 -100 q 83 -189 64 -172 q 129 -206 101 -206 q 226 -144 181 -206 l 268 -212 q 192 -276 239 -251 q 104 -299 146 -300 q -3 -255 39 -294 q -46 -154 -46 -215 q -14 -61 -46 -108 q 79 14 18 -14 l 149 575 l 278 575 l 208 1 z "},"ĩ":{"ha":354,"x_min":-39,"x_max":488,"o":"m 278 575 l 207 0 l 76 0 l 147 575 l 278 575 m 336 626 q 258 647 288 626 q 193 706 228 667 q 154 744 169 732 q 117 756 139 756 q 69 724 89 756 q 43 642 49 693 l -39 649 q 15 797 -32 738 q 132 856 61 856 q 199 835 171 856 q 257 779 226 815 q 300 735 283 749 q 339 722 317 722 q 407 840 393 722 l 488 833 q 466 725 488 772 q 410 652 444 678 q 336 626 376 626 z "},"j":{"ha":371,"x_min":-33,"x_max":325,"o":"m -33 -204 q 92 -7 74 -137 l 164 575 l 294 575 l 224 0 q 32 -285 197 -208 l -33 -204 m 169 765 q 192 820 169 797 q 250 843 215 843 q 302 826 279 843 q 325 778 325 808 q 301 722 325 744 q 243 699 278 699 q 191 717 213 700 q 169 765 169 735 z "},"ȷ":{"ha":371,"x_min":-33,"x_max":294,"o":"m -33 -204 q 92 -7 74 -137 l 164 575 l 294 575 l 224 0 q 32 -285 197 -208 l -33 -204 z "},"ĵ":{"ha":371,"x_min":-33,"x_max":461,"o":"m -33 -204 q 92 -7 74 -137 l 164 575 l 294 575 l 224 0 q 32 -285 197 -208 l -33 -204 m 342 675 l 249 804 l 128 675 l 10 675 l 264 928 l 461 675 l 342 675 z "},"k":{"ha":693,"x_min":78,"x_max":646,"o":"m 413 349 l 611 0 l 460 0 l 315 276 l 233 217 l 207 0 l 78 0 l 208 1076 l 339 1076 l 250 354 l 572 589 l 646 519 l 413 349 z "},"ķ":{"ha":649,"x_min":78,"x_max":646,"o":"m 413 349 l 611 0 l 460 0 l 315 276 l 233 217 l 207 0 l 78 0 l 208 1076 l 339 1076 l 250 354 l 572 589 l 646 519 l 413 349 m 188 -385 q 235 -318 218 -361 q 251 -226 251 -275 q 250 -201 251 -210 l 365 -203 q 367 -226 367 -210 q 336 -343 367 -285 q 254 -432 306 -401 l 188 -385 z "},"ĸ":{"ha":704,"x_min":76,"x_max":676,"o":"m 383 319 l 607 0 l 457 0 l 292 240 l 231 186 l 207 0 l 76 0 l 147 575 l 278 575 l 247 324 l 518 575 l 676 575 l 383 319 z "},"l":{"ha":356,"x_min":78,"x_max":339,"o":"m 339 1076 l 207 0 l 78 0 l 208 1076 l 339 1076 z "},"ĺ":{"ha":356,"x_min":78,"x_max":506,"o":"m 339 1076 l 207 0 l 78 0 l 208 1076 l 339 1076 m 322 1129 l 239 1129 l 363 1315 l 506 1315 l 322 1129 z "},"ľ":{"ha":475,"x_min":78,"x_max":581,"o":"m 339 1076 l 207 0 l 78 0 l 208 1076 l 339 1076 m 401 890 q 449 957 432 914 q 465 1049 465 1000 q 464 1074 465 1065 l 579 1072 q 581 1049 581 1065 q 550 932 581 990 q 468 843 519 874 l 401 890 z "},"ļ":{"ha":356,"x_min":19,"x_max":339,"o":"m 339 1076 l 207 0 l 78 0 l 208 1076 l 339 1076 m 19 -244 q 67 -178 50 -221 q 83 -86 83 -135 q 82 -61 83 -69 l 197 -62 q 199 -86 199 -69 q 168 -203 199 -144 q 86 -292 138 -261 l 19 -244 z "},"ŀ":{"ha":744,"x_min":78,"x_max":640,"o":"m 339 1076 l 207 0 l 78 0 l 208 1076 l 339 1076 m 494 386 q 520 445 494 421 q 578 469 546 469 q 622 449 603 469 q 640 401 640 429 q 615 344 640 368 q 560 321 589 321 q 514 340 533 321 q 494 386 494 358 z "},"ǉ":{"ha":726,"x_min":78,"x_max":681,"o":"m 339 1076 l 207 0 l 78 0 l 208 1076 l 339 1076 m 322 -204 q 447 -7 429 -137 l 519 575 l 650 575 l 579 0 q 388 -285 553 -208 l 322 -204 m 525 765 q 548 820 525 797 q 606 843 571 843 q 658 826 635 843 q 681 778 681 808 q 657 722 681 744 q 599 699 633 699 q 547 717 568 700 q 525 765 525 735 z "},"ł":{"ha":367,"x_min":44,"x_max":396,"o":"m 382 428 l 267 399 l 218 0 l 89 0 l 133 364 l 44 340 l 58 454 l 147 478 l 219 1076 l 350 1076 l 281 513 l 396 542 l 382 428 z "},"m":{"ha":1147,"x_min":78,"x_max":1053,"o":"m 889 599 q 1009 558 965 599 q 1053 449 1053 517 q 1051 426 1053 435 l 1000 0 l 871 0 l 917 379 l 918 399 q 840 485 918 479 q 707 422 764 485 q 638 274 650 360 l 604 0 l 474 0 l 521 379 q 442 485 528 479 q 348 455 392 485 q 276 376 304 425 q 240 272 247 328 l 207 0 l 78 0 l 147 575 l 264 575 l 261 472 q 365 565 304 532 q 500 599 426 599 q 611 568 569 599 q 660 478 653 538 q 764 566 704 533 q 889 599 824 599 z "},"n":{"ha":769,"x_min":78,"x_max":675,"o":"m 504 597 q 628 556 582 597 q 675 446 675 514 q 674 425 675 432 l 622 0 l 492 0 l 539 381 q 518 458 543 429 q 440 486 493 486 q 308 425 364 486 q 240 269 251 364 l 207 0 l 78 0 l 147 575 l 264 575 l 263 479 q 365 565 303 533 q 504 597 428 597 z "},"ń":{"ha":772,"x_min":78,"x_max":675,"o":"m 504 597 q 628 556 582 597 q 675 446 675 514 q 674 425 675 432 l 622 0 l 492 0 l 539 381 q 518 458 543 429 q 440 486 493 486 q 308 425 364 486 q 240 269 251 364 l 207 0 l 78 0 l 147 575 l 264 575 l 263 479 q 365 565 303 533 q 504 597 428 597 m 444 675 l 361 675 l 485 861 l 628 861 l 444 675 z "},"ŉ":{"ha":833,"x_min":6,"x_max":675,"o":"m 167 988 q 143 814 158 922 l 118 639 l 6 639 l 49 988 l 167 988 m 504 597 q 628 556 582 597 q 675 446 675 514 q 674 425 675 432 l 622 0 l 492 0 l 539 381 q 518 458 543 429 q 440 486 493 486 q 308 425 364 486 q 240 269 251 364 l 207 0 l 78 0 l 147 575 l 264 575 l 263 479 q 365 565 303 533 q 504 597 428 597 z "},"ň":{"ha":772,"x_min":78,"x_max":714,"o":"m 504 597 q 628 556 582 597 q 675 446 675 514 q 674 425 675 432 l 622 0 l 492 0 l 539 381 q 518 458 543 429 q 440 486 493 486 q 308 425 364 486 q 240 269 251 364 l 207 0 l 78 0 l 147 575 l 264 575 l 263 479 q 365 565 303 533 q 504 597 428 597 m 714 928 l 458 675 l 457 675 l 261 928 l 381 928 l 474 799 l 594 928 l 714 928 z "},"ņ":{"ha":769,"x_min":78,"x_max":675,"o":"m 504 597 q 628 556 582 597 q 675 446 675 514 q 674 425 675 432 l 622 0 l 492 0 l 539 381 q 518 458 543 429 q 440 486 493 486 q 308 425 364 486 q 240 269 251 364 l 207 0 l 78 0 l 147 575 l 264 575 l 263 479 q 365 565 303 533 q 504 597 428 597 m 225 -244 q 272 -178 256 -221 q 289 -86 289 -135 q 288 -61 289 -69 l 403 -62 q 404 -86 404 -69 q 374 -203 404 -144 q 292 -292 343 -261 l 225 -244 z "},"ŋ":{"ha":769,"x_min":78,"x_max":675,"o":"m 504 597 q 628 556 582 597 q 675 446 675 514 q 674 425 675 432 l 622 3 q 568 -165 611 -93 q 451 -278 525 -237 l 385 -197 q 492 1 475 -133 l 539 381 q 518 458 543 429 q 440 486 493 486 q 308 425 364 486 q 240 269 251 364 l 207 0 l 78 0 l 147 575 l 264 575 l 264 471 q 364 563 301 529 q 504 597 426 597 z "},"ɲ":{"ha":764,"x_min":-32,"x_max":676,"o":"m 503 597 q 630 549 583 597 q 669 425 676 501 l 617 0 l 486 0 l 533 381 q 513 457 536 429 q 438 486 490 485 q 305 425 363 486 q 236 269 247 364 l 211 63 l 213 63 l 204 -4 q 35 -278 183 -181 l -32 -197 q 75 0 58 -128 l 72 0 l 143 575 l 260 575 l 256 464 q 358 562 292 526 q 503 597 424 597 z "},"ǌ":{"ha":1140,"x_min":78,"x_max":1094,"o":"m 504 597 q 628 556 582 597 q 675 446 675 514 q 674 425 675 432 l 622 0 l 492 0 l 539 381 q 518 458 543 429 q 440 486 493 486 q 308 425 364 486 q 240 269 251 364 l 207 0 l 78 0 l 147 575 l 264 575 l 263 479 q 365 565 303 533 q 504 597 428 597 m 736 -204 q 861 -7 843 -137 l 933 575 l 1064 575 l 993 0 q 801 -285 967 -208 l 736 -204 m 939 765 q 962 820 939 797 q 1019 843 985 843 q 1072 826 1049 843 q 1094 778 1094 808 q 1071 722 1094 744 q 1013 699 1047 699 q 960 717 982 700 q 939 765 939 735 z "},"ñ":{"ha":769,"x_min":78,"x_max":704,"o":"m 504 597 q 628 556 582 597 q 675 446 675 514 q 674 425 675 432 l 622 0 l 492 0 l 539 381 q 518 458 543 429 q 440 486 493 486 q 308 425 364 486 q 240 269 251 364 l 207 0 l 78 0 l 147 575 l 264 575 l 263 479 q 365 565 303 533 q 504 597 428 597 m 553 682 q 474 702 504 682 q 410 761 444 722 q 371 799 386 788 q 333 811 356 811 q 285 780 306 811 q 260 697 265 749 l 178 704 q 231 852 185 793 q 349 911 278 911 q 415 891 388 911 q 474 835 443 871 q 517 791 500 804 q 556 778 533 778 q 624 896 610 778 l 704 889 q 683 781 704 828 q 627 708 661 733 q 553 682 593 682 z "},"o":{"ha":758,"x_min":61,"x_max":697,"o":"m 367 -14 q 221 19 292 -14 q 106 116 150 51 q 61 269 61 181 q 96 423 61 347 q 206 548 131 499 q 394 597 281 597 q 543 563 474 597 q 655 465 613 529 q 697 315 697 400 q 665 167 697 243 q 558 39 632 92 q 367 -14 483 -14 m 371 94 q 480 127 436 94 q 544 208 524 160 q 565 308 565 257 q 539 410 565 369 q 472 471 513 451 q 389 490 431 490 q 280 458 324 490 q 215 376 236 425 q 193 275 193 326 q 219 175 193 215 q 285 115 244 135 q 371 94 326 94 z "},"ó":{"ha":758,"x_min":61,"x_max":697,"o":"m 367 -14 q 221 19 292 -14 q 106 116 150 51 q 61 269 61 181 q 96 423 61 347 q 206 548 131 499 q 394 597 281 597 q 543 563 474 597 q 655 465 613 529 q 697 315 697 400 q 665 167 697 243 q 558 39 632 92 q 367 -14 483 -14 m 371 94 q 480 127 436 94 q 544 208 524 160 q 565 308 565 257 q 539 410 565 369 q 472 471 513 451 q 389 490 431 490 q 280 458 324 490 q 215 376 236 425 q 193 275 193 326 q 219 175 193 215 q 285 115 244 135 q 371 94 326 94 m 456 650 l 372 650 l 496 836 l 639 836 l 456 650 z "},"ŏ":{"ha":758,"x_min":61,"x_max":697,"o":"m 367 -14 q 221 19 292 -14 q 106 116 150 51 q 61 269 61 181 q 96 423 61 347 q 206 548 131 499 q 394 597 281 597 q 543 563 474 597 q 655 465 613 529 q 697 315 697 400 q 665 167 697 243 q 558 39 632 92 q 367 -14 483 -14 m 371 94 q 480 127 436 94 q 544 208 524 160 q 565 308 565 257 q 539 410 565 369 q 472 471 513 451 q 389 490 431 490 q 280 458 324 490 q 215 376 236 425 q 193 275 193 326 q 219 175 193 215 q 285 115 244 135 q 371 94 326 94 m 414 661 q 275 722 331 661 q 221 914 219 782 l 308 914 q 340 790 307 831 q 418 750 372 750 q 549 914 511 750 l 638 914 q 558 725 617 789 q 414 661 500 661 z "},"ô":{"ha":758,"x_min":61,"x_max":697,"o":"m 367 -14 q 221 19 292 -14 q 106 116 150 51 q 61 269 61 181 q 96 423 61 347 q 206 548 131 499 q 394 597 281 597 q 543 563 474 597 q 655 465 613 529 q 697 315 697 400 q 665 167 697 243 q 558 39 632 92 q 367 -14 483 -14 m 371 94 q 480 127 436 94 q 544 208 524 160 q 565 308 565 257 q 539 410 565 369 q 472 471 513 451 q 389 490 431 490 q 280 458 324 490 q 215 376 236 425 q 193 275 193 326 q 219 175 193 215 q 285 115 244 135 q 371 94 326 94 m 515 688 l 422 817 l 301 688 l 183 688 l 438 940 l 635 688 l 515 688 z "},"ố":{"ha":758,"x_min":61,"x_max":769,"o":"m 367 -14 q 221 19 292 -14 q 106 116 150 51 q 61 269 61 181 q 96 423 61 347 q 206 548 131 499 q 394 597 281 597 q 543 563 474 597 q 655 465 613 529 q 697 315 697 400 q 665 167 697 243 q 558 39 632 92 q 367 -14 483 -14 m 371 94 q 480 127 436 94 q 544 208 524 160 q 565 308 565 257 q 539 410 565 369 q 472 471 513 451 q 389 490 431 490 q 280 458 324 490 q 215 376 236 425 q 193 275 193 326 q 219 175 193 215 q 285 115 244 135 q 371 94 326 94 m 472 688 l 379 817 l 258 688 l 140 688 l 394 940 l 592 688 l 472 688 m 586 838 l 503 838 l 626 1024 l 769 1024 l 586 838 z "},"ộ":{"ha":758,"x_min":61,"x_max":697,"o":"m 367 -14 q 221 19 292 -14 q 106 116 150 51 q 61 269 61 181 q 96 423 61 347 q 206 548 131 499 q 394 597 281 597 q 543 563 474 597 q 655 465 613 529 q 697 315 697 400 q 665 167 697 243 q 558 39 632 92 q 367 -14 483 -14 m 371 94 q 480 127 436 94 q 544 208 524 160 q 565 308 565 257 q 539 410 565 369 q 472 471 513 451 q 389 490 431 490 q 280 458 324 490 q 215 376 236 425 q 193 275 193 326 q 219 175 193 215 q 285 115 244 135 q 371 94 326 94 m 246 -142 q 269 -87 246 -110 q 326 -64 292 -64 q 378 -81 356 -64 q 401 -129 401 -99 q 378 -185 401 -162 q 319 -208 354 -208 q 267 -190 289 -207 q 246 -142 246 -172 m 515 688 l 422 817 l 301 688 l 183 688 l 438 940 l 635 688 l 515 688 z "},"ồ":{"ha":758,"x_min":50,"x_max":697,"o":"m 367 -14 q 221 19 292 -14 q 106 116 150 51 q 61 269 61 181 q 96 423 61 347 q 206 548 131 499 q 394 597 281 597 q 543 563 474 597 q 655 465 613 529 q 697 315 697 400 q 665 167 697 243 q 558 39 632 92 q 367 -14 483 -14 m 371 94 q 480 127 436 94 q 544 208 524 160 q 565 308 565 257 q 539 410 565 369 q 472 471 513 451 q 389 490 431 490 q 280 458 324 490 q 215 376 236 425 q 193 275 193 326 q 219 175 193 215 q 285 115 244 135 q 371 94 326 94 m 513 656 l 419 785 l 299 656 l 181 656 l 435 908 l 632 656 l 513 656 m 286 808 l 203 808 l 50 994 l 194 994 l 286 808 z "},"ổ":{"ha":758,"x_min":61,"x_max":733,"o":"m 367 -14 q 221 19 292 -14 q 106 116 150 51 q 61 269 61 181 q 96 423 61 347 q 206 548 131 499 q 394 597 281 597 q 543 563 474 597 q 655 465 613 529 q 697 315 697 400 q 665 167 697 243 q 558 39 632 92 q 367 -14 483 -14 m 371 94 q 480 127 436 94 q 544 208 524 160 q 565 308 565 257 q 539 410 565 369 q 472 471 513 451 q 389 490 431 490 q 280 458 324 490 q 215 376 236 425 q 193 275 193 326 q 219 175 193 215 q 285 115 244 135 q 371 94 326 94 m 501 656 l 408 785 l 288 656 l 169 656 l 424 908 l 621 656 l 501 656 m 585 838 q 642 883 625 864 q 658 931 658 901 q 647 962 658 950 q 613 974 636 974 q 547 936 578 975 l 501 968 q 631 1046 553 1046 q 709 1017 682 1046 q 733 942 736 988 q 610 800 731 863 l 585 838 z "},"ỗ":{"ha":758,"x_min":61,"x_max":697,"o":"m 367 -14 q 221 19 292 -14 q 106 116 150 51 q 61 269 61 181 q 96 423 61 347 q 206 548 131 499 q 394 597 281 597 q 543 563 474 597 q 655 465 613 529 q 697 315 697 400 q 665 167 697 243 q 558 39 632 92 q 367 -14 483 -14 m 371 94 q 480 127 436 94 q 544 208 524 160 q 565 308 565 257 q 539 410 565 369 q 472 471 513 451 q 389 490 431 490 q 280 458 324 490 q 215 376 236 425 q 193 275 193 326 q 219 175 193 215 q 285 115 244 135 q 371 94 326 94 m 363 1064 q 319 1036 338 1064 q 297 963 301 1008 l 224 969 q 272 1101 231 1049 q 375 1153 313 1153 q 435 1135 411 1153 q 488 1085 460 1118 q 526 1047 511 1058 q 561 1035 540 1035 q 621 1140 610 1035 l 693 1133 q 652 999 692 1050 q 556 949 613 949 q 488 967 514 949 q 431 1019 461 985 q 396 1053 410 1043 q 363 1064 382 1064 m 442 904 l 639 651 l 519 651 l 426 781 l 306 651 l 188 651 l 442 904 z "},"ȍ":{"ha":758,"x_min":61,"x_max":697,"o":"m 367 -14 q 221 19 292 -14 q 106 116 150 51 q 61 269 61 181 q 96 423 61 347 q 206 548 131 499 q 394 597 281 597 q 543 563 474 597 q 655 465 613 529 q 697 315 697 400 q 665 167 697 243 q 558 39 632 92 q 367 -14 483 -14 m 371 94 q 480 127 436 94 q 544 208 524 160 q 565 308 565 257 q 539 410 565 369 q 472 471 513 451 q 389 490 431 490 q 280 458 324 490 q 215 376 236 425 q 193 275 193 326 q 219 175 193 215 q 285 115 244 135 q 371 94 326 94 m 375 688 l 292 688 l 139 874 l 283 874 l 375 688 m 563 688 l 479 688 l 326 874 l 471 874 l 563 688 z "},"ö":{"ha":758,"x_min":61,"x_max":697,"o":"m 367 -14 q 221 19 292 -14 q 106 116 150 51 q 61 269 61 181 q 96 423 61 347 q 206 548 131 499 q 394 597 281 597 q 543 563 474 597 q 655 465 613 529 q 697 315 697 400 q 665 167 697 243 q 558 39 632 92 q 367 -14 483 -14 m 371 94 q 480 127 436 94 q 544 208 524 160 q 565 308 565 257 q 539 410 565 369 q 472 471 513 451 q 389 490 431 490 q 280 458 324 490 q 215 376 236 425 q 193 275 193 326 q 219 175 193 215 q 285 115 244 135 q 371 94 326 94 m 217 746 q 241 801 217 779 q 294 824 265 824 q 341 803 321 824 q 361 753 361 783 q 336 697 361 719 q 282 676 311 674 q 236 697 256 678 q 217 746 217 717 m 475 746 q 499 801 475 779 q 553 824 524 824 q 599 803 579 824 q 619 753 619 782 q 594 697 619 719 q 540 676 569 674 q 494 697 514 678 q 475 746 475 717 z "},"ȫ":{"ha":758,"x_min":61,"x_max":697,"o":"m 367 -14 q 221 19 292 -14 q 106 116 150 51 q 61 269 61 181 q 96 423 61 347 q 206 548 131 499 q 394 597 281 597 q 543 563 474 597 q 655 465 613 529 q 697 315 697 400 q 665 167 697 243 q 558 39 632 92 q 367 -14 483 -14 m 371 94 q 480 127 436 94 q 544 208 524 160 q 565 308 565 257 q 539 410 565 369 q 472 471 513 451 q 389 490 431 490 q 280 458 324 490 q 215 376 236 425 q 193 275 193 326 q 219 175 193 215 q 285 115 244 135 q 371 94 326 94 m 217 746 q 241 801 217 779 q 294 824 265 824 q 341 803 321 824 q 361 753 361 783 q 336 697 361 719 q 282 676 311 674 q 236 697 256 678 q 217 746 217 717 m 475 746 q 499 801 475 779 q 553 824 524 824 q 599 803 579 824 q 619 753 619 782 q 594 697 619 719 q 540 676 569 674 q 494 697 514 678 q 475 746 475 717 m 607 990 l 599 915 l 275 915 l 283 990 l 607 990 z "},"ȱ":{"ha":758,"x_min":61,"x_max":697,"o":"m 367 -14 q 221 19 292 -14 q 106 116 150 51 q 61 269 61 181 q 96 423 61 347 q 206 548 131 499 q 394 597 281 597 q 543 563 474 597 q 655 465 613 529 q 697 315 697 400 q 665 167 697 243 q 558 39 632 92 q 367 -14 483 -14 m 371 94 q 480 127 436 94 q 544 208 524 160 q 565 308 565 257 q 539 410 565 369 q 472 471 513 451 q 389 490 431 490 q 280 458 324 490 q 215 376 236 425 q 193 275 193 326 q 219 175 193 215 q 285 115 244 135 q 371 94 326 94 m 344 778 q 367 833 344 810 q 425 856 390 856 q 477 838 454 856 q 500 790 500 821 q 476 734 500 757 q 418 711 453 711 q 366 730 388 713 q 344 778 344 747 m 614 1036 l 606 961 l 282 961 l 290 1036 l 614 1036 z "},"ọ":{"ha":758,"x_min":61,"x_max":697,"o":"m 367 -14 q 221 19 292 -14 q 106 116 150 51 q 61 269 61 181 q 96 423 61 347 q 206 548 131 499 q 394 597 281 597 q 543 563 474 597 q 655 465 613 529 q 697 315 697 400 q 665 167 697 243 q 558 39 632 92 q 367 -14 483 -14 m 371 94 q 480 127 436 94 q 544 208 524 160 q 565 308 565 257 q 539 410 565 369 q 472 471 513 451 q 389 490 431 490 q 280 458 324 490 q 215 376 236 425 q 193 275 193 326 q 219 175 193 215 q 285 115 244 135 q 371 94 326 94 m 246 -142 q 269 -87 246 -110 q 326 -64 292 -64 q 378 -81 356 -64 q 401 -129 401 -99 q 378 -185 401 -162 q 319 -208 354 -208 q 267 -190 289 -207 q 246 -142 246 -172 z "},"ò":{"ha":758,"x_min":61,"x_max":697,"o":"m 367 -14 q 221 19 292 -14 q 106 116 150 51 q 61 269 61 181 q 96 423 61 347 q 206 548 131 499 q 394 597 281 597 q 543 563 474 597 q 655 465 613 529 q 697 315 697 400 q 665 167 697 243 q 558 39 632 92 q 367 -14 483 -14 m 371 94 q 480 127 436 94 q 544 208 524 160 q 565 308 565 257 q 539 410 565 369 q 472 471 513 451 q 389 490 431 490 q 280 458 324 490 q 215 376 236 425 q 193 275 193 326 q 219 175 193 215 q 285 115 244 135 q 371 94 326 94 m 449 688 l 365 688 l 213 874 l 357 874 l 449 688 z "},"ỏ":{"ha":758,"x_min":61,"x_max":697,"o":"m 367 -14 q 221 19 292 -14 q 106 116 150 51 q 61 269 61 181 q 96 423 61 347 q 206 548 131 499 q 394 597 281 597 q 543 563 474 597 q 655 465 613 529 q 697 315 697 400 q 665 167 697 243 q 558 39 632 92 q 367 -14 483 -14 m 371 94 q 480 127 436 94 q 544 208 524 160 q 565 308 565 257 q 539 410 565 369 q 472 471 513 451 q 389 490 431 490 q 280 458 324 490 q 215 376 236 425 q 193 275 193 326 q 219 175 193 215 q 285 115 244 135 q 371 94 326 94 m 379 690 q 436 735 419 717 q 453 783 453 754 q 442 815 453 803 q 407 826 431 826 q 342 789 372 828 l 296 821 q 425 899 347 899 q 503 869 476 899 q 528 794 531 840 q 404 653 525 715 l 379 690 z "},"ơ":{"ha":796,"x_min":60,"x_max":808,"o":"m 808 601 q 756 479 789 522 q 676 421 724 436 q 696 315 696 371 q 663 167 696 243 q 556 39 631 92 q 364 -14 482 -14 q 219 19 289 -14 q 104 116 149 51 q 60 269 60 181 q 94 422 60 347 q 204 547 129 497 q 392 597 279 597 q 526 571 463 597 q 631 494 589 544 q 711 603 689 507 l 808 601 m 368 94 q 478 127 435 94 q 543 208 522 160 q 564 308 564 257 q 537 410 564 369 q 469 471 510 451 q 388 490 429 490 q 278 458 322 490 q 212 376 233 425 q 190 275 190 326 q 216 175 190 215 q 283 115 242 135 q 368 94 324 94 z "},"ớ":{"ha":796,"x_min":60,"x_max":808,"o":"m 808 601 q 756 479 789 522 q 676 421 724 436 q 696 315 696 371 q 663 167 696 243 q 556 39 631 92 q 364 -14 482 -14 q 219 19 289 -14 q 104 116 149 51 q 60 269 60 181 q 94 422 60 347 q 204 547 129 497 q 392 597 279 597 q 526 571 463 597 q 631 494 589 544 q 711 603 689 507 l 808 601 m 368 94 q 478 127 435 94 q 543 208 522 160 q 564 308 564 257 q 537 410 564 369 q 469 471 510 451 q 388 490 429 490 q 278 458 322 490 q 212 376 233 425 q 190 275 190 326 q 216 175 190 215 q 283 115 242 135 q 368 94 324 94 m 453 650 l 369 650 l 493 836 l 636 836 l 453 650 z "},"ợ":{"ha":796,"x_min":60,"x_max":808,"o":"m 808 601 q 756 479 789 522 q 676 421 724 436 q 696 315 696 371 q 663 167 696 243 q 556 39 631 92 q 364 -14 482 -14 q 219 19 289 -14 q 104 116 149 51 q 60 269 60 181 q 94 422 60 347 q 204 547 129 497 q 392 597 279 597 q 526 571 463 597 q 631 494 589 544 q 711 603 689 507 l 808 601 m 368 94 q 478 127 435 94 q 543 208 522 160 q 564 308 564 257 q 537 410 564 369 q 469 471 510 451 q 388 490 429 490 q 278 458 322 490 q 212 376 233 425 q 190 275 190 326 q 216 175 190 215 q 283 115 242 135 q 368 94 324 94 m 244 -142 q 267 -87 244 -110 q 325 -64 290 -64 q 377 -81 354 -64 q 400 -129 400 -99 q 376 -185 400 -162 q 318 -208 353 -208 q 266 -190 288 -207 q 244 -142 244 -172 z "},"ờ":{"ha":796,"x_min":60,"x_max":808,"o":"m 808 601 q 756 479 789 522 q 676 421 724 436 q 696 315 696 371 q 663 167 696 243 q 556 39 631 92 q 364 -14 482 -14 q 219 19 289 -14 q 104 116 149 51 q 60 269 60 181 q 94 422 60 347 q 204 547 129 497 q 392 597 279 597 q 526 571 463 597 q 631 494 589 544 q 711 603 689 507 l 808 601 m 368 94 q 478 127 435 94 q 543 208 522 160 q 564 308 564 257 q 537 410 564 369 q 469 471 510 451 q 388 490 429 490 q 278 458 322 490 q 212 376 233 425 q 190 275 190 326 q 216 175 190 215 q 283 115 242 135 q 368 94 324 94 m 446 688 l 363 688 l 210 874 l 354 874 l 446 688 z "},"ở":{"ha":796,"x_min":60,"x_max":808,"o":"m 808 601 q 756 479 789 522 q 676 421 724 436 q 696 315 696 371 q 663 167 696 243 q 556 39 631 92 q 364 -14 482 -14 q 219 19 289 -14 q 104 116 149 51 q 60 269 60 181 q 94 422 60 347 q 204 547 129 497 q 392 597 279 597 q 526 571 463 597 q 631 494 589 544 q 711 603 689 507 l 808 601 m 368 94 q 478 127 435 94 q 543 208 522 160 q 564 308 564 257 q 537 410 564 369 q 469 471 510 451 q 388 490 429 490 q 278 458 322 490 q 212 376 233 425 q 190 275 190 326 q 216 175 190 215 q 283 115 242 135 q 368 94 324 94 m 376 690 q 433 735 417 717 q 450 783 450 754 q 439 815 450 803 q 404 826 428 826 q 339 789 369 828 l 293 821 q 422 899 344 899 q 501 869 474 899 q 525 794 528 840 q 401 653 522 715 l 376 690 z "},"ỡ":{"ha":796,"x_min":60,"x_max":808,"o":"m 808 601 q 756 479 789 522 q 676 421 724 436 q 696 315 696 371 q 663 167 696 243 q 556 39 631 92 q 364 -14 482 -14 q 219 19 289 -14 q 104 116 149 51 q 60 269 60 181 q 94 422 60 347 q 204 547 129 497 q 392 597 279 597 q 526 571 463 597 q 631 494 589 544 q 711 603 689 507 l 808 601 m 368 94 q 478 127 435 94 q 543 208 522 160 q 564 308 564 257 q 537 410 564 369 q 469 471 510 451 q 388 490 429 490 q 278 458 322 490 q 212 376 233 425 q 190 275 190 326 q 216 175 190 215 q 283 115 242 135 q 368 94 324 94 m 518 639 q 440 659 469 639 q 375 718 410 679 q 336 756 351 744 q 299 768 321 768 q 251 737 271 768 q 225 654 231 706 l 143 661 q 197 809 150 750 q 314 868 243 868 q 381 848 353 868 q 439 792 408 828 q 482 748 465 761 q 521 735 499 735 q 589 853 575 735 l 669 846 q 648 738 669 785 q 592 665 626 690 q 518 639 558 639 z "},"ő":{"ha":758,"x_min":61,"x_max":728,"o":"m 367 -14 q 221 19 292 -14 q 106 116 150 51 q 61 269 61 181 q 96 423 61 347 q 206 548 131 499 q 394 597 281 597 q 543 563 474 597 q 655 465 613 529 q 697 315 697 400 q 665 167 697 243 q 558 39 632 92 q 367 -14 483 -14 m 371 94 q 480 127 436 94 q 544 208 524 160 q 565 308 565 257 q 539 410 565 369 q 472 471 513 451 q 389 490 431 490 q 280 458 324 490 q 215 376 236 425 q 193 275 193 326 q 219 175 193 215 q 285 115 244 135 q 371 94 326 94 m 478 874 q 339 733 418 810 l 293 688 l 211 688 l 360 874 l 478 874 m 728 874 q 589 733 668 810 l 543 688 l 461 688 q 611 874 551 800 l 728 874 z "},"ȏ":{"ha":758,"x_min":61,"x_max":697,"o":"m 367 -14 q 221 19 292 -14 q 106 116 150 51 q 61 269 61 181 q 96 423 61 347 q 206 548 131 499 q 394 597 281 597 q 543 563 474 597 q 655 465 613 529 q 697 315 697 400 q 665 167 697 243 q 558 39 632 92 q 367 -14 483 -14 m 371 94 q 480 127 436 94 q 544 208 524 160 q 565 308 565 257 q 539 410 565 369 q 472 471 513 451 q 389 490 431 490 q 280 458 324 490 q 215 376 236 425 q 193 275 193 326 q 219 175 193 215 q 285 115 244 135 q 371 94 326 94 m 424 892 q 563 831 507 892 q 617 639 618 771 l 529 639 q 498 763 531 722 q 419 803 465 803 q 289 639 326 803 l 200 639 q 279 828 221 764 q 424 892 338 892 z "},"ō":{"ha":758,"x_min":61,"x_max":697,"o":"m 367 -14 q 221 19 292 -14 q 106 116 150 51 q 61 269 61 181 q 96 423 61 347 q 206 548 131 499 q 394 597 281 597 q 543 563 474 597 q 655 465 613 529 q 697 315 697 400 q 665 167 697 243 q 558 39 632 92 q 367 -14 483 -14 m 371 94 q 480 127 436 94 q 544 208 524 160 q 565 308 565 257 q 539 410 565 369 q 472 471 513 451 q 389 490 431 490 q 280 458 324 490 q 215 376 236 425 q 193 275 193 326 q 219 175 193 215 q 285 115 244 135 q 371 94 326 94 m 579 760 l 571 685 l 247 685 l 256 760 l 579 760 z "},"ǫ":{"ha":760,"x_min":60,"x_max":696,"o":"m 508 15 q 398 -62 433 -29 q 363 -146 363 -96 q 381 -192 363 -175 q 426 -208 400 -208 q 524 -146 479 -208 l 565 -214 q 494 -276 539 -253 q 407 -300 450 -300 q 297 -259 342 -300 q 253 -156 253 -218 q 271 -80 253 -118 q 322 -11 289 -42 q 193 33 253 -3 q 97 128 133 68 q 60 269 60 189 q 94 422 60 347 q 204 547 129 497 q 392 597 279 597 q 541 563 471 597 q 653 465 611 529 q 696 315 696 400 q 655 151 696 231 q 532 29 614 72 l 508 15 m 190 275 q 216 175 190 215 q 283 115 242 135 q 368 94 324 94 q 478 127 435 94 q 543 208 522 160 q 564 308 564 257 q 537 410 564 369 q 469 471 510 451 q 388 490 429 490 q 278 458 322 490 q 212 376 233 425 q 190 275 190 326 z "},"ø":{"ha":719,"x_min":61,"x_max":704,"o":"m 704 561 q 665 522 704 561 q 635 492 665 522 q 697 315 697 418 q 665 167 697 243 q 558 39 632 92 q 367 -14 483 -14 q 186 39 268 -14 l 115 -33 l 67 18 q 132 83 132 83 q 61 269 61 158 q 96 423 61 347 q 206 548 131 499 q 394 597 281 597 q 583 539 501 597 q 651 608 638 593 l 704 561 m 193 275 q 219 174 193 215 l 499 454 q 389 490 450 490 q 280 458 324 490 q 215 376 236 425 q 193 275 193 326 m 565 308 q 544 400 565 358 l 269 124 q 371 94 315 94 q 480 127 436 94 q 544 208 524 160 q 565 308 565 257 z "},"ǿ":{"ha":719,"x_min":61,"x_max":704,"o":"m 704 561 q 665 522 704 561 q 635 492 665 522 q 697 315 697 418 q 665 167 697 243 q 558 39 632 92 q 367 -14 483 -14 q 186 39 268 -14 l 115 -33 l 67 18 q 132 83 132 83 q 61 269 61 158 q 96 423 61 347 q 206 548 131 499 q 394 597 281 597 q 583 539 501 597 q 651 608 638 593 l 704 561 m 193 275 q 219 174 193 215 l 499 454 q 389 490 450 490 q 280 458 324 490 q 215 376 236 425 q 193 275 193 326 m 565 308 q 544 400 565 358 l 269 124 q 371 94 315 94 q 480 127 436 94 q 544 208 524 160 q 565 308 565 257 m 456 650 l 372 650 l 496 836 l 639 836 l 456 650 z "},"õ":{"ha":758,"x_min":61,"x_max":697,"o":"m 367 -14 q 221 19 292 -14 q 106 116 150 51 q 61 269 61 181 q 96 423 61 347 q 206 548 131 499 q 394 597 281 597 q 543 563 474 597 q 655 465 613 529 q 697 315 697 400 q 665 167 697 243 q 558 39 632 92 q 367 -14 483 -14 m 371 94 q 480 127 436 94 q 544 208 524 160 q 565 308 565 257 q 539 410 565 369 q 472 471 513 451 q 389 490 431 490 q 280 458 324 490 q 215 376 236 425 q 193 275 193 326 q 219 175 193 215 q 285 115 244 135 q 371 94 326 94 m 521 639 q 442 659 472 639 q 378 718 413 679 q 339 756 354 744 q 301 768 324 768 q 253 737 274 768 q 228 654 233 706 l 146 661 q 199 809 153 750 q 317 868 246 868 q 383 848 356 868 q 442 792 411 828 q 485 748 468 761 q 524 735 501 735 q 592 853 578 735 l 672 846 q 651 738 672 785 q 595 665 629 690 q 521 639 561 639 z "},"ȭ":{"ha":758,"x_min":61,"x_max":697,"o":"m 367 -14 q 221 19 292 -14 q 106 116 150 51 q 61 269 61 181 q 96 423 61 347 q 206 548 131 499 q 394 597 281 597 q 543 563 474 597 q 655 465 613 529 q 697 315 697 400 q 665 167 697 243 q 558 39 632 92 q 367 -14 483 -14 m 371 94 q 480 127 436 94 q 544 208 524 160 q 565 308 565 257 q 539 410 565 369 q 472 471 513 451 q 389 490 431 490 q 280 458 324 490 q 215 376 236 425 q 193 275 193 326 q 219 175 193 215 q 285 115 244 135 q 371 94 326 94 m 521 639 q 442 659 472 639 q 378 718 413 679 q 339 756 354 744 q 301 768 324 768 q 253 737 274 768 q 228 654 233 706 l 146 661 q 199 809 153 750 q 317 868 246 868 q 383 848 356 868 q 442 792 411 828 q 485 748 468 761 q 524 735 501 735 q 592 853 578 735 l 672 846 q 651 738 672 785 q 595 665 629 690 q 521 639 561 639 m 624 1014 l 615 939 l 292 939 l 300 1014 l 624 1014 z "},"œ":{"ha":1097,"x_min":61,"x_max":1054,"o":"m 751 97 q 878 140 814 97 l 926 40 q 834 1 883 15 q 738 -12 785 -12 q 550 39 628 -12 q 459 -1 510 14 q 358 -15 408 -15 q 224 13 292 -15 q 108 105 156 42 q 61 263 61 168 q 100 419 61 344 q 211 540 139 493 q 381 588 283 588 q 567 538 489 588 q 767 597 651 597 q 956 535 879 597 q 1054 331 1032 472 l 583 199 q 652 123 607 149 q 751 97 697 97 m 763 494 q 658 467 703 494 q 588 393 613 439 q 564 293 564 347 l 564 279 l 913 378 q 857 463 897 431 q 763 494 817 494 m 192 271 q 244 143 192 194 q 381 92 297 92 q 476 114 432 92 q 435 279 435 185 q 488 456 435 374 q 389 479 443 479 q 292 452 338 479 q 219 377 246 425 q 192 271 192 329 z "},"p":{"ha":813,"x_min":43,"x_max":754,"o":"m 489 599 q 624 565 563 599 q 719 473 685 532 q 754 338 754 414 q 709 163 754 243 q 583 34 664 82 q 401 -14 503 -14 q 295 8 347 -14 q 210 67 243 31 l 172 -276 l 43 -276 l 150 585 l 263 585 l 260 506 q 374 574 314 549 q 489 599 433 599 m 399 96 q 513 126 463 96 q 593 208 564 157 q 622 318 622 260 q 570 444 622 394 q 444 494 518 494 q 322 455 376 494 q 243 347 268 415 l 229 243 q 281 140 239 185 q 399 96 322 96 z "},"þ":{"ha":789,"x_min":43,"x_max":728,"o":"m 467 590 q 657 519 586 590 q 728 326 728 447 q 683 142 728 219 q 560 26 638 65 q 386 -14 483 -14 q 272 12 322 -14 q 197 74 221 38 l 153 -276 l 43 -276 l 208 1076 l 319 1076 l 247 492 q 338 561 281 532 q 467 590 396 590 m 394 94 q 549 154 490 94 q 608 314 608 214 q 563 435 608 388 q 443 483 518 483 q 331 455 382 483 q 251 377 281 426 q 221 268 221 328 q 269 144 221 193 q 394 94 317 94 z "},"q":{"ha":817,"x_min":61,"x_max":740,"o":"m 740 575 l 636 -276 l 506 -276 l 547 68 q 451 10 508 33 q 325 -12 394 -12 q 197 22 257 -12 q 99 119 136 56 q 61 263 61 182 q 105 427 61 350 q 224 551 149 504 q 389 599 299 599 q 521 569 468 599 q 601 489 574 539 l 619 575 l 740 575 m 364 92 q 485 131 431 92 q 568 238 540 171 l 583 342 q 531 446 574 401 q 411 490 489 490 q 296 460 347 490 q 215 378 244 429 q 186 268 186 326 q 210 178 186 218 q 276 115 235 138 q 364 92 317 92 z "},"r":{"ha":526,"x_min":78,"x_max":507,"o":"m 253 436 q 367 553 293 510 q 507 599 440 597 l 485 469 q 368 444 422 472 q 280 367 314 417 q 239 263 246 318 l 207 0 l 78 0 l 147 575 l 264 575 l 253 436 z "},"ŕ":{"ha":526,"x_min":78,"x_max":507,"o":"m 253 436 q 367 553 293 510 q 507 599 440 597 l 485 469 q 368 444 422 472 q 280 367 314 417 q 239 263 246 318 l 207 0 l 78 0 l 147 575 l 264 575 l 253 436 m 319 694 l 236 694 l 360 881 l 503 881 l 319 694 z "},"ř":{"ha":526,"x_min":78,"x_max":533,"o":"m 253 436 q 367 553 293 510 q 507 599 440 597 l 485 469 q 368 444 422 472 q 280 367 314 417 q 239 263 246 318 l 207 0 l 78 0 l 147 575 l 264 575 l 253 436 m 533 964 l 278 711 l 276 711 l 81 964 l 200 964 l 293 835 l 414 964 l 533 964 z "},"ŗ":{"ha":526,"x_min":78,"x_max":507,"o":"m 253 436 q 367 553 293 510 q 507 599 440 597 l 485 469 q 368 444 422 472 q 280 367 314 417 q 239 263 246 318 l 207 0 l 78 0 l 147 575 l 264 575 l 253 436 m 81 -244 q 128 -178 111 -221 q 144 -86 144 -135 q 143 -61 144 -69 l 258 -62 q 260 -86 260 -69 q 229 -203 260 -144 q 147 -292 199 -261 l 81 -244 z "},"ȑ":{"ha":526,"x_min":3,"x_max":507,"o":"m 253 436 q 367 553 293 510 q 507 599 440 597 l 485 469 q 368 444 422 472 q 280 367 314 417 q 239 263 246 318 l 207 0 l 78 0 l 147 575 l 264 575 l 253 436 m 239 731 l 156 731 l 3 917 l 147 917 l 239 731 m 426 731 l 343 731 l 190 917 l 335 917 l 426 731 z "},"ȓ":{"ha":526,"x_min":64,"x_max":507,"o":"m 253 436 q 367 553 293 510 q 507 599 440 597 l 485 469 q 368 444 422 472 q 280 367 314 417 q 239 263 246 318 l 207 0 l 78 0 l 147 575 l 264 575 l 253 436 m 288 935 q 426 874 371 935 q 481 682 482 814 l 393 682 q 362 806 394 765 q 283 846 329 846 q 153 682 190 846 l 64 682 q 143 871 85 807 q 288 935 201 935 z "},"s":{"ha":568,"x_min":32,"x_max":511,"o":"m 257 -12 q 137 10 200 -12 q 32 90 74 33 l 96 161 q 256 82 161 82 q 326 106 303 82 q 350 158 350 131 q 333 201 350 185 q 297 227 317 218 q 226 256 278 236 q 99 411 99 307 q 119 494 99 453 q 187 565 140 536 q 304 594 233 594 q 413 578 357 594 q 511 519 468 563 l 450 442 q 390 488 425 474 q 319 503 356 503 q 255 481 278 503 q 232 431 232 458 q 257 383 233 400 q 311 353 281 365 q 353 338 342 342 q 449 275 415 310 q 482 182 482 240 q 458 92 482 136 q 384 17 435 47 q 257 -12 333 -12 z "},"ś":{"ha":568,"x_min":32,"x_max":579,"o":"m 257 -12 q 137 10 200 -12 q 32 90 74 33 l 96 161 q 256 82 161 82 q 326 106 303 82 q 350 158 350 131 q 333 201 350 185 q 297 227 317 218 q 226 256 278 236 q 99 411 99 307 q 119 494 99 453 q 187 565 140 536 q 304 594 233 594 q 413 578 357 594 q 511 519 468 563 l 450 442 q 390 488 425 474 q 319 503 356 503 q 255 481 278 503 q 232 431 232 458 q 257 383 233 400 q 311 353 281 365 q 353 338 342 342 q 449 275 415 310 q 482 182 482 240 q 458 92 482 136 q 384 17 435 47 q 257 -12 333 -12 m 396 694 l 313 694 l 436 881 l 579 881 l 396 694 z "},"š":{"ha":568,"x_min":32,"x_max":610,"o":"m 257 -12 q 137 10 200 -12 q 32 90 74 33 l 96 161 q 256 82 161 82 q 326 106 303 82 q 350 158 350 131 q 333 201 350 185 q 297 227 317 218 q 226 256 278 236 q 99 411 99 307 q 119 494 99 453 q 187 565 140 536 q 304 594 233 594 q 413 578 357 594 q 511 519 468 563 l 450 442 q 390 488 425 474 q 319 503 356 503 q 255 481 278 503 q 232 431 232 458 q 257 383 233 400 q 311 353 281 365 q 353 338 342 342 q 449 275 415 310 q 482 182 482 240 q 458 92 482 136 q 384 17 435 47 q 257 -12 333 -12 m 610 964 l 354 711 l 353 711 l 157 964 l 276 964 l 369 835 l 490 964 l 610 964 z "},"ş":{"ha":568,"x_min":32,"x_max":511,"o":"m 353 338 q 449 275 415 310 q 482 182 482 240 q 460 95 482 139 q 390 21 438 51 q 269 -12 342 -10 l 219 -64 l 232 -64 q 344 -97 303 -67 q 386 -181 386 -128 q 331 -284 386 -249 q 196 -319 276 -319 q 39 -258 90 -319 l 86 -206 q 122 -235 99 -224 q 174 -249 144 -247 q 245 -233 215 -250 q 275 -182 275 -215 q 183 -124 275 -124 q 101 -135 146 -124 l 86 -69 l 175 -1 q 32 90 82 22 l 96 161 q 256 82 161 82 q 326 106 303 82 q 350 158 350 131 q 333 201 350 185 q 297 227 317 218 q 226 256 278 236 q 99 411 99 307 q 119 494 99 453 q 187 565 140 536 q 304 594 233 594 q 413 578 357 594 q 511 519 468 563 l 450 442 q 390 488 425 474 q 319 503 356 503 q 255 481 278 503 q 232 431 232 458 q 257 383 233 400 q 311 353 281 365 q 353 338 342 342 z "},"ŝ":{"ha":568,"x_min":32,"x_max":575,"o":"m 257 -12 q 137 10 200 -12 q 32 90 74 33 l 96 161 q 256 82 161 82 q 326 106 303 82 q 350 158 350 131 q 333 201 350 185 q 297 227 317 218 q 226 256 278 236 q 99 411 99 307 q 119 494 99 453 q 187 565 140 536 q 304 594 233 594 q 413 578 357 594 q 511 519 468 563 l 450 442 q 390 488 425 474 q 319 503 356 503 q 255 481 278 503 q 232 431 232 458 q 257 383 233 400 q 311 353 281 365 q 353 338 342 342 q 449 275 415 310 q 482 182 482 240 q 458 92 482 136 q 384 17 435 47 q 257 -12 333 -12 m 456 731 l 363 860 l 242 731 l 124 731 l 378 983 l 575 731 l 456 731 z "},"ș":{"ha":568,"x_min":32,"x_max":511,"o":"m 257 -12 q 137 10 200 -12 q 32 90 74 33 l 96 161 q 256 82 161 82 q 326 106 303 82 q 350 158 350 131 q 333 201 350 185 q 297 227 317 218 q 226 256 278 236 q 99 411 99 307 q 119 494 99 453 q 187 565 140 536 q 304 594 233 594 q 413 578 357 594 q 511 519 468 563 l 450 442 q 390 488 425 474 q 319 503 356 503 q 255 481 278 503 q 232 431 232 458 q 257 383 233 400 q 311 353 281 365 q 353 338 342 342 q 449 275 415 310 q 482 182 482 240 q 458 92 482 136 q 384 17 435 47 q 257 -12 333 -12 m 104 -244 q 151 -178 135 -221 q 168 -86 168 -135 q 167 -61 168 -69 l 282 -62 q 283 -86 283 -69 q 253 -203 283 -144 q 171 -292 222 -261 l 104 -244 z "},"ß":{"ha":839,"x_min":81,"x_max":768,"o":"m 481 -8 q 380 7 429 -8 q 304 51 331 22 l 360 132 q 413 102 382 113 q 468 92 444 92 q 560 128 521 92 q 618 217 599 164 q 638 317 638 269 q 597 437 638 390 q 488 486 556 483 l 481 488 l 494 601 q 566 616 538 599 q 607 660 594 633 q 619 713 619 688 q 590 790 619 761 q 503 819 561 819 q 382 759 425 819 q 321 588 339 699 l 224 0 l 93 0 l 171 476 l 81 476 l 101 583 l 192 583 l 201 654 q 307 858 221 788 q 526 926 393 928 q 694 869 635 924 q 753 725 753 814 q 724 619 753 667 q 628 546 696 572 q 731 458 694 517 q 768 311 768 399 q 737 159 768 232 q 640 39 706 86 q 481 -8 575 -8 z "},"t":{"ha":500,"x_min":82,"x_max":488,"o":"m 361 828 l 329 574 l 488 574 l 475 471 l 317 471 l 260 0 l 131 0 l 188 471 l 82 471 l 94 574 l 200 574 l 231 828 l 361 828 z "},"ŧ":{"ha":500,"x_min":40,"x_max":488,"o":"m 317 471 l 301 339 l 417 339 l 400 208 l 285 208 l 260 0 l 131 0 l 156 208 l 40 208 l 57 339 l 172 339 l 188 471 l 82 471 l 94 574 l 200 574 l 231 828 l 361 828 l 329 574 l 488 574 l 475 471 l 317 471 z "},"ť":{"ha":500,"x_min":82,"x_max":582,"o":"m 361 828 l 329 574 l 488 574 l 475 471 l 317 471 l 260 0 l 131 0 l 188 471 l 82 471 l 94 574 l 200 574 l 231 828 l 361 828 m 582 1146 l 326 893 l 325 893 l 129 1146 l 249 1146 l 342 1017 l 463 1146 l 582 1146 z "},"ţ":{"ha":500,"x_min":24,"x_max":488,"o":"m 317 471 l 260 1 l 268 1 l 204 -64 l 217 -64 q 329 -97 288 -67 q 371 -181 371 -128 q 316 -284 371 -249 q 181 -319 261 -319 q 24 -258 75 -319 l 71 -206 q 106 -235 83 -224 q 158 -249 129 -247 q 230 -233 200 -250 q 260 -182 260 -215 q 168 -124 260 -124 q 86 -135 131 -124 l 71 -69 l 163 0 l 131 0 l 188 471 l 82 471 l 94 574 l 200 574 l 231 828 l 361 828 l 329 574 l 488 574 l 475 471 l 317 471 z "},"ț":{"ha":500,"x_min":82,"x_max":488,"o":"m 361 828 l 329 574 l 488 574 l 475 471 l 317 471 l 260 0 l 131 0 l 188 471 l 82 471 l 94 574 l 200 574 l 231 828 l 361 828 m 89 -244 q 136 -178 119 -221 q 153 -86 153 -135 q 151 -61 153 -69 l 267 -62 q 268 -86 268 -69 q 238 -203 268 -144 q 156 -292 207 -261 l 89 -244 z "},"u":{"ha":760,"x_min":94,"x_max":683,"o":"m 683 575 l 613 0 l 494 0 l 500 107 q 398 13 463 49 q 258 -22 333 -22 q 140 19 185 -22 q 94 128 94 60 q 96 149 94 142 l 147 575 l 278 575 l 231 193 q 249 118 226 146 q 322 89 272 90 q 413 117 369 89 q 484 196 456 146 q 519 307 513 246 l 553 575 l 683 575 z "},"ú":{"ha":760,"x_min":94,"x_max":683,"o":"m 683 575 l 613 0 l 494 0 l 500 107 q 398 13 463 49 q 258 -22 333 -22 q 140 19 185 -22 q 94 128 94 60 q 96 149 94 142 l 147 575 l 278 575 l 231 193 q 249 118 226 146 q 322 89 272 90 q 413 117 369 89 q 484 196 456 146 q 519 307 513 246 l 553 575 l 683 575 m 482 694 l 399 694 l 522 881 l 665 881 l 482 694 z "},"ŭ":{"ha":760,"x_min":94,"x_max":683,"o":"m 683 575 l 613 0 l 494 0 l 500 107 q 398 13 463 49 q 258 -22 333 -22 q 140 19 185 -22 q 94 128 94 60 q 96 149 94 142 l 147 575 l 278 575 l 231 193 q 249 118 226 146 q 322 89 272 90 q 413 117 369 89 q 484 196 456 146 q 519 307 513 246 l 553 575 l 683 575 m 440 704 q 301 765 357 704 q 247 957 246 825 l 335 957 q 366 833 333 874 q 444 793 399 793 q 575 957 538 793 l 664 957 q 585 768 643 832 q 440 704 526 704 z "},"û":{"ha":760,"x_min":94,"x_max":683,"o":"m 683 575 l 613 0 l 494 0 l 500 107 q 398 13 463 49 q 258 -22 333 -22 q 140 19 185 -22 q 94 128 94 60 q 96 149 94 142 l 147 575 l 278 575 l 231 193 q 249 118 226 146 q 322 89 272 90 q 413 117 369 89 q 484 196 456 146 q 519 307 513 246 l 553 575 l 683 575 m 542 731 l 449 860 l 328 731 l 210 731 l 464 983 l 661 731 l 542 731 z "},"ȕ":{"ha":760,"x_min":94,"x_max":683,"o":"m 683 575 l 613 0 l 494 0 l 500 107 q 398 13 463 49 q 258 -22 333 -22 q 140 19 185 -22 q 94 128 94 60 q 96 149 94 142 l 147 575 l 278 575 l 231 193 q 249 118 226 146 q 322 89 272 90 q 413 117 369 89 q 484 196 456 146 q 519 307 513 246 l 553 575 l 683 575 m 401 731 l 318 731 l 165 917 l 310 917 l 401 731 m 589 731 l 506 731 l 353 917 l 497 917 l 589 731 z "},"ü":{"ha":760,"x_min":94,"x_max":683,"o":"m 683 575 l 613 0 l 494 0 l 500 107 q 398 13 463 49 q 258 -22 333 -22 q 140 19 185 -22 q 94 128 94 60 q 96 149 94 142 l 147 575 l 278 575 l 231 193 q 249 118 226 146 q 322 89 272 90 q 413 117 369 89 q 484 196 456 146 q 519 307 513 246 l 553 575 l 683 575 m 243 789 q 267 844 243 822 q 321 867 292 867 q 367 847 347 867 q 388 796 388 826 q 363 740 388 763 q 308 719 338 717 q 263 740 282 721 q 243 789 243 760 m 501 789 q 526 844 501 822 q 579 867 550 867 q 626 846 606 867 q 646 796 646 825 q 621 740 646 763 q 567 719 596 717 q 521 740 540 721 q 501 789 501 760 z "},"ụ":{"ha":760,"x_min":94,"x_max":683,"o":"m 683 575 l 613 0 l 494 0 l 500 107 q 398 13 463 49 q 258 -22 333 -22 q 140 19 185 -22 q 94 128 94 60 q 96 149 94 142 l 147 575 l 278 575 l 231 193 q 249 118 226 146 q 322 89 272 90 q 413 117 369 89 q 484 196 456 146 q 519 307 513 246 l 553 575 l 683 575 m 260 -160 q 283 -105 260 -128 q 340 -82 306 -82 q 392 -99 369 -82 q 415 -147 415 -117 q 392 -203 415 -181 q 333 -226 368 -226 q 281 -208 303 -225 q 260 -160 260 -190 z "},"ù":{"ha":760,"x_min":94,"x_max":683,"o":"m 683 575 l 613 0 l 494 0 l 500 107 q 398 13 463 49 q 258 -22 333 -22 q 140 19 185 -22 q 94 128 94 60 q 96 149 94 142 l 147 575 l 278 575 l 231 193 q 249 118 226 146 q 322 89 272 90 q 413 117 369 89 q 484 196 456 146 q 519 307 513 246 l 553 575 l 683 575 m 475 731 l 392 731 l 239 917 l 383 917 l 475 731 z "},"ủ":{"ha":760,"x_min":94,"x_max":683,"o":"m 683 575 l 613 0 l 494 0 l 500 107 q 398 13 463 49 q 258 -22 333 -22 q 140 19 185 -22 q 94 128 94 60 q 96 149 94 142 l 147 575 l 278 575 l 231 193 q 249 118 226 146 q 322 89 272 90 q 413 117 369 89 q 484 196 456 146 q 519 307 513 246 l 553 575 l 683 575 m 406 733 q 463 778 446 760 q 479 826 479 797 q 468 858 479 846 q 433 869 457 869 q 368 832 399 871 l 322 864 q 451 942 374 942 q 530 913 503 942 q 554 838 557 883 q 431 696 551 758 l 406 733 z "},"ư":{"ha":868,"x_min":94,"x_max":881,"o":"m 881 575 q 799 419 854 464 q 658 374 743 374 l 613 0 l 494 0 l 500 107 q 398 13 463 49 q 258 -22 333 -22 q 140 19 185 -22 q 94 128 94 60 q 96 149 94 142 l 147 575 l 278 575 l 231 193 q 249 118 226 146 q 322 89 272 90 q 413 117 369 89 q 484 196 456 146 q 519 307 513 246 l 553 575 l 683 575 l 668 454 q 742 488 714 458 q 783 575 769 517 l 881 575 z "},"ứ":{"ha":868,"x_min":94,"x_max":881,"o":"m 881 575 q 799 419 854 464 q 658 374 743 374 l 613 0 l 494 0 l 500 107 q 398 13 463 49 q 258 -22 333 -22 q 140 19 185 -22 q 94 128 94 60 q 96 149 94 142 l 147 575 l 278 575 l 231 193 q 249 118 226 146 q 322 89 272 90 q 413 117 369 89 q 484 196 456 146 q 519 307 513 246 l 553 575 l 683 575 l 668 454 q 742 488 714 458 q 783 575 769 517 l 881 575 m 482 694 l 399 694 l 522 881 l 665 881 l 482 694 z "},"ự":{"ha":868,"x_min":94,"x_max":881,"o":"m 881 575 q 799 419 854 464 q 658 374 743 374 l 613 0 l 494 0 l 500 107 q 398 13 463 49 q 258 -22 333 -22 q 140 19 185 -22 q 94 128 94 60 q 96 149 94 142 l 147 575 l 278 575 l 231 193 q 249 118 226 146 q 322 89 272 90 q 413 117 369 89 q 484 196 456 146 q 519 307 513 246 l 553 575 l 683 575 l 668 454 q 742 488 714 458 q 783 575 769 517 l 881 575 m 260 -160 q 283 -105 260 -128 q 340 -82 306 -82 q 392 -99 369 -82 q 415 -147 415 -117 q 392 -203 415 -181 q 333 -226 368 -226 q 281 -208 303 -225 q 260 -160 260 -190 z "},"ừ":{"ha":868,"x_min":94,"x_max":881,"o":"m 881 575 q 799 419 854 464 q 658 374 743 374 l 613 0 l 494 0 l 500 107 q 398 13 463 49 q 258 -22 333 -22 q 140 19 185 -22 q 94 128 94 60 q 96 149 94 142 l 147 575 l 278 575 l 231 193 q 249 118 226 146 q 322 89 272 90 q 413 117 369 89 q 484 196 456 146 q 519 307 513 246 l 553 575 l 683 575 l 668 454 q 742 488 714 458 q 783 575 769 517 l 881 575 m 475 731 l 392 731 l 239 917 l 383 917 l 475 731 z "},"ử":{"ha":868,"x_min":94,"x_max":881,"o":"m 881 575 q 799 419 854 464 q 658 374 743 374 l 613 0 l 494 0 l 500 107 q 398 13 463 49 q 258 -22 333 -22 q 140 19 185 -22 q 94 128 94 60 q 96 149 94 142 l 147 575 l 278 575 l 231 193 q 249 118 226 146 q 322 89 272 90 q 413 117 369 89 q 484 196 456 146 q 519 307 513 246 l 553 575 l 683 575 l 668 454 q 742 488 714 458 q 783 575 769 517 l 881 575 m 406 733 q 463 778 446 760 q 479 826 479 797 q 468 858 479 846 q 433 869 457 869 q 368 832 399 871 l 322 864 q 451 942 374 942 q 530 913 503 942 q 554 838 557 883 q 431 696 551 758 l 406 733 z "},"ữ":{"ha":868,"x_min":94,"x_max":881,"o":"m 881 575 q 799 419 854 464 q 658 374 743 374 l 613 0 l 494 0 l 500 107 q 398 13 463 49 q 258 -22 333 -22 q 140 19 185 -22 q 94 128 94 60 q 96 149 94 142 l 147 575 l 278 575 l 231 193 q 249 118 226 146 q 322 89 272 90 q 413 117 369 89 q 484 196 456 146 q 519 307 513 246 l 553 575 l 683 575 l 668 454 q 742 488 714 458 q 783 575 769 517 l 881 575 m 547 682 q 469 702 499 682 q 404 761 439 722 q 365 799 381 788 q 328 811 350 811 q 280 780 300 811 q 254 697 260 749 l 172 704 q 226 852 179 793 q 343 911 272 911 q 410 891 382 911 q 468 835 438 871 q 511 791 494 804 q 550 778 528 778 q 618 896 604 778 l 699 889 q 677 781 699 828 q 622 708 656 733 q 547 682 588 682 z "},"ű":{"ha":760,"x_min":94,"x_max":754,"o":"m 683 575 l 613 0 l 494 0 l 500 107 q 398 13 463 49 q 258 -22 333 -22 q 140 19 185 -22 q 94 128 94 60 q 96 149 94 142 l 147 575 l 278 575 l 231 193 q 249 118 226 146 q 322 89 272 90 q 413 117 369 89 q 484 196 456 146 q 519 307 513 246 l 553 575 l 683 575 m 504 917 q 365 776 444 853 l 319 731 l 238 731 l 386 917 l 504 917 m 754 917 q 615 776 694 853 l 569 731 l 488 731 q 638 917 578 843 l 754 917 z "},"ȗ":{"ha":760,"x_min":94,"x_max":683,"o":"m 683 575 l 613 0 l 494 0 l 500 107 q 398 13 463 49 q 258 -22 333 -22 q 140 19 185 -22 q 94 128 94 60 q 96 149 94 142 l 147 575 l 278 575 l 231 193 q 249 118 226 146 q 322 89 272 90 q 413 117 369 89 q 484 196 456 146 q 519 307 513 246 l 553 575 l 683 575 m 450 935 q 589 874 533 935 q 643 682 644 814 l 556 682 q 524 806 557 765 q 446 846 492 846 q 315 682 353 846 l 226 682 q 306 871 247 807 q 450 935 364 935 z "},"ū":{"ha":760,"x_min":94,"x_max":683,"o":"m 683 575 l 613 0 l 494 0 l 500 107 q 398 13 463 49 q 258 -22 333 -22 q 140 19 185 -22 q 94 128 94 60 q 96 149 94 142 l 147 575 l 278 575 l 231 193 q 249 118 226 146 q 322 89 272 90 q 413 117 369 89 q 484 196 456 146 q 519 307 513 246 l 553 575 l 683 575 m 606 803 l 597 728 l 274 728 l 282 803 l 606 803 z "},"ų":{"ha":760,"x_min":90,"x_max":689,"o":"m 689 -211 q 617 -273 663 -249 q 531 -297 572 -297 q 421 -256 465 -297 q 376 -153 376 -215 q 405 -60 376 -106 q 492 15 433 -15 l 497 118 q 397 17 461 56 q 254 -22 332 -22 q 135 19 181 -22 q 90 129 90 61 l 92 149 l 144 575 l 274 575 l 226 193 q 246 118 224 146 q 318 89 268 90 q 409 117 367 89 q 481 196 451 146 q 517 307 510 246 l 550 575 l 679 575 l 608 0 q 486 -133 488 -65 q 501 -186 483 -168 q 547 -204 519 -204 q 647 -143 600 -208 l 689 -211 z "},"ů":{"ha":754,"x_min":94,"x_max":683,"o":"m 458 631 q 385 660 415 631 q 356 735 356 690 q 396 823 356 785 q 486 861 436 861 q 558 831 529 861 q 588 757 588 800 q 548 669 588 707 q 458 631 508 631 m 479 796 q 438 779 456 796 q 421 739 421 763 q 434 708 421 721 q 467 694 447 694 q 506 711 489 694 q 524 750 524 728 q 511 783 524 769 q 479 796 499 796 m 683 575 l 613 0 l 494 0 l 500 107 q 398 13 463 49 q 258 -22 333 -22 q 140 19 185 -22 q 94 128 94 60 q 96 149 94 142 l 147 575 l 278 575 l 231 193 q 249 118 226 146 q 322 89 272 90 q 413 117 369 89 q 484 196 456 146 q 519 307 513 246 l 553 575 l 683 575 z "},"ũ":{"ha":760,"x_min":94,"x_max":699,"o":"m 683 575 l 613 0 l 494 0 l 500 107 q 398 13 463 49 q 258 -22 333 -22 q 140 19 185 -22 q 94 128 94 60 q 96 149 94 142 l 147 575 l 278 575 l 231 193 q 249 118 226 146 q 322 89 272 90 q 413 117 369 89 q 484 196 456 146 q 519 307 513 246 l 553 575 l 683 575 m 547 682 q 469 702 499 682 q 404 761 439 722 q 365 799 381 788 q 328 811 350 811 q 280 780 300 811 q 254 697 260 749 l 172 704 q 226 852 179 793 q 343 911 272 911 q 410 891 382 911 q 468 835 438 871 q 511 791 494 804 q 550 778 528 778 q 618 896 604 778 l 699 889 q 677 781 699 828 q 622 708 656 733 q 547 682 588 682 z "},"v":{"ha":688,"x_min":58,"x_max":692,"o":"m 692 575 l 313 -17 l 307 -17 l 58 575 l 213 575 l 342 211 l 547 575 l 692 575 z "},"w":{"ha":938,"x_min":58,"x_max":943,"o":"m 943 575 l 610 -21 l 601 -21 l 468 368 l 256 -19 l 247 -19 l 58 575 l 186 575 l 296 236 l 433 479 l 401 575 l 514 575 l 626 225 l 815 575 l 943 575 z "},"ẃ":{"ha":938,"x_min":58,"x_max":943,"o":"m 943 575 l 610 -21 l 601 -21 l 468 368 l 256 -19 l 247 -19 l 58 575 l 186 575 l 296 236 l 433 479 l 401 575 l 514 575 l 626 225 l 815 575 l 943 575 m 560 638 l 476 638 l 600 824 l 743 824 l 560 638 z "},"ŵ":{"ha":938,"x_min":58,"x_max":943,"o":"m 943 575 l 610 -21 l 601 -21 l 468 368 l 256 -19 l 247 -19 l 58 575 l 186 575 l 296 236 l 433 479 l 401 575 l 514 575 l 626 225 l 815 575 l 943 575 m 619 675 l 526 804 l 406 675 l 288 675 l 542 928 l 739 675 l 619 675 z "},"ẅ":{"ha":938,"x_min":58,"x_max":943,"o":"m 943 575 l 610 -21 l 601 -21 l 468 368 l 256 -19 l 247 -19 l 58 575 l 186 575 l 296 236 l 433 479 l 401 575 l 514 575 l 626 225 l 815 575 l 943 575 m 321 733 q 345 789 321 767 q 399 811 369 811 q 445 791 425 811 q 465 740 465 771 q 440 684 465 707 q 386 664 415 661 q 340 685 360 665 q 321 733 321 704 m 579 733 q 603 789 579 767 q 657 811 628 811 q 703 790 683 811 q 724 740 724 769 q 699 684 724 707 q 644 664 674 661 q 599 685 618 665 q 579 733 579 704 z "},"ẁ":{"ha":938,"x_min":58,"x_max":943,"o":"m 943 575 l 610 -21 l 601 -21 l 468 368 l 256 -19 l 247 -19 l 58 575 l 186 575 l 296 236 l 433 479 l 401 575 l 514 575 l 626 225 l 815 575 l 943 575 m 553 675 l 469 675 l 317 861 l 461 861 l 553 675 z "},"x":{"ha":635,"x_min":7,"x_max":643,"o":"m 408 296 l 594 0 l 438 0 l 308 204 l 140 0 l 7 0 l 254 289 l 72 575 l 232 575 l 357 376 l 510 575 l 643 575 l 408 296 z "},"y":{"ha":688,"x_min":79,"x_max":713,"o":"m 713 575 l 238 -276 l 107 -276 l 276 21 l 79 575 l 225 575 l 358 167 l 590 575 l 713 575 z "},"ý":{"ha":736,"x_min":79,"x_max":713,"o":"m 713 575 l 238 -276 l 107 -276 l 276 21 l 79 575 l 225 575 l 358 167 l 590 575 l 713 575 m 450 675 l 367 675 l 490 861 l 633 861 l 450 675 z "},"ŷ":{"ha":833,"x_min":79,"x_max":713,"o":"m 713 575 l 238 -276 l 107 -276 l 276 21 l 79 575 l 225 575 l 358 167 l 590 575 l 713 575 m 493 675 l 400 804 l 279 675 l 161 675 l 415 928 l 613 675 l 493 675 z "},"ÿ":{"ha":661,"x_min":79,"x_max":713,"o":"m 713 575 l 238 -276 l 107 -276 l 276 21 l 79 575 l 225 575 l 358 167 l 590 575 l 713 575 m 217 733 q 241 789 217 767 q 294 811 265 811 q 341 791 321 811 q 361 740 361 771 q 336 684 361 707 q 282 664 311 661 q 236 685 256 665 q 217 733 217 704 m 475 733 q 499 789 475 767 q 553 811 524 811 q 599 790 579 811 q 619 740 619 769 q 594 684 619 707 q 540 664 569 661 q 494 685 514 665 q 475 733 475 704 z "},"ỵ":{"ha":688,"x_min":79,"x_max":713,"o":"m 713 575 l 238 -276 l 107 -276 l 276 21 l 79 575 l 225 575 l 358 167 l 590 575 l 713 575 m 435 -147 q 458 -92 435 -115 q 515 -69 481 -69 q 567 -87 544 -69 q 590 -135 590 -104 q 567 -191 590 -168 q 508 -214 543 -214 q 456 -195 478 -212 q 435 -147 435 -178 z "},"ỳ":{"ha":688,"x_min":79,"x_max":713,"o":"m 713 575 l 238 -276 l 107 -276 l 276 21 l 79 575 l 225 575 l 358 167 l 590 575 l 713 575 m 454 675 l 371 675 l 218 861 l 363 861 l 454 675 z "},"ỷ":{"ha":688,"x_min":79,"x_max":713,"o":"m 713 575 l 238 -276 l 107 -276 l 276 21 l 79 575 l 225 575 l 358 167 l 590 575 l 713 575 m 385 678 q 442 723 425 704 q 458 771 458 742 q 447 802 458 790 q 413 814 436 814 q 347 776 378 815 l 301 808 q 431 886 353 886 q 509 857 482 886 q 533 782 536 828 q 410 640 531 703 l 385 678 z "},"ȳ":{"ha":688,"x_min":79,"x_max":713,"o":"m 713 575 l 238 -276 l 107 -276 l 276 21 l 79 575 l 225 575 l 358 167 l 590 575 l 713 575 m 585 747 l 576 672 l 253 672 l 261 747 l 585 747 z "},"ỹ":{"ha":833,"x_min":79,"x_max":713,"o":"m 713 575 l 238 -276 l 107 -276 l 276 21 l 79 575 l 225 575 l 358 167 l 590 575 l 713 575 m 497 626 q 419 647 449 626 q 354 706 389 667 q 315 744 331 732 q 278 756 300 756 q 230 724 250 756 q 204 642 210 693 l 122 649 q 176 797 129 738 q 293 856 222 856 q 360 835 332 856 q 418 779 388 815 q 461 735 444 749 q 500 722 478 722 q 568 840 554 722 l 649 833 q 627 725 649 772 q 572 652 606 678 q 497 626 538 626 z "},"z":{"ha":643,"x_min":3,"x_max":608,"o":"m 225 107 l 547 107 l 533 0 l 3 0 l 383 468 l 192 468 q 121 491 147 468 q 94 557 94 514 q 96 575 94 569 l 101 631 l 200 631 l 200 613 q 206 583 197 590 q 240 575 214 575 l 608 575 l 225 107 z "},"ź":{"ha":671,"x_min":3,"x_max":608,"o":"m 225 107 l 547 107 l 533 0 l 3 0 l 383 468 l 192 468 q 121 491 147 468 q 94 557 94 514 q 96 575 94 569 l 101 631 l 200 631 l 200 613 q 206 583 197 590 q 240 575 214 575 l 608 575 l 225 107 m 399 675 l 315 675 l 439 861 l 582 861 l 399 675 z "},"ž":{"ha":671,"x_min":3,"x_max":674,"o":"m 225 107 l 547 107 l 533 0 l 3 0 l 383 468 l 192 468 q 121 491 147 468 q 94 557 94 514 q 96 575 94 569 l 101 631 l 200 631 l 200 613 q 206 583 197 590 q 240 575 214 575 l 608 575 l 225 107 m 674 928 l 418 675 l 417 675 l 221 928 l 340 928 l 433 799 l 554 928 l 674 928 z "},"ż":{"ha":671,"x_min":3,"x_max":608,"o":"m 225 107 l 547 107 l 533 0 l 3 0 l 383 468 l 192 468 q 121 491 147 468 q 94 557 94 514 q 96 575 94 569 l 101 631 l 200 631 l 200 613 q 206 583 197 590 q 240 575 214 575 l 608 575 l 225 107 m 335 788 q 358 842 335 819 q 415 865 381 865 q 467 848 444 865 q 490 800 490 831 q 467 744 490 767 q 408 721 443 721 q 356 740 378 722 q 335 788 335 757 z "},"ﬁ":{"ha":806,"x_min":79,"x_max":754,"o":"m 178 460 l 79 460 l 94 576 l 192 576 l 221 818 q 301 1010 236 943 q 476 1076 367 1076 q 541 1067 507 1076 q 600 1042 575 1058 l 532 947 q 478 969 514 969 q 393 933 425 969 q 351 817 361 897 l 322 576 l 488 576 l 472 460 l 307 460 l 251 0 l 122 0 l 178 460 m 599 765 q 622 820 599 797 q 679 843 644 843 q 731 826 708 843 q 754 778 754 808 q 731 722 754 744 q 672 699 707 699 q 620 717 642 700 q 599 765 599 735 m 718 575 l 647 0 l 517 0 l 588 575 l 718 575 z "},"ﬂ":{"ha":818,"x_min":79,"x_max":803,"o":"m 178 460 l 79 460 l 94 576 l 192 576 l 221 818 q 301 1010 236 943 q 476 1076 367 1076 q 541 1067 507 1076 q 600 1042 575 1058 l 532 947 q 478 969 514 969 q 393 933 425 969 q 351 817 361 897 l 322 576 l 488 576 l 472 460 l 307 460 l 251 0 l 122 0 l 178 460 m 803 1076 l 671 0 l 542 0 l 672 1076 l 803 1076 z "},"ª":{"ha":556,"x_min":104,"x_max":556,"o":"m 556 993 l 507 594 l 407 594 l 415 661 q 354 609 393 632 q 265 586 315 586 q 149 631 193 586 q 104 757 104 676 q 134 887 104 831 q 213 974 164 943 q 314 1006 261 1006 q 449 926 415 1006 l 463 993 l 556 993 m 438 833 q 404 899 432 874 q 336 925 376 925 q 245 883 283 925 q 207 778 207 840 q 235 699 207 731 q 306 668 263 668 q 382 694 349 668 q 428 765 415 721 l 438 833 z "},"º":{"ha":525,"x_min":107,"x_max":542,"o":"m 107 774 q 137 891 107 839 q 219 973 167 943 q 335 1003 271 1003 q 485 947 428 1003 q 542 806 542 892 q 513 692 542 743 q 431 613 483 642 q 315 583 379 583 q 165 635 222 583 q 107 774 107 688 m 210 799 q 235 708 204 746 q 315 671 265 671 q 403 710 367 671 q 440 801 440 749 q 410 883 440 850 q 332 915 379 915 q 251 881 286 915 q 210 799 217 847 z "},"Δ":{"ha":1025,"x_min":6,"x_max":943,"o":"m 943 0 l 6 0 l 599 1046 l 606 1046 l 943 0 m 567 749 l 217 129 l 758 129 l 567 749 z "},"μ":{"ha":760,"x_min":36,"x_max":683,"o":"m 683 575 l 613 0 l 494 0 l 500 107 q 398 13 463 49 q 258 -22 333 -22 q 193 -12 228 -22 l 154 -326 l 36 -326 l 115 315 l 147 575 l 278 575 l 231 193 q 249 118 226 146 q 322 89 272 90 q 413 117 369 89 q 484 196 456 146 q 519 307 513 246 l 553 575 l 683 575 z "},"π":{"ha":526,"x_min":54,"x_max":575,"o":"m 575 488 l 561 374 l 486 374 l 440 0 l 324 0 l 369 374 l 249 374 l 203 0 l 85 0 l 131 374 l 54 374 l 68 488 l 575 488 z "},"¹":{"ha":378,"x_min":129,"x_max":346,"o":"m 346 929 l 285 413 l 163 413 l 211 813 l 129 813 l 142 929 l 346 929 z "},"²":{"ha":561,"x_min":122,"x_max":526,"o":"m 526 818 q 472 672 526 740 q 325 533 417 603 l 514 533 l 500 425 l 122 425 l 132 496 q 308 629 239 567 q 386 756 378 692 q 388 778 388 764 q 311 856 388 856 q 247 839 279 856 q 197 799 215 822 l 168 883 q 249 942 196 919 q 358 965 303 965 q 481 924 436 963 q 526 818 526 886 z "},"³":{"ha":542,"x_min":100,"x_max":483,"o":"m 346 761 q 429 712 392 753 q 467 618 467 671 l 465 603 q 393 472 454 524 q 244 421 332 421 q 158 440 193 421 q 100 486 122 460 l 147 561 q 240 507 190 501 q 313 536 285 510 q 347 606 342 563 q 327 674 353 649 q 260 700 301 700 q 193 686 226 700 l 188 699 l 315 861 l 164 861 l 176 956 l 483 956 l 346 761 z "},"⁴":{"ha":538,"x_min":83,"x_max":506,"o":"m 497 550 l 435 550 l 418 413 l 306 413 l 322 550 l 83 550 l 86 585 l 404 940 l 483 940 l 444 625 l 506 625 l 497 550 m 332 625 l 350 769 l 221 625 l 332 625 z "},"⁄":{"ha":417,"x_min":-47,"x_max":594,"o":"m 333 532 q 72 0 290 442 l -47 0 q 267 638 58 213 q 476 1063 338 779 l 594 1063 l 333 532 z "},"½":{"ha":1225,"x_min":151,"x_max":1099,"o":"m 368 929 l 307 413 l 185 413 l 233 813 l 151 813 l 164 929 l 368 929 m 636 532 q 375 0 593 442 l 256 0 q 569 638 361 213 q 779 1063 640 779 l 897 1063 l 636 532 m 1099 392 q 1044 245 1099 314 q 897 107 989 176 l 1086 107 l 1072 -1 l 694 -1 l 704 69 q 881 203 811 140 q 958 329 950 265 q 960 351 960 338 q 883 429 960 429 q 819 413 851 429 q 769 372 788 396 l 740 457 q 822 516 768 493 q 931 539 875 539 q 1053 498 1008 536 q 1099 392 1099 460 z "},"¼":{"ha":1210,"x_min":129,"x_max":1135,"o":"m 346 929 l 285 413 l 163 413 l 211 813 l 129 813 l 142 929 l 346 929 m 679 532 q 418 0 636 442 l 299 0 q 613 638 404 213 q 822 1063 683 779 l 940 1063 l 679 532 m 1126 146 l 1064 146 l 1047 8 l 935 8 l 951 146 l 713 146 l 715 181 l 1033 536 l 1113 536 l 1074 221 l 1135 221 l 1126 146 m 961 221 l 979 365 l 850 221 l 961 221 z "},"¾":{"ha":1228,"x_min":93,"x_max":1153,"o":"m 339 761 q 422 712 385 753 q 460 618 460 671 l 458 603 q 386 472 447 524 q 238 421 325 421 q 151 440 186 421 q 93 486 115 460 l 140 561 q 233 507 183 501 q 306 536 278 510 q 340 606 335 563 q 320 674 346 649 q 253 700 294 700 q 186 686 219 700 l 181 699 l 308 861 l 157 861 l 169 956 l 476 956 l 339 761 m 706 532 q 444 0 663 442 l 325 0 q 639 638 431 213 q 849 1063 710 779 l 967 1063 l 706 532 m 1144 138 l 1082 138 l 1065 0 l 953 0 l 969 138 l 731 138 l 733 172 l 1051 528 l 1131 528 l 1092 213 l 1153 213 l 1144 138 m 979 213 l 997 357 l 868 213 l 979 213 z "},"*":{"ha":465,"x_min":133,"x_max":535,"o":"m 165 667 l 133 739 q 200 774 178 761 l 251 800 l 150 867 l 196 933 q 300 868 265 889 l 317 1000 l 400 1000 l 382 868 l 504 932 q 535 865 524 888 l 411 799 l 451 774 l 517 735 l 467 663 q 435 682 453 671 q 397 707 418 693 l 363 729 l 346 603 l 268 603 l 283 729 l 165 667 z "},"\\":{"ha":542,"x_min":126,"x_max":519,"o":"m 519 -26 l 388 -26 l 126 1036 l 258 1036 l 519 -26 z "},"·":{"ha":296,"x_min":103,"x_max":249,"o":"m 103 389 q 128 448 103 424 q 186 472 154 472 q 230 452 211 472 q 249 404 249 432 q 223 347 249 371 q 168 324 197 324 q 122 342 142 324 q 103 389 103 361 z "},"•":{"ha":674,"x_min":210,"x_max":569,"o":"m 210 404 q 238 503 210 457 q 312 576 265 549 q 411 603 358 603 q 524 556 479 603 q 569 440 569 508 q 541 342 569 388 q 466 271 513 297 q 367 244 419 244 q 254 290 299 244 q 210 404 210 336 z "},":":{"ha":247,"x_min":54,"x_max":247,"o":"m 101 443 q 127 502 101 478 q 185 526 153 526 q 228 507 210 526 q 247 458 247 488 q 222 401 247 425 q 167 378 196 378 q 121 397 140 378 q 101 443 101 415 m 54 65 q 81 124 54 100 q 139 149 107 149 q 183 128 164 149 q 201 81 201 108 q 176 24 201 47 q 121 0 150 0 q 74 19 94 0 q 54 65 54 38 z "},",":{"ha":282,"x_min":-12,"x_max":167,"o":"m -12 -233 q 35 -167 18 -210 q 51 -75 51 -124 q 50 -50 51 -58 l 165 -51 q 167 -75 167 -58 q 136 -192 167 -133 q 54 -281 106 -250 l -12 -233 z "},"…":{"ha":690,"x_min":56,"x_max":661,"o":"m 56 65 q 81 124 56 100 q 139 149 107 149 q 183 128 164 149 q 201 81 201 108 q 176 24 201 47 q 121 0 150 0 q 75 19 94 0 q 56 65 56 38 m 285 65 q 311 124 285 100 q 369 149 338 149 q 413 128 394 149 q 432 81 432 108 q 406 24 432 47 q 350 0 381 0 q 304 19 324 0 q 285 65 285 38 m 515 65 q 541 124 515 100 q 599 149 567 149 q 642 128 624 149 q 661 81 661 108 q 635 24 661 47 q 581 0 610 0 q 535 19 554 0 q 515 65 515 38 z "},"!":{"ha":279,"x_min":44,"x_max":297,"o":"m 297 1038 l 200 242 l 83 242 l 181 1038 l 297 1038 m 117 -4 q 65 13 85 -4 q 44 57 44 31 q 67 107 44 86 q 122 128 90 128 q 138 126 132 128 q 176 104 163 121 q 189 65 189 88 q 186 46 189 60 q 160 9 179 22 q 117 -4 142 -4 z "},"¡":{"ha":279,"x_min":17,"x_max":269,"o":"m 197 764 q 249 747 229 764 q 269 703 269 729 q 247 653 269 674 q 192 632 224 632 q 176 633 182 632 q 138 656 151 639 q 125 694 125 672 q 128 714 125 700 q 153 751 135 738 q 197 764 172 764 m 17 -278 l 114 518 l 231 518 l 133 -278 l 17 -278 z "},"#":{"ha":803,"x_min":68,"x_max":807,"o":"m 404 636 l 546 636 q 567 724 554 674 q 588 803 581 775 l 613 904 l 731 904 q 681 704 731 904 l 664 636 l 807 636 l 782 522 l 638 522 q 603 379 628 486 l 746 379 q 718 264 725 293 l 574 264 l 536 101 l 511 0 l 393 0 l 457 264 l 315 264 q 285 138 293 169 q 253 0 263 46 l 133 0 l 197 264 l 68 264 q 96 379 89 350 l 225 379 q 243 451 233 407 l 260 522 l 132 522 l 157 636 l 286 636 l 354 904 l 472 904 l 404 636 m 378 522 q 343 379 353 415 l 485 379 l 518 522 l 378 522 z "},".":{"ha":231,"x_min":56,"x_max":201,"o":"m 56 65 q 81 124 56 100 q 139 149 107 149 q 183 128 164 149 q 201 81 201 108 q 176 24 201 47 q 121 0 150 0 q 75 19 94 0 q 56 65 56 38 z "},"?":{"ha":621,"x_min":101,"x_max":653,"o":"m 218 367 q 257 463 226 429 q 350 535 288 496 q 411 575 400 567 q 533 775 533 664 q 495 876 533 836 q 396 915 457 915 q 274 882 319 915 q 199 778 229 849 q 101 815 144 797 q 410 1031 197 1031 q 535 997 479 1031 q 622 908 590 964 q 653 783 653 851 q 610 633 653 699 q 483 513 567 568 l 456 494 q 371 428 401 460 q 333 340 340 396 l 319 231 l 201 231 l 218 367 m 231 1 q 185 19 204 1 q 165 67 165 38 q 192 124 165 100 q 249 147 218 147 q 292 128 274 147 q 311 81 311 108 q 286 24 311 47 q 231 1 261 1 z "},"¿":{"ha":600,"x_min":3,"x_max":554,"o":"m 425 747 q 471 729 451 747 q 490 682 490 711 q 464 625 490 649 q 407 601 438 601 q 363 621 382 601 q 344 668 344 640 q 369 724 344 701 q 425 747 394 747 m 438 382 q 399 286 429 319 q 306 214 368 253 q 244 174 256 182 q 122 -26 122 85 q 160 -127 122 -87 q 260 -167 199 -167 q 381 -133 336 -167 q 457 -29 426 -100 q 554 -67 513 -49 q 246 -282 458 -282 q 121 -249 176 -282 q 34 -159 65 -215 q 3 -35 3 -103 q 46 115 3 50 q 172 236 89 181 l 200 254 q 285 321 254 289 q 322 408 315 353 l 336 518 l 454 518 l 438 382 z "},"\"":{"ha":471,"x_min":171,"x_max":517,"o":"m 329 1013 q 306 839 321 947 l 281 664 l 171 664 l 213 1013 l 329 1013 m 517 1013 q 493 839 508 947 l 468 664 l 357 664 l 400 1013 l 517 1013 z "},"'":{"ha":229,"x_min":140,"x_max":301,"o":"m 301 1013 q 278 839 293 947 l 253 664 l 140 664 l 183 1013 l 301 1013 z "},";":{"ha":283,"x_min":-37,"x_max":288,"o":"m 143 418 q 169 476 143 451 q 225 500 194 500 q 269 481 250 500 q 288 432 288 461 q 262 375 288 399 q 206 351 236 351 q 161 370 179 351 q 143 418 143 389 m 68 -169 l -37 -169 l 107 122 l 225 122 l 68 -169 z "},"/":{"ha":535,"x_min":21,"x_max":661,"o":"m 400 506 q 139 -26 357 415 l 21 -26 q 282 506 239 415 l 543 1036 l 661 1036 l 400 506 z "},"_":{"ha":844,"x_min":142,"x_max":718,"o":"m 718 114 l 704 0 l 142 0 l 156 114 l 718 114 z "},"{":{"ha":476,"x_min":67,"x_max":517,"o":"m 442 935 q 394 924 411 935 q 367 883 378 913 q 350 792 357 853 l 328 610 q 214 419 313 483 q 263 363 242 400 q 283 268 283 325 q 281 231 283 258 l 258 50 q 253 -24 253 10 q 267 -81 253 -67 q 315 -96 281 -96 l 376 -96 l 363 -210 l 274 -210 q 191 -206 218 -210 q 144 -178 164 -201 q 125 -99 125 -154 q 129 -44 125 -76 l 156 171 q 158 219 158 201 q 138 318 158 278 q 67 360 117 358 l 81 475 q 174 535 142 478 q 215 665 206 592 l 243 883 q 279 1001 254 965 q 335 1044 304 1038 q 429 1050 367 1050 l 517 1050 l 503 935 l 442 935 z "}}}
